<?xml version="1.0" encoding="utf-8"?>
<!-- Generator: Adobe Illustrator 17.1.0, SVG Export Plug-In . SVG Version: 6.00 Build 0)  -->
<!DOCTYPE svg PUBLIC "-//W3C//DTD SVG 1.1//EN" "http://www.w3.org/Graphics/SVG/1.1/DTD/svg11.dtd">
<svg version="1.1" id="Politwoops" xmlns="http://www.w3.org/2000/svg" xmlns:xlink="http://www.w3.org/1999/xlink" x="0px" y="0px"
	 viewBox="0 0 500 150" enable-background="new 0 0 500 150" xml:space="preserve">
<g>
	<path fill="#FFFFFF" d="M36.358,40.25h25.16c0.25,0,7.165,0,10.831,1.417c8.998,3.333,9.748,12.164,9.748,15.33
		c0,6.499-2.833,12.164-8.498,15.08c-3.833,2-9.831,2-10.748,2H54.27v13.163c0,2.666,0.417,3.416,3.833,3.416h2.5v7.415H36.358
		v-7.415h2c3.416,0,3.666-1.166,3.666-3.832V51.664c0-2.75,0-3.999-3.666-3.999h-2V40.25z M54.27,65.577h5.665
		c6.749,0,10.081-2.499,10.081-8.665c0-8.165-6.915-8.165-9.664-8.165H54.27V65.577z"/>
	<path fill="#FFFFFF" d="M105.497,99.485c-17.496,0-20.245-14.246-20.245-20.911c0-9.248,4.166-22.745,21.162-22.745
		c14.496,0,20.745,9.415,20.745,20.579C127.158,87.822,121.659,99.485,105.497,99.485z M106.246,64.161
		c-7.998,0-8.664,10.331-8.664,13.913c0,1.416,0.083,12.997,8.748,12.997c7.332,0,8.415-8.581,8.415-13.997
		C114.744,74.825,114.744,64.161,106.246,64.161z"/>
	<path fill="#FFFFFF" d="M149.983,86.155c0,4.999,0,5.082,4.666,5.082v6.832h-21.828v-6.832h1.667c3.249,0,3.249-0.666,3.249-5.248
		V51.664c0-3.583,0-5.082-3.083-5.082h-2.333v-6.665l17.662-1.417V86.155z"/>
	<path fill="#FFFFFF" d="M176.058,86.155c0,4.999,0,5.082,4.583,5.082v6.832h-21.995v-6.832h2.083c3.166,0,3.166-0.666,3.166-5.248
		V71.076c0-5.249,0-6.249-2.5-6.249c-0.833,0-1.083,0-2.999,0.083v-6.748l17.662-1.583V86.155z M176.392,44.499
		c0,4.582-4.166,6.249-7.415,6.249c-3.083,0-7.748-1.167-7.748-6.165c0-2.167,1.25-6.082,7.582-6.082
		C174.642,38.5,176.392,41.75,176.392,44.499z"/>
	<path fill="#FFFFFF" d="M201.384,44.499v12.747h9.831v8.665h-9.831v16.83c0,2.582,0,6.498,3.999,6.498c2.083,0,4.499-1,6.082-1.583
		v8.498c-5.499,2.832-10.081,2.832-11.664,2.832c-10.998,0-10.998-8.664-10.998-12.33V65.911h-4.999v-7.165
		c8.915-2.833,9.748-11.164,10.081-14.247H201.384z"/>
	<path fill="#FFFFFF" d="M236.207,57.246v6.832c-1.833,0-3.582,0-3.582,1.833c0,0.5,0.167,1.083,0.333,1.666
		c0.083,0.167,0.25,0.667,0.25,0.75l4.666,13.914h0.167l7.498-24.994h10.415l7.581,24.994h0.167l4.165-13.164
		c0-0.083,0.167-0.583,0.25-0.75c0.083-0.417,0.5-1.667,0.5-2.333c0-1.916-1.666-1.916-3.332-1.916v-6.832h18.411v6.832
		c-2.666,0-3.415,0.833-4.665,4.249L267.2,98.569h-10.331l-7.415-22.495h-0.167l-7.499,22.495h-10.247l-11.414-29.16
		c-1.833-4.666-3.083-5.332-5.749-5.332v-6.832H236.207z"/>
	<path fill="#FFFFFF" d="M306.103,99.485c-17.495,0-20.245-14.246-20.245-20.911c0-9.248,4.166-22.745,21.162-22.745
		c14.496,0,20.745,9.415,20.745,20.579C327.765,87.822,322.266,99.485,306.103,99.485z M306.853,64.161
		c-7.998,0-8.664,10.331-8.664,13.913c0,1.416,0.083,12.997,8.748,12.997c7.331,0,8.414-8.581,8.414-13.997
		C315.351,74.825,315.351,64.161,306.853,64.161z"/>
	<path fill="#FFFFFF" d="M353.007,99.485c-17.495,0-20.244-14.246-20.244-20.911c0-9.248,4.165-22.745,21.161-22.745
		c14.496,0,20.745,9.415,20.745,20.579C374.669,87.822,369.17,99.485,353.007,99.485z M353.757,64.161
		c-7.998,0-8.664,10.331-8.664,13.913c0,1.416,0.083,12.997,8.748,12.997c7.331,0,8.414-8.581,8.414-13.997
		C362.255,74.825,362.255,64.161,353.757,64.161z"/>
	<path fill="#FFFFFF" d="M394.995,104.901c0,3.415,0.583,3.832,3.832,3.832h1.75v6.832h-22.661v-6.832h1.166
		c2.916,0,3.666-0.167,3.666-4.166V71.243c0-4.583-0.083-5.499-1-5.916c-0.833-0.417-1.583-0.417-4.082-0.25v-6.665l16.579-1.166
		c0.583,2.583,0.667,3.916,0.667,5.665h0.166c1.583-2.499,4.499-6.832,11.997-6.832c11.414,0,16.08,10.248,16.08,20.412
		c0,8.581-3.999,22.744-17.579,22.744c-5.166,0-8.082-2.249-10.581-4.499V104.901z M394.412,78.907
		c0,7.165,2.832,11.664,7.998,11.664c7.665,0,7.665-10.581,7.665-12.497c0-2,0-12.164-7.582-12.164
		c-6.415,0-8.081,7.249-8.081,11.914V78.907z"/>
	<path fill="#FFFFFF" d="M461.476,69.576h-9.331V67.91c0-1.75,0-5.416-5.166-5.416c-0.916,0-5.082,0.083-5.082,3.833
		c0,2.5,2.083,3.666,5.915,5.166c10.165,4.083,15.83,6.832,15.83,14.663c0,5.166-2.75,9.081-6.082,10.914
		c-2.249,1.333-5.499,2.416-11.331,2.416c-8.164,0-13.33-1.916-15.829-2.916v-11.83h9.498c0,3.916,0,7.415,5.665,7.415
		c4.582,0,5.582-2.666,5.582-4.499c0-2.583-1.916-3.832-7.832-6.249c-9.664-3.915-12.746-7.998-12.746-13.08
		c0-3.833,1.999-12.497,16.412-12.497c4.999,0,9.914,0.917,14.497,2.833V69.576z"/>
</g>
</svg>
