<?xml version="1.0" encoding="utf-8"?>
<!-- Generator: Adobe Illustrator 17.1.0, SVG Export Plug-In . SVG Version: 6.00 Build 0)  -->
<!DOCTYPE svg PUBLIC "-//W3C//DTD SVG 1.1//EN" "http://www.w3.org/Graphics/SVG/1.1/DTD/svg11.dtd">
<svg version="1.1" id="Layer_1" xmlns="http://www.w3.org/2000/svg" xmlns:xlink="http://www.w3.org/1999/xlink" x="0px" y="0px"
	 viewBox="0 0 612 216" style="enable-background:new 0 0 612 216;" xml:space="preserve">
<style type="text/css">
	.st0{fill:none;stroke:#FFFFFF;stroke-width:2.6395;}
	.st1{fill:none;stroke:#808285;stroke-width:2.6395;}
	.st2{fill:#808285;}
	.st3{fill:none;stroke:#808285;stroke-width:1.7596;}
	.st4{fill:none;stroke:#808285;stroke-width:1.7596;stroke-dasharray:7.0386,14.0771;}
	.st5{fill:#231F20;stroke:#808285;stroke-width:2.5566;stroke-miterlimit:10;}
</style>
<path class="st0" d="M353,54.6"/>
<path class="st0" d="M343.4,54.6"/>
<path class="st1" d="M353,54.6h7.1c2.1,0,3.4,1,3.4,3.2v11.2"/>
<path class="st1" d="M346.1,76.9c-4,0-9.5,0-9.5,0c-2.1,0-2.9-0.8-2.9-3V57.4c0-2.2,0.9-2.8,3-2.8h6.7"/>
<path class="st1" d="M342.7,56.9c1.1-2.3,2-4.6,2.4-5.3c0.6-1,6-1.1,6.7-0.1c0.5,0.7,2,3.7,2.9,5.5c0.3,0.6-0.8,1.3-0.8,1.3l-10-0.1
	C343.9,58.3,342.5,57.4,342.7,56.9z"/>
<path class="st2" d="M350.9,54.9c0,0.4-1,0.7-2.3,0.7c-1.3,0-2.3-0.3-2.3-0.7c0-0.4,1-0.7,2.3-0.7C349.9,54.2,350.9,54.5,350.9,54.9
	z"/>
<path class="st2" d="M241.3,73c1.5,2.7,2.3,4.1,3,3.4c2.3-2.2,5.8-1.8,7.6,0.5c1.9,2.5,1.5,5.9-1.1,7.7c-2.5,1.8-6.2,0.8-7.4-1.5
	c-1.1-2-1.6-4.6-3.3-7.4c-1.3-2.1-4.3-4.2-4.3-4.2s-1.9,1.3-3,2.5c-1.1,1.2-2.6,2.6-3.7,6.7c-1.1,4-3,5-5.4,5c-1.9,0-5.3-1.3-5.3-5
	c-0.1-3.7,2.8-5.7,4.7-5.8c2.5-0.1,4,1.1,4.3,1.5c0.4,0.5,0.7-0.1,0.7-0.1l4.7-8.1c0,0-8.8-12.1-10-13.9c-1.2-1.8-1.2-3.8-0.9-4.8
	c0.3-1,1.2-2.5,1.2-2.5l12.7,17c0,0,12.6-17.3,12.9-17.4c0,0,0.7,0.9,1.1,2.3c0.5,1.9-0.5,4.6-2,6.7c-1.5,2.1-9.1,12.4-9.1,12.4
	S239.9,70.5,241.3,73z M223.7,77c-1.8,0-3.3,1.5-3.3,3.3c0,1.8,1.5,3.3,3.3,3.3c1.8,0,3.3-1.5,3.3-3.3C227,78.4,225.5,77,223.7,77z
	 M247.9,77c-1.8,0-3.3,1.5-3.3,3.3c0,1.8,1.5,3.3,3.3,3.3c1.8,0,3.3-1.5,3.3-3.3C251.2,78.4,249.7,77,247.9,77z"/>
<g>
	<polygon class="st1" points="308.4,65.8 308.4,87.6 287.4,87.6 287.4,57.9 300.7,57.9 	"/>
	<polygon class="st3" points="300.8,58.9 300.8,65.7 307.8,65.7 307.8,65 301.5,58.9 	"/>
</g>
<g>
	<polygon class="st1" points="367.1,72.6 367.1,83.9 346.1,83.9 346.1,64.7 359.4,64.7 	"/>
	<polygon class="st3" points="359.4,65.7 359.5,72.5 366.5,72.5 366.4,71.8 360.2,65.7 	"/>
</g>
<line class="st4" x1="387" y1="69.9" x2="462.7" y2="69.9"/>
<line class="st4" x1="124.3" y1="69.9" x2="199.9" y2="69.9"/>
<g>
	<path class="st2" d="M74.8,162.9c-3.3,5.4-8.3,9.3-14.7,9.3c-14.8,0-17-17.9-17-29.1c0-11.3,2.2-29.2,17-29.2
		c6.5,0,10.9,3.7,13.9,9.2l-4.9,2.9c-1.8-3.6-4.7-6.7-9-6.7c-10.4,0-11.1,16.4-11.1,23.9c0,7.4,0.7,23.8,11.1,23.8
		c4.4,0,7.9-3.7,10.1-7.2L74.8,162.9z"/>
	<path class="st2" d="M95.5,114.6h5.7v23.9h17.6v-23.9h5.7v56.8h-5.7v-27.9h-17.6v27.9h-5.7V114.6z"/>
	<path class="st2" d="M153,114.6V156c0,5.6,1.1,10.9,8.2,10.9s8.3-5.4,8.3-10.9v-41.3h5.7v43c0,8.9-5.5,14.6-14,14.6
		c-8.6,0-13.9-5.9-13.9-14.3v-43.3H153z"/>
	<path class="st2" d="M200.5,114.6h15.3c5.6,0,12.7,4.9,12.7,15.1c0,7-2.8,13.6-9.8,16l11.8,24.4l-5.1,2.5l-12.8-26.4h-6.4v25.3
		h-5.7V114.6z M206.2,141h8.4c4.9,0,8-3.7,8-11.3c0-7.4-3.6-10-9.4-10h-7V141z"/>
	<path class="st2" d="M248.6,114.6h7.2l16.9,47.8l0.2-0.2l-0.3-12.7v-34.9h5.7v56.8h-7.2l-16.9-47.9l-0.2,0.2l0.3,12.9v34.9h-5.7
		V114.6z"/>
	<path class="st2" d="M306.8,153.9l-4.4,18.7l-5.6-1.5l14.4-56.4h6.8l14.4,56.4l-5.6,1.5l-4.4-18.7H306.8z M314.6,122.2h-0.2
		l-6.3,26.6h12.8L314.6,122.2z"/>
	<path class="st2" d="M354.5,114.6h5.7v51.7h23.3v5.1h-29.1V114.6z"/>
	<path class="st2" d="M413.9,119.7h-7.7v-5.1h21.1v5.1h-7.8v46.6h7.8v5.1h-21.1v-5.1h7.7V119.7z"/>
	<path class="st2" d="M476.1,127.6c-0.9-4.2-3-8.4-7.8-8.4c-5.4,0-7.5,4.3-7.5,9.1c0,4.6,0.9,6.1,9.9,11.4c7,4.2,11.8,7.7,11.8,16.4
		c0,8.9-4.8,16-14.3,16c-10.1,0-13.7-6.6-14.6-15.7l5.7-0.8c0.8,6.3,2.1,11.1,9,11.1c4.9,0,8.4-3.3,8.4-10.1
		c0-7.5-4.9-10.1-10.7-13.5c-6.6-3.8-10.9-6.6-10.9-14.9c0-7.7,5.1-14.5,13.2-14.5c8,0,11.9,5.7,13.4,12.9L476.1,127.6z"/>
	<path class="st2" d="M527.2,114.6h7.2l1.7,56.8H530l-1.1-47.4h-0.2l-9.7,28.5l-9.7-28.5h-0.2l-1.1,47.4h-6l1.7-56.8h7.1l8.2,24.1
		L527.2,114.6z"/>
</g>
<g>
	<g>
		<polyline class="st1" points="287.4,74.3 279.7,74.3 279.7,44.5 293,44.5 300.6,52.4 		"/>
		<polygon class="st3" points="293,45.5 293,52.3 300.1,52.3 300,51.7 293.8,45.6 		"/>
	</g>
	<line class="st5" x1="300.3" y1="51.5" x2="300.3" y2="57.2"/>
</g>
</svg>
