<?xml version="1.0" encoding="utf-8"?>
<!-- Generator: Adobe Illustrator 17.1.0, SVG Export Plug-In . SVG Version: 6.00 Build 0)  -->
<!DOCTYPE svg PUBLIC "-//W3C//DTD SVG 1.1//EN" "http://www.w3.org/Graphics/SVG/1.1/DTD/svg11.dtd">
<svg version="1.1" id="Layer_1" xmlns="http://www.w3.org/2000/svg" xmlns:xlink="http://www.w3.org/1999/xlink" x="0px" y="0px"
	 viewBox="0 0 300 96" enable-background="new 0 0 300 96" xml:space="preserve">
<path fill="#FFFFFF" d="M164.3,75.1c0,2-0.4,3.9-1.2,5.6c-0.8,1.8-1.8,3.3-3.1,4.6c-1.3,1.3-2.8,2.3-4.6,3.1
	c-1.8,0.8-3.6,1.2-5.6,1.2h-4.4c-2,0-3.9-0.4-5.6-1.2c-1.8-0.8-3.3-1.8-4.6-3.1c-1.3-1.3-2.3-2.8-3.1-4.6c-0.8-1.8-1.2-3.6-1.2-5.6
	V21.9c0-2,0.4-3.9,1.2-5.6c0.8-1.8,1.8-3.3,3.1-4.6c1.3-1.3,2.8-2.3,4.6-3.1c1.8-0.8,3.6-1.2,5.6-1.2h4.4c2,0,3.9,0.4,5.6,1.2
	c1.8,0.8,3.3,1.8,4.6,3.1c1.3,1.3,2.3,2.8,3.1,4.6c0.8,1.8,1.2,3.6,1.2,5.6V75.1z M150.9,22.5c0-0.8-0.3-1.4-0.8-2
	c-0.5-0.5-1.2-0.8-2-0.8h-0.9c-0.8,0-1.4,0.3-2,0.8c-0.5,0.5-0.8,1.2-0.8,2v52c0,0.8,0.3,1.4,0.8,2c0.5,0.5,1.2,0.8,2,0.8h0.9
	c0.8,0,1.4-0.3,2-0.8c0.5-0.5,0.8-1.2,0.8-2V22.5z"/>
<path fill="#FFFFFF" d="M210.2,9.8v65.3c0,2-0.4,3.9-1.1,5.6c-0.8,1.8-1.8,3.3-3.1,4.6c-1.3,1.3-2.8,2.3-4.6,3.1
	c-1.8,0.8-3.6,1.2-5.6,1.2h-4.4c-2,0-3.9-0.4-5.6-1.2c-1.8-0.8-3.3-1.8-4.6-3.1c-1.3-1.3-2.3-2.8-3.1-4.6c-0.8-1.8-1.2-3.6-1.2-5.6
	V9.8c0-1.1,0.5-1.6,1.6-1.6h10.2c1.1,0,1.6,0.5,1.6,1.6v64.7c0,0.8,0.3,1.4,0.8,2c0.5,0.5,1.2,0.8,2,0.8h0.9c0.8,0,1.4-0.3,2-0.8
	s0.8-1.2,0.8-2V9.8c0-1.1,0.5-1.6,1.6-1.6h10.2C209.6,8.2,210.2,8.7,210.2,9.8z"/>
<path fill="#FFFFFF" d="M110.2,8.5c1.8,0.8,3.3,1.8,4.6,3.1c1.3,1.3,2.3,2.8,3.1,4.6c0.8,1.8,1.2,3.6,1.2,5.6v9.2
	c0,1.1-0.5,1.8-1.5,2.1l-10.5,1.6c-1,0.3-1.5-0.1-1.5-1.2V22.5c0-0.8-0.3-1.4-0.8-2c-0.5-0.5-1.2-0.8-2-0.8h-0.9
	c-0.8,0-1.4,0.3-2,0.8c-0.5,0.5-0.8,1.2-0.8,2v52c0,0.8,0.3,1.4,0.8,2c0.5,0.5,1.2,0.8,2,0.8h0.9c0.8,0,1.4-0.3,2-0.8
	c0.5-0.5,0.8-1.2,0.8-2V58.4c0-1.1,0.5-1.5,1.5-1.2l10.5,1.4c1,0.3,1.5,1,1.5,2.1v14.4c0,2-0.4,3.9-1.2,5.6
	c-0.8,1.8-1.8,3.3-3.1,4.6c-1.3,1.3-2.8,2.3-4.6,3.1c-1.8,0.8-3.6,1.2-5.6,1.2h-4.4c-2,0-3.9-0.4-5.6-1.2c-1.8-0.8-3.3-1.8-4.6-3.1
	c-1.3-1.3-2.3-2.8-3.1-4.6c-0.8-1.8-1.2-3.6-1.2-5.6V21.9c0-2,0.4-3.9,1.2-5.6c0.8-1.8,1.8-3.3,3.1-4.6c1.3-1.3,2.8-2.3,4.6-3.1
	c1.8-0.8,3.6-1.2,5.6-1.2h4.4C106.5,7.4,108.4,7.8,110.2,8.5z"/>
<g>
	<g>
		<line fill="none" stroke="#D3D3D3" stroke-width="3.103" stroke-miterlimit="10" x1="19.7" y1="49" x2="24.1" y2="49"/>
		
			<line fill="none" stroke="#D3D3D3" stroke-width="3.103" stroke-miterlimit="10" stroke-dasharray="8.9406,8.9406" x1="33" y1="49" x2="261" y2="49"/>
		<line fill="none" stroke="#D3D3D3" stroke-width="3.103" stroke-miterlimit="10" x1="265.5" y1="49" x2="269.8" y2="49"/>
	</g>
</g>
<polygon fill="#FFFFFF" points="288.6,33.5 281,33.5 290,49.5 281,65.1 288.6,65.1 299.6,49.5 "/>
<polygon opacity="0.8" fill="#FFFFFF" points="275.1,33.5 267.5,33.5 276.5,49.5 267.5,65.1 275.1,65.1 286.1,49.5 "/>
<circle fill="#FFFFFF" cx="9" cy="48.5" r="6.9"/>
<g>
	<defs>
		<rect id="SVGID_1_" x="131" y="39.6" width="13.3" height="20.6"/>
	</defs>
	<use xlink:href="#SVGID_1_"  overflow="visible" fill="#FFFFFF"/>
	<clipPath id="SVGID_2_">
		<use xlink:href="#SVGID_1_"  overflow="visible"/>
	</clipPath>
	<rect x="129.3" y="6.6" clip-path="url(#SVGID_2_)" fill="#FFFFFF" width="41.3" height="85"/>
</g>
<path fill="#FFFFFF" d="M64.9,8.5c1.8,0.8,3.3,1.8,4.6,3.1c1.3,1.3,2.3,2.8,3.1,4.6c0.8,1.8,1.2,3.6,1.2,5.6v4.4
	c0,1.1-0.5,1.8-1.5,2.1l-10.5,2.8c-1,0.3-1.5-0.1-1.5-1.2v-7.5c0-0.8-0.3-1.4-0.8-2c-0.5-0.5-1.2-0.8-2-0.8h-0.9
	c-0.8,0-1.4,0.3-2,0.8c-0.5,0.5-0.8,1.2-0.8,2v10.5c0.1,0.8,0.2,1.6,0.5,2.2c0.2,0.6,0.7,1.2,1.3,1.8l15.1,11.3
	c1.2,1.1,2,2.2,2.4,3.3s0.6,2.4,0.7,3.7v19.8c0,2-0.4,3.9-1.2,5.6c-0.8,1.8-1.8,3.3-3.1,4.6c-1.3,1.3-2.8,2.3-4.6,3.1
	c-1.8,0.8-3.6,1.2-5.6,1.2h-4.4c-2,0-3.9-0.4-5.6-1.2c-1.8-0.8-3.3-1.8-4.6-3.1c-1.3-1.3-2.3-2.8-3.1-4.6c-0.8-1.8-1.2-3.6-1.2-5.6
	V64c0-1.1,0.5-1.8,1.5-2.1l10.5-2.8c1-0.3,1.5,0.1,1.5,1.2v14.2c0,0.8,0.3,1.4,0.8,2c0.5,0.5,1.2,0.8,2,0.8h0.9c0.8,0,1.4-0.3,2-0.8
	c0.5-0.5,0.8-1.2,0.8-2V59.3c-0.1-1-0.2-1.9-0.5-2.6c-0.2-0.8-0.7-1.5-1.4-2.1L43.6,43.2c-1.2-1.1-2-2.1-2.5-3.2
	c-0.5-1.1-0.7-2.5-0.7-4.3V21.9c0-2,0.4-3.9,1.2-5.6c0.8-1.8,1.8-3.3,3.1-4.6c1.3-1.3,2.8-2.3,4.6-3.1c1.8-0.8,3.6-1.2,5.6-1.2h4.4
	C61.2,7.4,63.1,7.8,64.9,8.5z"/>
<path fill="#FFFFFF" d="M222,8.2h29.7c1.1,0,1.6,0.5,1.6,1.6V20c0,1.1-0.5,1.6-1.6,1.6h-8.1v65.5c0,0.5-0.2,0.8-0.5,1.1
	c-0.3,0.3-0.7,0.5-1.1,0.5h-10.2c-1.1,0-1.6-0.5-1.6-1.6V21.7H222c-1.1,0-1.6-0.5-1.6-1.6V9.8C220.4,8.7,220.9,8.2,222,8.2z"/>
<g>
	<defs>
		<rect id="SVGID_3_" x="176.8" y="39.6" width="13.4" height="20.6"/>
	</defs>
	<use xlink:href="#SVGID_3_"  overflow="visible" fill="#FFFFFF"/>
	<clipPath id="SVGID_4_">
		<use xlink:href="#SVGID_3_"  overflow="visible"/>
	</clipPath>
	<rect x="172.9" y="6.6" clip-path="url(#SVGID_4_)" fill="#FFFFFF" width="38.4" height="85"/>
</g>
</svg>
