<?xml version="1.0" encoding="utf-8"?>
<!-- Generator: Adobe Illustrator 17.1.0, SVG Export Plug-In . SVG Version: 6.00 Build 0)  -->
<!DOCTYPE svg PUBLIC "-//W3C//DTD SVG 1.1//EN" "http://www.w3.org/Graphics/SVG/1.1/DTD/svg11.dtd">
<svg version="1.1" id="Layer_1" xmlns="http://www.w3.org/2000/svg" xmlns:xlink="http://www.w3.org/1999/xlink" x="0px" y="0px"
	 viewBox="0 0 501.5 144" enable-background="new 0 0 501.5 144" xml:space="preserve">
<g>
	<polygon fill="#D9E021" points="118.5,92.2 77,115.2 35.5,92.2 35.5,34.6 77,11.5 118.5,34.6 	"/>
</g>
<g>
	<linearGradient id="SVGID_1_" gradientUnits="userSpaceOnUse" x1="76.5" y1="63.3931" x2="118.5" y2="63.3931">
		<stop  offset="0" style="stop-color:#E4E3E4"/>
		<stop  offset="0.5546" style="stop-color:#FFFFFF"/>
	</linearGradient>
	<polygon fill="url(#SVGID_1_)" points="118.5,92.4 76.5,115.6 76.5,11.2 118.5,34.4 	"/>
</g>
<g>
	<path fill="#7D8D00" d="M77,11.5l41.5,23.1v57.6L77,115.2L35.5,92.2V34.6L77,11.5 M77.3,6.5c-0.8,0-1.7,0.2-2.4,0.6L33.2,30.2
		c-1.6,0.9-2.7,2.6-2.7,4.4v57.6c0,1.8,1.1,3.5,2.7,4.4l41.6,23.1c0.8,0.4,1.6,0.6,2.5,0.6c0.8,0,1.7-0.2,2.4-0.6l41.4-23.1
		c1.6-0.9,2.4-2.6,2.4-4.4V34.6c0-1.8-0.8-3.5-2.4-4.4L79.7,7.1C78.9,6.7,78.2,6.5,77.3,6.5L77.3,6.5z"/>
</g>
<g>
	<path fill="#7D8D00" d="M76.5,30.2l30,14.6v36.5l-30,14.6V30.5 M76.1,27.2c-0.6,0-0.9,0.2-1.4,0.5c-0.9,0.5-1.2,1.5-1.2,2.5v65.7
		c0,1,0.3,2,1.2,2.5c0.5,0.3,0.9,0.5,1.5,0.5c0.4,0,0.8-0.1,1.3-0.3L107.6,84c1-0.5,1.9-1.5,1.9-2.7V44.8c0-1.1-0.8-2.2-1.9-2.7
		L77.5,27.5C77.1,27.3,76.5,27.2,76.1,27.2L76.1,27.2z"/>
</g>
<polyline fill="none" stroke="#7D8D00" stroke-width="3" stroke-linecap="round" stroke-linejoin="round" stroke-miterlimit="10" points="
	113.4,87.9 77.2,107.6 41,87.9 41,38.7 77.2,19 113,38.5 "/>
<line fill="none" stroke="#7D8D00" stroke-width="3" stroke-linecap="round" stroke-linejoin="round" stroke-miterlimit="10" x1="120.2" y1="33.7" x2="131.8" y2="24.8"/>
<g>
	
		<line fill="none" stroke="#7D8D00" stroke-width="3" stroke-linecap="round" stroke-linejoin="round" stroke-miterlimit="10" x1="34.1" y1="33.5" x2="23.1" y2="25.1"/>
</g>
<line fill="none" stroke="#7D8D00" stroke-width="3" stroke-linecap="round" stroke-linejoin="round" stroke-miterlimit="10" x1="119.9" y1="93.2" x2="131" y2="101.6"/>
<g>
	
		<line fill="none" stroke="#7D8D00" stroke-width="3" stroke-linecap="round" stroke-linejoin="round" stroke-miterlimit="10" x1="33.5" y1="93.1" x2="23.1" y2="101.6"/>
</g>
<g>
	
		<line fill="none" stroke="#7D8D00" stroke-width="3" stroke-linecap="round" stroke-linejoin="round" stroke-miterlimit="10" x1="33.4" y1="63.1" x2="16.8" y2="63.1"/>
	
		<path fill="#D9E021" stroke="#7D8D00" stroke-width="3" stroke-linecap="round" stroke-linejoin="round" stroke-miterlimit="10" d="
		M8.2,60.9c1.4-1.9,4.1-2.2,6-0.8c1.9,1.4,2.2,4.1,0.8,6c-1.4,1.9-4.1,2.2-6,0.8C7.1,65.4,6.8,62.8,8.2,60.9z"/>
	
		<path fill="#D9E021" stroke="#7D8D00" stroke-width="3" stroke-linecap="round" stroke-linejoin="round" stroke-miterlimit="10" d="
		M16.2,20.9c1.4-1.9,4.1-2.2,6-0.8c1.9,1.4,2.2,4.1,0.8,6c-1.4,1.9-4.1,2.2-6,0.8C15.1,25.4,14.8,22.8,16.2,20.9z"/>
	
		<path fill="#D9E021" stroke="#7D8D00" stroke-width="3" stroke-linecap="round" stroke-linejoin="round" stroke-miterlimit="10" d="
		M130.2,19.9c1.4-1.9,4.1-2.2,6-0.8c1.9,1.4,2.2,4.1,0.8,6c-1.4,1.9-4.1,2.2-6,0.8C129.1,24.4,128.8,21.8,130.2,19.9z"/>
	
		<path fill="#D9E021" stroke="#7D8D00" stroke-width="3" stroke-linecap="round" stroke-linejoin="round" stroke-miterlimit="10" d="
		M138.2,60.9c1.4-1.9,4.1-2.2,6-0.8c1.9,1.4,2.2,4.1,0.8,6c-1.4,1.9-4.1,2.2-6,0.8C137.1,65.4,136.8,62.8,138.2,60.9z"/>
	
		<path fill="#D9E021" stroke="#7D8D00" stroke-width="3" stroke-linecap="round" stroke-linejoin="round" stroke-miterlimit="10" d="
		M131.2,101.9c1.4-1.9,4.1-2.2,6-0.8c1.9,1.4,2.2,4.1,0.8,6c-1.4,1.9-4.1,2.2-6,0.8C130.1,106.4,129.8,103.8,131.2,101.9z"/>
	
		<path fill="#D9E021" stroke="#7D8D00" stroke-width="3" stroke-linecap="round" stroke-linejoin="round" stroke-miterlimit="10" d="
		M16.2,100.9c1.4-1.9,4.1-2.2,6-0.8c1.9,1.4,2.2,4.1,0.8,6c-1.4,1.9-4.1,2.2-6,0.8C15.1,105.4,14.8,102.8,16.2,100.9z"/>
</g>
<g>
	
		<line fill="none" stroke="#7D8D00" stroke-width="3" stroke-linecap="round" stroke-linejoin="round" stroke-miterlimit="10" x1="120.6" y1="63.1" x2="137.3" y2="63.1"/>
</g>
<g>
	<path fill="#4D4D4D" d="M195.6,74.6c-0.4,1.9-0.1,2.9,0.9,2.9c0.5,0,1.4-0.4,2.5-1.8l0,1.1c-1.2,1.6-2.7,2.3-3.6,2.3
		c-1.8,0-2.6-1.4-2.1-4.5l1.4-8.1h-2.6l0.3-1.4h2.6l1.1-6.4h2.2l-1.1,6.4h3.2l-0.3,1.4h-3.2L195.6,74.6z"/>
	<path fill="#4D4D4D" d="M203.3,55.6l0.1-0.8l4.8-1l-2.4,14c1.2-2,2.9-3.3,4.6-3.3c2.7,0,3.4,2.6,2.8,6l-0.9,5.5
		c-0.2,0.9-0.1,1.6,0.4,1.6c0.4,0,1.3-0.6,1.6-0.9v0.9c-0.8,0.8-1.9,1.4-2.6,1.4c-1.4,0-2-1.2-1.7-2.8l1-5.6
		c0.5-2.6,0.2-4.3-1.7-4.3c-1.3,0-3.6,2-4.3,6.2l-1.1,6h-2.2l3.2-18.2C205.5,56.3,205.3,55.6,203.3,55.6z"/>
	<path fill="#4D4D4D" d="M222.5,77.5c1,0,2.6-0.8,3.6-1.8l0.4,0.8c-1.3,1.5-3.3,2.6-5,2.6c-3.3,0-5-3.3-4.3-7.4
		c0.8-4.2,4.1-7.3,6.9-7.3c2.1,0,3.3,1.6,2.9,3.4c-0.4,2.1-2.7,4.6-7.6,5.6C219.3,76,220.3,77.5,222.5,77.5z M224.9,67.9
		c0.2-1-0.2-1.9-1.2-1.9c-1.8,0-3.6,2.2-4.2,5.8c0,0.2-0.1,0.4-0.1,0.6C222.9,71.6,224.7,69.5,224.9,67.9z"/>
</g>
<g>
	<path fill="#4D4D4D" d="M421.7,110.1h2.2l-1.1,6.4c1-0.5,1.7-0.7,2.8-0.7c3.4,0,5.5,3.3,4.8,7.3c-0.7,4-3.4,7.4-6.7,7.4
		c-1.2,0-2.4-0.8-3-1.8l-1,5.7c-0.7,4-0.3,4.6,2.4,4.6l-0.2,0.8h-8.6l0.2-0.8c2.6,0,3.2-0.6,4-4.6l2.6-14.4c-0.9,1.8-1.9,3.3-3,4.6
		l-0.7-0.5c1.7-2,4.1-6.4,5.1-12.1L421.7,110.1z M425.3,117.1c-1.3,0-2.2,0.6-2.8,1l-1.2,7.1c-0.4,2.2,0.7,3.7,2.2,3.7
		c2.3,0,3.8-2.6,4.3-5.8C428.4,119.9,427.7,117.1,425.3,117.1z"/>
	<path fill="#4D4D4D" d="M441.5,115.8c1.8,0,2.2,1.5,2,2.5c-0.1,0.5-0.5,1.4-1.6,1.4c-0.7,0-1.2-0.6-1.1-1.3c0.1-0.6,0-0.8-0.4-0.8
		c-1.2,0-3.1,2.7-4.1,8.4l-0.7,3.9h-2.1l1.9-10.8c0.2-1,0.1-1.7-0.4-1.7c-0.5,0-1.3,0.6-1.6,0.9v-1c0.8-0.8,1.8-1.4,2.6-1.4
		c1.4,0,1.9,1.2,1.6,2.8l-0.2,1C438.4,117.2,440,115.8,441.5,115.8z"/>
	<path fill="#4D4D4D" d="M449.3,130.5c-3.4,0-5.5-3.3-4.8-7.4c0.7-4,4-7.3,7.4-7.3c3.3,0,5.4,3.3,4.7,7.3
		C455.9,127.2,452.6,130.5,449.3,130.5z M451.7,117.1c-2.4,0-4,2.7-4.6,6.1c-0.6,3.4,0,6.1,2.4,6.1c2.4,0,4-2.8,4.6-6.1
		C454.6,119.8,454,117.1,451.7,117.1z"/>
	<path fill="#4D4D4D" d="M456,140.5c-2.5,0-3.6-1.8-3.4-3c0.1-0.6,0.6-1,1.2-1c1.7,0,0.3,2.8,2.5,2.8c1.3,0,2.2-1.1,3-5.6l2.6-14.7
		c0.2-1,0.1-1.7-0.4-1.7c-0.5,0-1.3,0.6-1.6,0.9v-1c0.8-0.8,1.8-1.4,2.6-1.4c1.4,0,2,1.2,1.7,2.8l-2.7,15
		C460.8,138.5,458.5,140.5,456,140.5z M464.4,111.5c-0.8,0-1.3-0.6-1.2-1.4c0.1-0.8,0.9-1.4,1.7-1.4c0.8,0,1.3,0.6,1.2,1.4
		C466,110.9,465.2,111.5,464.4,111.5z"/>
	<path fill="#4D4D4D" d="M472.7,128.9c1,0,2.6-0.8,3.6-1.8l0.4,0.8c-1.3,1.5-3.3,2.6-5,2.6c-3.3,0-5-3.3-4.3-7.4
		c0.8-4.2,4.1-7.3,6.9-7.3c2.1,0,3.3,1.6,2.9,3.4c-0.4,2.1-2.7,4.6-7.6,5.6C469.5,127.3,470.5,128.9,472.7,128.9z M475.2,119.3
		c0.2-1-0.2-1.9-1.2-1.9c-1.8,0-3.6,2.2-4.2,5.8c0,0.2-0.1,0.4-0.1,0.6C473.2,123,474.9,120.9,475.2,119.3z"/>
	<path fill="#4D4D4D" d="M483.9,130.5c-3.3,0-4.8-3-4-7c0.8-4.7,4.2-7.7,6.6-7.7c2.6,0,3.3,1.7,3.2,2.6c-0.1,0.6-0.5,1.3-1.3,1.3
		c-1.6,0-0.4-2.7-2-2.7c-1.4,0-3.4,2.1-4.1,6.4c-0.6,3.2,0.3,5.4,2.8,5.4c1,0,2.3-0.6,3.5-1.8l0.4,0.8
		C487.5,129.5,485.7,130.5,483.9,130.5z"/>
	<path fill="#4D4D4D" d="M494.6,126c-0.4,1.9-0.1,2.9,0.9,2.9c0.5,0,1.4-0.4,2.5-1.8l0,1.1c-1.2,1.6-2.7,2.3-3.6,2.3
		c-1.8,0-2.6-1.4-2.1-4.5l1.4-8.1h-2.6l0.3-1.4h2.6l1.1-6.4h2.2l-1.1,6.4h3.2l-0.3,1.4h-3.2L494.6,126z"/>
</g>
<g>
	<path fill="#4D4D4D" d="M187.1,89.8c0,12.5-4,17.2-13.6,17.2c-9.7,0-13.5-4.7-13.5-17.2c0-12.5,3.8-16.8,13.5-16.8
		C183.1,73,187.1,77.2,187.1,89.8z M164.8,89.8c0,9.5,2.1,12.8,8.6,12.8s8.8-3.3,8.8-12.8c0-9.4-2.3-12.5-8.8-12.5
		S164.8,80.4,164.8,89.8z"/>
	<path fill="#4D4D4D" d="M211,95.4c0,8.4-3.1,11.5-8,11.5c-2.8,0-5.2-0.8-6.4-1.4v11.8h-4.3V85.9c2.3-1.1,5.7-2,8.9-2
		C207.7,83.9,211,87,211,95.4z M196.6,89v12.2c1.4,0.8,3,1.5,5,1.5c3,0,4.9-1.7,4.9-7.3c0-5.5-2.1-7.2-5.4-7.2
		C199.3,88.1,197.8,88.5,196.6,89z"/>
	<path fill="#4D4D4D" d="M233,94.5v2.3h-13.6c0.1,4.8,2.1,6.1,5.5,6.1c3.6,0,5.7-1.3,6.5-1.9l1.5,3.8c-1.4,0.8-4.1,2.2-8.2,2.2
		c-6.6,0-9.7-2.9-9.7-11.6c0-8.5,3.4-11.5,9.2-11.5C231.2,83.9,233,88,233,94.5z M219.4,93.3h9.4c0-4-0.8-5.5-4.6-5.5
		C221.2,87.7,219.5,89.1,219.4,93.3z"/>
	<path fill="#4D4D4D" d="M256.3,93.7v12.6H252V93.8c0-3.9-1.5-5.7-5-5.7c-2.1,0-3.6,0.5-4.6,0.9v17.4H238V85.9c2.1-1,5.5-2,8.9-2
		C254.1,83.9,256.3,87.1,256.3,93.7z"/>
	<path fill="#4D4D4D" d="M295.2,76.2l-1.9,3.8c-1.5-1-3.7-2.5-7.8-2.5c-4.9,0-8.4,2.4-8.4,12.5c0,9.4,3.5,12.4,8.5,12.4
		c4.4,0,6.8-1.7,8.7-3l1.6,3.9c-2.4,1.8-5.1,3.7-10.8,3.7c-7.7,0-12.9-3.8-12.9-17.1c0-12.9,5.2-16.9,12.8-16.9
		C290.4,73,293.4,74.7,295.2,76.2z"/>
	<path fill="#4D4D4D" d="M305.1,77.3c0,1.7-0.7,2.4-2.4,2.4c-1.8,0-2.4-0.7-2.4-2.4c0-1.8,0.6-2.5,2.4-2.5
		C304.5,74.8,305.1,75.4,305.1,77.3z M304.8,106.3h-4.3V84.5h4.3V106.3z"/>
	<path fill="#4D4D4D" d="M320.2,106.3h-3.6l-8.1-21.8h4.5l5.6,15.6l5.7-15.6h4.5L320.2,106.3z"/>
	<path fill="#4D4D4D" d="M336.9,77.3c0,1.7-0.7,2.4-2.4,2.4c-1.8,0-2.4-0.7-2.4-2.4c0-1.8,0.6-2.5,2.4-2.5
		C336.3,74.8,336.9,75.4,336.9,77.3z M336.6,106.3h-4.3V84.5h4.3V106.3z"/>
	<path fill="#4D4D4D" d="M358.3,86.1l-1.4,3.7c-0.9-0.7-2.4-1.8-5.5-1.8c-3.3,0-5.3,1.6-5.3,7.4c0,5.8,2,7.4,5.5,7.4
		c2.8,0,4.8-1.2,5.7-1.9l1.6,3.7c-1.6,1-3.9,2.4-7.9,2.4c-6.6,0-9.4-2.8-9.4-11.6c0-8.6,3.2-11.5,9.1-11.5
		C355,83.9,356.9,85.2,358.3,86.1z"/>
	<path fill="#4D4D4D" d="M398.1,89.9c0,11.9-4.4,16.4-14.4,16.4h-9.5V73.7h9.5C393.6,73.7,398.1,78.1,398.1,89.9z M378.8,77.9v24
		h4.3c7.2,0,10.2-2.6,10.2-12.1c0-8.9-2.9-11.9-9.8-11.9H378.8z"/>
	<path fill="#4D4D4D" d="M418.6,92.2v12.8c-2.4,1.2-5.9,1.9-9.2,1.9c-4.8,0-7.8-1.8-7.8-6.3c0-5.3,3.7-6.9,8.6-6.9
		c1.9,0,3.3,0.2,4.1,0.3v-1.6c0-3.6-1-4.5-3.9-4.5c-2.3,0-4.8,0.9-6.7,2l-1.6-3.7c2-1.3,5.4-2.5,9-2.5
		C416.2,83.9,418.6,85.4,418.6,92.2z M405.9,100.4c0,2.1,1.4,3,3.9,3c2,0,3.8-0.4,4.7-0.8v-5c-0.8-0.2-2.4-0.4-4-0.4
		C407.8,97.2,405.9,97.9,405.9,100.4z"/>
	<path fill="#4D4D4D" d="M429.3,84.5h4.7v3.8h-4.7v11.4c0,1.9,0.6,2.6,2.3,2.6c0.7,0,1.6-0.1,2.6-0.3v4c-1.5,0.2-2.9,0.5-4.1,0.5
		c-3.4,0-5.1-1.6-5.1-5.7V88.3h-2.9v-3.8h2.9v-6.8h4.3V84.5z"/>
	<path fill="#4D4D4D" d="M454.4,92.2v12.8c-2.4,1.2-5.9,1.9-9.2,1.9c-4.8,0-7.8-1.8-7.8-6.3c0-5.3,3.7-6.9,8.6-6.9
		c1.9,0,3.3,0.2,4.1,0.3v-1.6c0-3.6-1-4.5-3.9-4.5c-2.3,0-4.8,0.9-6.7,2l-1.6-3.7c2-1.3,5.4-2.5,9-2.5
		C452,83.9,454.4,85.4,454.4,92.2z M441.7,100.4c0,2.1,1.4,3,3.9,3c2,0,3.8-0.4,4.7-0.8v-5c-0.8-0.2-2.4-0.4-4-0.4
		C443.6,97.2,441.7,97.9,441.7,100.4z"/>
</g>
</svg>
