<?xml version="1.0" encoding="utf-8"?>
<!-- Generator: Adobe Illustrator 17.1.0, SVG Export Plug-In . SVG Version: 6.00 Build 0)  -->
<!DOCTYPE svg PUBLIC "-//W3C//DTD SVG 1.1//EN" "http://www.w3.org/Graphics/SVG/1.1/DTD/svg11.dtd">
<svg version="1.1" id="Sunlight_Academy" xmlns="http://www.w3.org/2000/svg" xmlns:xlink="http://www.w3.org/1999/xlink" x="0px"
	 y="0px" viewBox="0 0 1000 500" enable-background="new 0 0 1000 500" xml:space="preserve">
<g>
	<g>
		<path fill="#BEBEBE" d="M347.359,299.478c1.38,4.453,2.418,9.336,2.277,13.744c-0.608,19.037-12.74,27.076-21.32,36.481
			c2.143-0.429,18.927-13.106,33.49-12.012c12.047,0.902,23.088,6.865,23.088,6.865s-16.718,16.002-30.275,16.329
			c-10.066,0.251-12.888-3.767-18.746-5.485c-5.169-1.523-14.327-1.059-14.327-1.059s9.163-8.97,11.322-16.389
			c2.152-7.419,1.521-12.994,0.27-21.002c-0.066-0.418-0.089-0.812-0.143-1.227C338.245,310.744,343.061,305.318,347.359,299.478z"
			/>
		<path fill="#BEBEBE" d="M365.413,284.741c2.502,14.207-2.932,28.676-6.298,35.896c2.685-1.805,10.297-10.395,22.097-12.329
			c6.722-1.101,20.898,3.081,20.898,3.081s-3.807,12.552-18.033,17.124c-14.224,4.579-17-3.248-22.947-2.757
			c-6.95,0.575-13.23,7.656-13.23,7.656s8.764-11.876,8.461-19.828c-0.207-5.325-3.248-10.618-5.504-19.124
			c4.14-6.255,7.732-12.904,10.675-19.897C363.279,277.496,364.736,280.894,365.413,284.741z"/>
		<path fill="#BEBEBE" d="M376.725,255.807c5.424,16.197,2.537,31.439,2.537,31.439s7.36-8.733,17.741-11.486
			c10.381-2.753,16.873,0.39,22.459,6.802c-0.019,0.014-0.033,0.021-0.05,0.035c-10.336,4-11.923,8.736-21.323,12.594
			c-10.114,4.157-13.083,2.927-16.045,3.959c-8.668,3.021-13.137,10.109-13.803,10.775c0.723-0.725,8.145-13.193,7.606-19.48
			c-0.535-6.213-4.851-8.593-12.207-21.222c2.945-8.043,5.035-16.49,6.232-25.222C372.468,246.953,375.066,250.859,376.725,255.807z
			"/>
		<path fill="#BEBEBE" d="M370.223,213.356c3.751,3.711,8.822,9.886,12.416,18.755c2.636,6.506,4.091,15.35,4.882,20.03
			c0,0,0.862-4.697,8.178-11.385c6.276-5.736,20.264-7.816,23.102-8.402c2.61-0.533,5.018-1.683,5.018-1.683
			s1.296,16.911-16.498,23.379c-9.794,3.554-12.374,4.025-16.542,7.667c-2.091,1.826-6.482,8.684-6.482,8.684
			s2.061-9.653-3.119-19.438c-2.056-3.886-6.708-5.346-10.802-10.938c0.434-4.185,0.664-8.429,0.664-12.73
			C371.04,222.577,370.743,217.932,370.223,213.356z"/>
		<path fill="#BEBEBE" d="M377.772,196.902c7.872,8.907,10.742,22.978,10.742,22.978s1.594-12.252,6.548-15.981
			c5.518-4.154,11.371-5.241,14.924-5.976c3.182-0.665,5.837-2.516,5.837-2.516s3.192,8.649-3.046,15.678
			c-6.243,7.022-15,9.925-19.31,13.594c-4.314,3.673-4.396,9.339-4.396,9.339s-1.606-9.691-4.058-12.102
			c-3.666-3.6-9.484-6.761-15.214-11.904c-1.085-7.649-2.891-15.061-5.328-22.184C367.896,189.326,373.749,192.344,377.772,196.902z
			"/>
		<path fill="#BEBEBE" d="M369.933,169.529c4.677,3.028,7.675,8.165,9.816,13.2c0.045-1.366,0.41-6.248,6.804-10.22
			c9.559-5.931,19.581-6.293,19.581-6.293s-0.76,7.945-5.356,13.082c-4.786,5.339-8.755,5.826-11.743,8.893
			c-4.844,4.972-3.304,14.747-3.304,14.747s-3.556-13.576-17.655-19.814c-3.228-1.429-5.685-3.366-7.583-5.415
			c-1.76-3.948-3.721-7.778-5.874-11.489C355.069,166.135,362.664,164.825,369.933,169.529z"/>
		<path fill="#BEBEBE" d="M374.051,169.895c0,0-1.502-2.07-4.503-5.422c-3-3.352-12.106-5.541-15.118-6.328
			c-8.764-2.265-11.266-12.841-11.266-12.841s4.476-0.784,9.994,0.422c6.173,1.338,13.132,10.768,13.132,10.768
			s-0.395-9.039,1.033-12.576c2.089-5.182,8.224-9.601,8.224-9.601s4.105,5.67,3.673,14.033c-0.288,5.541-3.117,8.91-4.486,13.364
			C373.409,166.048,374.051,169.895,374.051,169.895z"/>
		<path fill="#BEBEBE" d="M338.217,130.528c6.37,0.268,10.651,4.018,10.651,4.018s-2.265-5.293-3.113-9.646
			c-0.847-4.363,0.409-8.872,0.409-8.872s6.506,3.345,9.213,10.51c2.07,5.478-0.099,8.649,0.906,12.204
			c1.335,4.708,4.849,10.015,5.004,10.116c-0.057-0.035-4.119-5.9-9.013-7.747c-3.819-1.443-7.585,0.355-13.103,0.425
			c-1.564,0.021-2.941-0.324-4.213-0.798c-2.476-2.453-5.058-4.798-7.734-7.035C328.255,133.156,333.799,130.344,338.217,130.528z"
			/>
		<path fill="#BEBEBE" d="M320.008,124.413c-6.591,0.694-10.437-4.986-10.437-4.986s3.337-2.028,6.635-2.729
			c6.075-1.293,13.624,1.272,13.624,1.272s-2.56-3.405-4.128-8.468c-0.655-2.119-0.064-5.422-0.064-5.422s7.046,0.704,9.973,7.259
			c2.031,4.544,0.376,6.21,2.434,10.475c1.129,2.331,3.969,6.109,3.969,6.109s-5.021-2.638-8.576-3.666
			C329.88,123.228,325.988,123.786,320.008,124.413z"/>
		<path fill="#BEBEBE" d="M304.013,111.352c-5.52-3.307-9.128-11.597-9.128-11.597s5.903,2.972,12.984,2.948
			c8.39-0.035,12.677,9.342,12.677,9.342S313.664,117.137,304.013,111.352z"/>
		<path fill="#BEBEBE" d="M298.033,351.4c-8.339,17.124-22.699,19.493-34.373,24.567c2.122,0.488,22.63-4.213,35.474,2.746
			c10.618,5.75,18.256,15.705,18.256,15.705s-21.797,7.76-34.303,2.52c-9.294-3.892-9.552-7.611-14.869-12.677
			c-3.889-3.718-12.641-6.827-12.641-6.827s12.034-4.436,17.042-10.325c5.004-5.886,6.701-11.235,8.833-19.054
			c0.336-1.234,0.711-2.408,1.115-3.537c6.605-1.878,12.991-4.276,19.086-7.189C301.112,342.134,300.049,347.267,298.033,351.4z"/>
		<path fill="#BEBEBE" d="M324.088,331.868c-3.533,13.988-14.406,24.968-20.441,30.174c3.192-0.547,13.65-5.269,25.208-2.209
			c6.586,1.749,17.807,11.36,17.807,11.36s-8.604,9.897-23.456,8.252c-14.859-1.645-14.183-9.917-19.81-11.904
			c-6.579-2.314-15.2,1.575-15.2,1.575s12.852-7.252,15.821-14.636c1.998-4.955,1.383-11.054,2.823-19.786
			c6.377-3.436,12.395-7.436,18.027-11.907C325.045,325.672,324.878,328.739,324.088,331.868z"/>
	</g>
	<g>
		<path fill="#BEBEBE" d="M150.838,299.478c-1.38,4.453-2.418,9.336-2.277,13.744c0.608,19.037,12.74,27.076,21.32,36.481
			c-2.143-0.429-18.927-13.106-33.49-12.012c-12.047,0.902-23.088,6.865-23.088,6.865s16.718,16.002,30.275,16.329
			c10.066,0.251,12.888-3.767,18.746-5.485c5.169-1.523,14.327-1.059,14.327-1.059s-9.163-8.97-11.322-16.389
			c-2.152-7.419-1.521-12.994-0.27-21.002c0.066-0.418,0.089-0.812,0.143-1.227C159.952,310.744,155.137,305.318,150.838,299.478z"
			/>
		<path fill="#BEBEBE" d="M132.784,284.741c-2.502,14.207,2.932,28.676,6.298,35.896c-2.685-1.805-10.297-10.395-22.097-12.329
			c-6.722-1.101-20.898,3.081-20.898,3.081s3.807,12.552,18.033,17.124c14.224,4.579,17-3.248,22.947-2.757
			c6.95,0.575,13.23,7.656,13.23,7.656s-8.764-11.876-8.461-19.828c0.207-5.325,3.248-10.618,5.504-19.124
			c-4.14-6.255-7.732-12.904-10.675-19.897C134.918,277.496,133.462,280.894,132.784,284.741z"/>
		<path fill="#BEBEBE" d="M121.473,255.807c-5.424,16.197-2.537,31.439-2.537,31.439s-7.36-8.733-17.741-11.486
			c-10.381-2.753-16.873,0.39-22.459,6.802c0.019,0.014,0.033,0.021,0.05,0.035c10.336,4,11.923,8.736,21.323,12.594
			c10.114,4.157,13.083,2.927,16.045,3.959c8.668,3.021,13.137,10.109,13.803,10.775c-0.723-0.725-8.145-13.193-7.606-19.48
			c0.535-6.213,4.851-8.593,12.207-21.222c-2.945-8.043-5.035-16.49-6.232-25.222C125.729,246.953,123.131,250.859,121.473,255.807z
			"/>
		<path fill="#BEBEBE" d="M127.975,213.356c-3.751,3.711-8.822,9.886-12.416,18.755c-2.636,6.506-4.091,15.35-4.882,20.03
			c0,0-0.862-4.697-8.178-11.385c-6.276-5.736-20.264-7.816-23.102-8.402c-2.61-0.533-5.018-1.683-5.018-1.683
			s-1.296,16.911,16.498,23.379c9.794,3.554,12.374,4.025,16.542,7.667c2.091,1.826,6.482,8.684,6.482,8.684
			s-2.061-9.653,3.119-19.438c2.056-3.886,6.708-5.346,10.802-10.938c-0.434-4.185-0.664-8.429-0.664-12.73
			C127.158,222.577,127.454,217.932,127.975,213.356z"/>
		<path fill="#BEBEBE" d="M120.426,196.902c-7.872,8.907-10.742,22.978-10.742,22.978s-1.594-12.252-6.548-15.981
			c-5.518-4.154-11.371-5.241-14.924-5.976c-3.182-0.665-5.837-2.516-5.837-2.516s-3.192,8.649,3.046,15.678
			c6.243,7.022,15,9.925,19.31,13.594c4.314,3.673,4.396,9.339,4.396,9.339s1.606-9.691,4.058-12.102
			c3.666-3.6,9.484-6.761,15.214-11.904c1.085-7.649,2.891-15.061,5.328-22.184C130.301,189.326,124.449,192.344,120.426,196.902z"
			/>
		<path fill="#BEBEBE" d="M128.264,169.529c-4.677,3.028-7.675,8.165-9.817,13.2c-0.045-1.366-0.41-6.248-6.804-10.22
			c-9.559-5.931-19.581-6.293-19.581-6.293s0.76,7.945,5.356,13.082c4.786,5.339,8.755,5.826,11.743,8.893
			c4.844,4.972,3.304,14.747,3.304,14.747s3.556-13.576,17.655-19.814c3.228-1.429,5.685-3.366,7.583-5.415
			c1.76-3.948,3.721-7.778,5.873-11.489C143.128,166.135,135.534,164.825,128.264,169.529z"/>
		<path fill="#BEBEBE" d="M124.147,169.895c0,0,1.502-2.07,4.503-5.422c3-3.352,12.106-5.541,15.118-6.328
			c8.764-2.265,11.266-12.841,11.266-12.841s-4.476-0.784-9.994,0.422c-6.173,1.338-13.132,10.768-13.132,10.768
			s0.395-9.039-1.033-12.576c-2.089-5.182-8.224-9.601-8.224-9.601s-4.105,5.67-3.673,14.033c0.288,5.541,3.117,8.91,4.486,13.364
			C124.788,166.048,124.147,169.895,124.147,169.895z"/>
		<path fill="#BEBEBE" d="M159.98,130.528c-6.37,0.268-10.651,4.018-10.651,4.018s2.265-5.293,3.113-9.646
			c0.847-4.363-0.409-8.872-0.409-8.872s-6.506,3.345-9.213,10.51c-2.07,5.478,0.099,8.649-0.906,12.204
			c-1.335,4.708-4.849,10.015-5.004,10.116c0.057-0.035,4.119-5.9,9.013-7.747c3.819-1.443,7.585,0.355,13.103,0.425
			c1.564,0.021,2.941-0.324,4.213-0.798c2.476-2.453,5.058-4.798,7.734-7.035C169.943,133.156,164.399,130.344,159.98,130.528z"/>
		<path fill="#BEBEBE" d="M178.19,124.413c6.591,0.694,10.437-4.986,10.437-4.986s-3.337-2.028-6.635-2.729
			c-6.075-1.293-13.624,1.272-13.624,1.272s2.56-3.405,4.128-8.468c0.655-2.119,0.064-5.422,0.064-5.422s-7.046,0.704-9.973,7.259
			c-2.031,4.544-0.376,6.21-2.434,10.475c-1.129,2.331-3.969,6.109-3.969,6.109s5.021-2.638,8.576-3.666
			C168.318,123.228,172.21,123.786,178.19,124.413z"/>
		<path fill="#BEBEBE" d="M194.185,111.352c5.52-3.307,9.128-11.597,9.128-11.597s-5.903,2.972-12.984,2.948
			c-8.39-0.035-12.677,9.342-12.677,9.342S184.534,117.137,194.185,111.352z"/>
		<path fill="#BEBEBE" d="M200.164,351.4c8.339,17.124,22.699,19.493,34.373,24.567c-2.122,0.488-22.63-4.213-35.474,2.746
			c-10.618,5.75-18.256,15.705-18.256,15.705s21.797,7.76,34.303,2.52c9.294-3.892,9.552-7.611,14.869-12.677
			c3.889-3.718,12.641-6.827,12.641-6.827s-12.034-4.436-17.042-10.325c-5.004-5.886-6.701-11.235-8.833-19.054
			c-0.336-1.234-0.711-2.408-1.115-3.537c-6.605-1.878-12.991-4.276-19.086-7.189C197.086,342.134,198.148,347.267,200.164,351.4z"
			/>
		<path fill="#BEBEBE" d="M174.109,331.868c3.533,13.988,14.406,24.968,20.441,30.174c-3.192-0.547-13.65-5.269-25.208-2.209
			c-6.586,1.749-17.807,11.36-17.807,11.36s8.604,9.897,23.456,8.252c14.859-1.645,14.183-9.917,19.81-11.904
			c6.579-2.314,15.2,1.575,15.2,1.575s-12.852-7.252-15.821-14.636c-1.998-4.955-1.383-11.054-2.823-19.786
			c-6.377-3.436-12.395-7.436-18.027-11.907C173.152,325.672,173.32,328.739,174.109,331.868z"/>
	</g>
</g>
<g>
	<path fill="#AEAEAE" d="M307.25,119.019c-1.025-0.565-2.059-1.115-3.103-1.648l0.815-1.589c1.058,0.544,2.107,1.101,3.148,1.673
		L307.25,119.019z M192.437,118.17l-0.836-1.575c1.051-0.559,2.112-1.101,3.18-1.629l0.791,1.599
		C194.518,117.086,193.474,117.621,192.437,118.17z M297.801,114.347c-1.068-0.472-2.145-0.929-3.232-1.369l0.673-1.652
		c1.101,0.448,2.195,0.911,3.281,1.39L297.801,114.347z M201.968,113.635l-0.697-1.641c1.098-0.465,2.202-0.913,3.314-1.345
		l0.645,1.662C204.135,112.736,203.048,113.177,201.968,113.635z M287.984,110.525c-1.105-0.376-2.216-0.735-3.337-1.08l0.526-1.704
		c1.134,0.348,2.263,0.714,3.385,1.094L287.984,110.525z M211.863,109.953l-0.551-1.697c1.131-0.368,2.27-0.716,3.417-1.051
		l0.498,1.714C214.098,109.248,212.976,109.593,211.863,109.953z M277.865,107.575c-1.136-0.279-2.279-0.538-3.429-0.784
		l0.373-1.746c1.167,0.249,2.328,0.516,3.481,0.798L277.865,107.575z M222.043,107.153l-0.397-1.739
		c1.16-0.265,2.326-0.512,3.497-0.744l0.345,1.749C224.334,106.648,223.186,106.892,222.043,107.153z M267.517,105.522
		c-1.159-0.176-2.321-0.338-3.486-0.483l0.22-1.77c1.183,0.148,2.363,0.31,3.535,0.49L267.517,105.522z M232.431,105.256
		l-0.244-1.767c1.178-0.162,2.361-0.308,3.549-0.436l0.192,1.774C234.757,104.954,233.592,105.097,232.431,105.256z
		 M257.028,104.381c-1.167-0.077-2.34-0.136-3.516-0.178l0.066-1.784c1.194,0.045,2.38,0.105,3.565,0.181L257.028,104.381z
		 M242.948,104.275l-0.091-1.781c1.188-0.061,2.38-0.103,3.575-0.127l0.038,1.784C245.293,104.176,244.119,104.217,242.948,104.275z
		"/>
</g>
<g>
	<path fill="#696969" d="M256.22,419.968c0,3.513-2.847,6.363-6.367,6.363c-3.513,0-6.363-2.85-6.363-6.363
		c0-3.516,2.85-6.363,6.363-6.363C253.373,413.605,256.22,416.452,256.22,419.968z"/>
	<circle fill="#696969" cx="273.324" cy="418.309" r="4.016"/>
	<path fill="#696969" d="M299.202,414.306c0,1.331-1.08,2.404-2.408,2.404c-1.331,0-2.411-1.073-2.411-2.404
		c0-1.331,1.08-2.411,2.411-2.411C298.122,411.894,299.202,412.975,299.202,414.306z"/>
	<path fill="#696969" d="M205.329,414.302c0,1.331-1.08,2.408-2.408,2.408c-1.331,0-2.411-1.077-2.411-2.408
		c0-1.328,1.08-2.408,2.411-2.408C204.248,411.894,205.329,412.974,205.329,414.302z"/>
	<path fill="#696969" d="M230.405,418.309c0,2.216-1.798,4.014-4.014,4.014c-2.223,0-4.022-1.798-4.022-4.014
		c0-2.216,1.798-4.014,4.022-4.014C228.607,414.295,230.405,416.094,230.405,418.309z"/>
</g>
<g>
	<path fill="#FFFFFF" d="M316.68,209.995h-4.067l-4.129-18.569l-0.283-1.303l-1.099,0.035c-0.124,0-12.191,0.505-21.032,0
		c-4.092-0.239-8.567-1.027-12.89-1.807c-5.04-0.904-10.258-1.825-14.777-1.825c-5.599,0-8.983,4.235-10.649,7.956
		c-1.666-3.721-5.041-7.956-10.649-7.956c-4.536,0-9.728,0.922-14.782,1.825c-4.315,0.78-8.784,1.569-12.895,1.807
		c-8.829,0.505-20.899,0-21.019,0l-1.094-0.035l-0.306,1.303l-4.115,18.569h-4.677l-14.212,54.126
		c20.282,5.168,74.852,6.495,74.852,6.495c0.169,1.736,1.329,4.252,2.773,4.252h12.447c1.426,0,2.595-2.516,2.755-4.252
		c0,0,60.615-1.199,74.857-6.495L316.68,209.995z M231.667,238.442c-0.213-0.009-0.408-0.009-0.62-0.009
		c-8.009,0-15.508,2.8-22.777,5.502l-0.035,0.017c-4.811,1.79-9.777,3.632-14.609,4.51c-0.057,0-0.221,0.017-0.598,0.017
		c-1.351,0-3.916-0.097-6.188-0.177c-2.893-0.106-5.13-0.177-6.893-0.203c1.555-6.866,4.736-20.926,11.57-51.144
		c2.205,0.062,5.231,0.115,8.514,0.115c3.711,0,6.963-0.072,9.665-0.23c4.372-0.258,8.983-1.063,13.431-1.861l0.022-0.009h0.035
		c5.046-0.913,9.811-1.754,13.923-1.754c1.922,0,3.455,0.841,4.695,2.56c0.842,1.169,1.312,2.454,1.524,3.136l0.133,42.701
		C239.958,239.585,236.008,238.531,231.667,238.442z M308.689,248.302c-2.286,0.08-4.855,0.177-6.211,0.177
		c-0.363,0-0.54-0.017-0.593-0.017c-4.828-0.868-9.798-2.72-14.609-4.51l-0.053-0.017c-7.256-2.702-14.768-5.502-22.759-5.502
		c-0.204,0-0.399,0-0.621,0.009c-4.35,0.089-8.301,1.143-11.8,3.172l0.132-42.701c0.221-0.682,0.691-1.967,1.541-3.136
		c1.24-1.719,2.764-2.56,4.686-2.56c4.111,0,8.877,0.85,13.936,1.754h0.035l0,0l0.026,0.009c4.447,0.797,9.046,1.603,13.413,1.861
		c2.693,0.159,5.954,0.23,9.665,0.23c3.279,0,6.309-0.054,8.514-0.115l1.444,6.343c5.732,25.381,8.646,38.263,10.135,44.801
		C313.801,248.125,311.577,248.196,308.689,248.302z"/>
</g>
<g>
	<path fill="#FFFFFF" stroke="#262626" stroke-width="0.5" d="M151.95,298.962c0,0-32.351,3.645-39.661,0.697
		c-6.13-2.474-11.728-4.607-16.683-6.426c-15.169-5.565-24.327-8.137-24.327-8.137l11.109,21.828c0,0-19.047,10.973-31.512,13.43
		c0,0,19.622,11.322,42.883,19.664c23.262,8.35,46.55,11.437,46.55,11.437l1.678-7.562L151.95,298.962z"/>
	<path fill="#FFFFFF" stroke="#262626" stroke-width="0.5" d="M349.427,295.394c0,0,32.348,3.645,39.659,0.697
		c6.133-2.474,11.729-4.607,16.685-6.426c15.169-5.565,24.327-8.137,24.327-8.137l-11.109,21.828c0,0,19.047,10.973,31.512,13.43
		c0,0-19.623,11.322-42.883,19.664c-23.264,8.35-46.549,11.437-46.549,11.437l-1.68-7.562L349.427,295.394z"/>
	<path fill="#FFFFFF" stroke="#363636" stroke-width="0.75" d="M404.492,324.219l-7.715-50.549c0,0-50.026,20.623-147.543,20.623
		c-97.516,0-141.978-18.135-141.978-18.135l-7.858,48.061c0,0,34.767,37.3,146.675,37.468
		C354.518,361.854,404.492,324.219,404.492,324.219z"/>
	<g>
		<path fill="#696969" d="M197.122,319.368c-0.146-1.164-0.563-4.91-4.108-5.241c-3.128-0.293-4.162,2.591-4.323,4.279
			c-0.272,2.915,1.096,3.765,5.366,6.384c3.263,2.009,5.562,3.844,5.123,8.531c-0.542,5.743-4.974,7.584-8.395,7.264
			c-1.223-0.115-3.941-0.669-5.614-2.828c-1.591-2.108-1.734-4.21-1.866-5.541l3.07-0.479c0.044,0.899,0.155,2.441,1.16,3.985
			c0.589,0.993,1.692,1.948,3.547,2.122c3.087,0.289,4.574-1.957,4.825-4.617c0.298-3.209-1.211-4.373-3.467-5.734
			c-4.877-2.971-7.293-4.434-6.851-9.165c0.434-4.602,3.711-7.32,7.766-6.938c5.743,0.538,6.489,5.764,6.75,7.534L197.122,319.368z"
			/>
		<path fill="#696969" d="M207.022,313.062l-1.26,19.666c-0.22,3.425-0.317,6.307,3.486,6.551c3.131,0.202,4.253-1.425,4.539-5.867
			l1.272-19.833l3.086,0.195l-1.26,19.666c-0.197,3.046-0.578,9.052-7.856,8.585c-6.976-0.448-6.752-5.274-6.483-9.459l1.261-19.708
			L207.022,313.062z"/>
		<path fill="#696969" d="M222.845,314.022l3.854,0.132l8.177,22.415l0.594-22.114l2.875,0.099l-0.972,28.251l-3.131-0.108
			l-8.825-24.517l-0.662,24.189l-2.882-0.099L222.845,314.022z"/>
		<path fill="#696969" d="M243.443,314.562l3.223,0.044l-0.355,25.534l8.823,0.122l-0.038,2.756l-12.047-0.167L243.443,314.562z"/>
		<path fill="#696969" d="M257.455,314.663l3.223-0.03l0.261,28.258l-3.223,0.03L257.455,314.663z"/>
		<path fill="#696969" d="M282.106,342.743l-2.032,0.063l-0.704-3.499c-0.551,1.291-1.708,3.703-5.436,3.818
			c-7.161,0.223-8.335-7.459-8.541-14.155c-0.188-6.016,0.627-11.174,3.903-13.608c1.408-1.063,2.924-1.49,4.405-1.537
			c5.464-0.171,6.788,4.157,7.433,7.191l-2.722,1.061c-0.537-2.274-1.363-5.598-4.753-5.494c-4.659,0.145-5.067,6.222-4.861,12.747
			c0.091,2.965,0.352,11.397,5.481,11.24c2.119-0.068,3.558-1.554,4.206-3.865c0.387-1.241,0.425-2.641,0.335-5.525l-4.659,0.146
			l-0.087-2.753l7.586-0.239L282.106,342.743z"/>
		<path fill="#696969" d="M297.362,325.151l-0.756-11.977l3.216-0.206l1.788,28.231l-3.216,0.204l-0.857-13.502l-8.335,0.528
			l0.857,13.501l-3.22,0.204l-1.788-28.231l3.216-0.204l0.76,11.979L297.362,325.151z"/>
		<path fill="#696969" d="M307.746,315.054l-5.447,0.5l-0.254-2.744l14.106-1.295l0.251,2.744l-5.447,0.5l2.335,25.417l-3.209,0.296
			L307.746,315.054z"/>
	</g>
</g>
<g>
	<path fill="#FFFFFF" d="M491.292,188.379c-0.435-5.977-2.391-11.084-8.042-11.084c-4.347,0-6.955,3.912-6.955,8.368
		c0,4.021,1.739,8.585,7.498,14.236l9.02,8.802c7.607,7.39,9.889,13.475,9.889,21.843c0,10.976-6.629,19.996-19.235,19.996
		c-10.867,0-18.04-6.738-19.343-19.126l10.541-3.369c0.652,7.39,3.369,13.041,8.911,13.041c4.021,0,8.042-3.369,8.042-9.781
		c0-4.347-1.847-9.237-7.824-15.214l-8.694-8.585c-7.172-7.172-9.889-13.367-9.889-21.191c0-11.845,8.585-19.017,17.822-19.017
		c10.976,0,17.931,6.629,18.257,17.496L491.292,188.379z"/>
	<path fill="#FFFFFF" d="M549.649,229.13c0,16.409-8.042,21.408-18.909,21.408c-11.085,0-19.126-4.999-19.126-21.408v-60.204h11.085
		v60.095c0,4.999,1.195,11.519,8.042,11.519c6.629,0,7.824-6.52,7.824-11.519v-60.095h11.084V229.13z"/>
	<path fill="#FFFFFF" d="M572.906,168.926l16.301,50.641h0.217v-50.641h10.541v79.982H588.88l-16.301-50.641h-0.217v50.641h-10.541
		v-79.982H572.906z"/>
	<path fill="#FFFFFF" d="M624.635,168.926v69.984h17.822v9.998H613.55v-79.982H624.635z"/>
	<path fill="#FFFFFF" d="M651.803,168.926h11.085v79.982h-11.085V168.926z"/>
	<path fill="#FFFFFF" d="M703.748,189.031c-0.978-7.39-3.477-11.737-8.15-11.737c-5.76,0-9.563,8.042-9.563,33.362
		c0,16.192,1.521,29.885,9.563,29.885c7.498,0,9.129-11.084,9.563-27.711h-11.302v-9.998h22.386v9.237
		c0,19.235-3.695,38.47-20.648,38.47c-19.235,0-21.191-20.974-21.191-41.621c0-22.06,3.912-41.621,21.191-41.621
		c11.085,0,16.409,7.281,18.909,17.713L703.748,189.031z"/>
	<path fill="#FFFFFF" d="M726.787,168.926h11.084v32.819h15.975v-32.819h11.084v79.982h-11.084v-37.709h-15.975v37.709h-11.084
		V168.926z"/>
	<path fill="#FFFFFF" d="M787.645,178.924h-14.127v-9.998h39.339v9.998h-14.127v69.984h-11.084V178.924z"/>
</g>
<g>
	<path fill="#C2C2C2" d="M575.73,334.719h-17.818v-3.505h6.426l22.491-62.605h-6.231v-3.408h20.252v3.408h-6.134l22.491,62.605
		h5.647v3.505H606.01v-3.505h6.815l-6.328-17.818h-31.254l-6.231,17.818h6.718V334.719z M576.703,309.891h28.43l-14.41-40.308
		L576.703,309.891z"/>
	<path fill="#C2C2C2" d="M648.068,287.303c-14.215,0-21.615,10.612-21.615,22.491c0,11.781,7.302,22.394,21.615,22.394
		c7.789,0,11.392-2.921,14.41-5.744v5.16c-2.629,2.044-5.842,4.576-14.41,4.576c-16.844,0-25.509-12.463-25.509-26.385
		c0-13.923,9.055-26.483,25.509-26.483c3.213,0,7.107,0.39,10.905,1.753v-2.531h3.505v11.683h-3.505v-4.576
		C655.565,287.887,652.06,287.303,648.068,287.303z"/>
	<path fill="#C2C2C2" d="M678.932,292.658l-2.337-3.213c3.894-3.895,10.418-6.036,16.552-6.036c10.905,0,19.375,6.426,19.375,17.331
		v30.475h7.205v3.505h-11.099v-6.815c-2.531,3.116-7.302,7.789-18.012,7.789c-12.949,0-19.765-9.055-19.765-18.402
		c0-9.639,7.4-18.304,19.96-18.304c9.25,0,14.897,3.992,17.818,8.179v-5.55c0-9.736-7.984-14.215-15.481-14.215
		C687.305,287.4,681.95,289.639,678.932,292.658z M690.81,331.7c11.392,0,17.039-7.205,17.039-14.41
		c0-7.205-5.647-14.409-17.039-14.409c-10.71,0-15.968,7.302-15.968,14.409C674.843,324.593,680.198,331.7,690.81,331.7z"/>
	<path fill="#C2C2C2" d="M776.686,334.719h-9.931v-9.736c-2.629,4.965-8.081,10.807-18.596,10.807
		c-15.189,0-22.296-12.949-22.296-26.385c0-13.242,7.107-26.288,22.296-26.288c10.32,0,16.065,5.939,18.596,11.391v-29.306h-7.107
		v-3.505h11.099v69.518h5.939V334.719z M748.159,287.011c-12.17,0-18.304,11.099-18.304,22.394c0,11.197,6.036,22.394,18.304,22.394
		c12.365,0,18.596-11.197,18.596-22.394C766.755,298.11,760.621,287.011,748.159,287.011z"/>
	<path fill="#C2C2C2" d="M822.736,322.159l3.408,2.239c-3.505,5.647-9.055,11.683-21.517,11.683
		c-15.773,0-23.465-13.047-23.465-26.483c0-14.799,9.639-26.385,23.465-26.385c14.702,0,23.562,12.268,23.562,23.854
		c0,1.266,0,2.142-0.097,3.018h-42.451c0,12.463,7.302,22.004,18.889,22.004C815.24,332.09,819.621,327.124,822.736,322.159z
		 M804.627,287.205c-11.391,0-18.304,9.347-18.596,18.889h37.777C823.223,295.968,816.116,287.205,804.627,287.205z"/>
	<path fill="#C2C2C2" d="M835.102,331.214h5.939v-43.23h-5.939v-3.408h9.931v3.992c1.753-2.629,4.869-5.16,10.905-5.16
		c7.984,0,10.71,4.284,11.976,6.913c1.655-2.726,4.868-6.913,12.949-6.913c8.471,0,13.826,5.939,13.826,13.144v34.662h5.939v3.505
		h-15.87v-3.505h5.939v-34.662c0-5.647-4.187-9.152-9.834-9.152c-5.647,0-11.002,3.505-11.002,9.25v34.564h5.939v3.505h-15.87
		v-3.505h5.939v-34.662c0-5.744-4.771-9.152-9.931-9.152c-5.647,0-10.905,3.505-10.905,9.347v34.467h5.939v3.505h-15.87V331.214z"/>
	<path fill="#C2C2C2" d="M911.249,287.984l14.507,35.732l14.021-35.732h-5.647v-3.408h14.994v3.408h-5.16l-25.023,62.994h6.231
		v3.505h-16.746v-3.505h6.426l8.568-21.907l-16.649-41.087h-6.134v-3.408h16.844v3.408H911.249z"/>
</g>
</svg>
