<?xml version="1.0" encoding="utf-8"?>
<!-- Generator: Adobe Illustrator 18.0.0, SVG Export Plug-In . SVG Version: 6.00 Build 0)  -->
<!DOCTYPE svg PUBLIC "-//W3C//DTD SVG 1.1//EN" "http://www.w3.org/Graphics/SVG/1.1/DTD/svg11.dtd">
<svg version="1.1" xmlns="http://www.w3.org/2000/svg" xmlns:xlink="http://www.w3.org/1999/xlink" x="0px" y="0px"
	 viewBox="0 0 369.7 130.5" enable-background="new 0 0 369.7 130.5" xml:space="preserve">
<g id="text">
	<g id="outlined_text">
		<g>
			<g>
				<path fill="#FFFFFF" d="M237.3,101.8l1.2-0.6c1.1,2,2.8,3.9,6.5,3.9c3,0,5.4-1.7,5.4-4.6c0-2.7-1.5-4.1-4.7-5.6l-2.1-1
					c-3.2-1.5-4.8-3-4.8-5.9c0-3.2,2.5-5.1,5.6-5.1c3.1,0,4.8,1.6,5.8,3.3l-1.1,0.7c-0.9-1.5-2.3-2.8-4.8-2.8
					c-2.7,0-4.3,1.5-4.3,3.9c0,2.3,1.1,3.4,4,4.7l2.1,1c3.7,1.7,5.5,3.6,5.5,6.8c0,3.6-2.8,5.8-6.8,5.8
					C240.7,106.4,238.5,104.1,237.3,101.8z"/>
				<path fill="#FFFFFF" d="M257.3,83.3h1.4v21.6h11v1.2h-12.4V83.3z"/>
				<path fill="#FFFFFF" d="M274.5,83.3h13.3v1.2h-12v12.2h10.7v1.2h-10.7v7h12.4v1.2h-13.8V83.3z"/>
				<path fill="#FFFFFF" d="M293.5,98.5V83.3h1.4v15.2c0,4.4,2.6,6.8,6.3,6.8c3.7,0,6.4-2.4,6.4-6.8V83.3h1.4v15.3
					c0,5.1-3.4,7.9-7.7,7.9C296.8,106.4,293.5,103.7,293.5,98.5z"/>
				<path fill="#FFFFFF" d="M320.5,84.5h-7.3v-1.2h15.9v1.2h-7.3v21.6h-1.4V84.5z"/>
				<path fill="#FFFFFF" d="M333.7,83.3h1.4v13.4h13.3V83.3h1.4v22.9h-1.4v-8.2h-13.3v8.2h-1.4V83.3z"/>
			</g>
			<g>
				<path fill="#FFFFFF" d="M17.7,83.5h5.1c6.1,0,9.3,3.4,9.3,8.4c0,4.9-3.1,8.4-9.3,8.4H20v5.6h-2.4V83.5z M22.6,98.3
					c5,0,6.9-2.6,6.9-6.3s-1.9-6.3-6.9-6.3H20v12.7H22.6z"/>
				<path fill="#FFFFFF" d="M35.6,94.7c0-6.8,5.1-11.5,11.5-11.5c6.4,0,11.5,4.7,11.5,11.5s-5.1,11.5-11.5,11.5
					C40.8,106.2,35.6,101.5,35.6,94.7z M56.2,94.7c0-5.3-3.8-9.3-9.1-9.3c-5.2,0-9,4-9,9.3s3.8,9.3,9,9.3
					C52.4,104,56.2,100.1,56.2,94.7z"/>
				<path fill="#FFFFFF" d="M63.5,83.5h2.4v20.3h10.6v2.1h-13V83.5z"/>
				<path fill="#FFFFFF" d="M81,83.5h2.4v22.4H81V83.5z"/>
				<path fill="#FFFFFF" d="M94.5,85.6h-6.9v-2.1h16.1v2.1h-6.9v20.3h-2.4V85.6z"/>
				<path fill="#FFFFFF" d="M108,83.5h2.4v22.4H108V83.5z"/>
				<path fill="#FFFFFF" d="M115.4,94.7c0-6.8,5.1-11.5,11.5-11.5c4,0,7,1.5,8.9,4.4l-1.8,1.3c-1.5-2.1-3.9-3.5-7.1-3.5
					c-5.2,0-9,4-9,9.3s3.8,9.3,9,9.3c3.3,0,5.8-1.4,7.4-3.8l1.8,1.3c-2,2.9-5.2,4.6-9.2,4.6C120.5,106.2,115.4,101.5,115.4,94.7z"/>
				<path fill="#FFFFFF" d="M147.6,83.3h0.4l9.5,22.6H155l-1.5-3.8h-11.3l-1.5,3.8h-2.3L147.6,83.3z M152.6,100.1l-4-10
					c-0.4-1.1-0.9-2.7-0.9-2.7s-0.5,1.6-0.9,2.7l-4,10H152.6z"/>
				<path fill="#FFFFFF" d="M161.7,83.5h2.4v20.3h10.6v2.1h-13V83.5z"/>
				<path fill="#FFFFFF" d="M193.2,83.3h0.4l9.5,22.6h-2.5l-1.5-3.8h-11.3l-1.5,3.8h-2.3L193.2,83.3z M198.2,100.1l-4-10
					c-0.4-1.1-0.9-2.7-0.9-2.7s-0.5,1.6-0.9,2.7l-4,10H198.2z"/>
				<path fill="#FFFFFF" d="M207.3,83.5h5.4c7.5,0,12.1,4.4,12.1,11.2s-4.6,11.2-12.1,11.2h-5.4V83.5z M212.6,103.8
					c6.6,0,9.8-3.7,9.8-9.1s-3.2-9.1-9.8-9.1h-2.9v18.1H212.6z"/>
			</g>
		</g>
	</g>
	<g id="live_text" display="none">
		<g display="inline">
			<text transform="matrix(1 0 0 1 236.1022 106.1099)" fill="#FFFFFF" font-family="'NeutraTextTF-Light'" font-size="33.6091">SLEUTH</text>
			<text transform="matrix(1 0 0 1 14.6003 105.9243)" fill="#FFFFFF" font-family="'NeutraTextTF-Book'" font-size="32.9623">POLITICAL AD</text>
		</g>
	</g>
</g>
<g id="icon">
	<g>
		<g>
			<path fill="#FFFFFF" d="M154.2,33.7c-6.5,0-11.7,5.3-11.7,11.7c0,6.5,5.3,11.7,11.7,11.7c6.5,0,11.7-5.3,11.7-11.7
				C165.9,39,160.7,33.7,154.2,33.7z M152.8,43.7c-2.1,2.1-4.9,2.6-6.3,1.2c-1.4-1.4-0.9-4.2,1.2-6.3c2.1-2.1,4.9-2.6,6.3-1.2
				C155.4,38.8,154.9,41.7,152.8,43.7z M161.1,52c-1.1,1.1-2.6,1.5-3.3,0.7c-0.7-0.7-0.4-2.2,0.7-3.3c1.1-1.1,2.6-1.5,3.3-0.7
				C162.5,49.4,162.2,50.9,161.1,52z"/>
		</g>
		<g>
			<path fill="#FFFFFF" d="M215.8,26.5c-1.3-1-3.2-1.9-6.4-2.4c-3.7-0.6-7.3,0.7-10.5,2.6c-2.8,0.9-6.1,0.8-8-1.1
				c-1.8-1.7-0.3-4.1-7.2-4.1c-6.9,0-5.5,2.4-7.2,4.1c-2,1.9-5.3,1.9-8,1.1c-3.2-1.9-6.8-3.2-10.5-2.6c-3.1,0.5-5.1,1.4-6.4,2.4
				c-9.3,1.3-16.6,9.3-16.6,18.9c0,10.5,8.6,19.1,19.1,19.1c7.6,0,14.2-4.5,17.3-11c4.6-1.8,6.9-5.3,6.9-5.3c1.7-2.7,2-6.4,1.2-9.7
				c1.1-1.4,2.8-2.2,4.2-2.2c1.4,0,3.1,0.8,4.2,2.2c-0.9,3.3-0.5,7,1.2,9.7c0,0,2.2,3.5,6.9,5.3c3.1,6.5,9.7,11,17.3,11
				c10.5,0,19.1-8.6,19.1-19.1C232.3,35.8,225.1,27.8,215.8,26.5z M154.2,60.5c-8.3,0-15-6.7-15-15s6.7-15,15-15c8.3,0,15,6.7,15,15
				S162.5,60.5,154.2,60.5z M183.7,32.1c-1.7,0-3.1-1.4-3.1-3.1c0-1.7,1.4-3.1,3.1-3.1c1.7,0,3.1,1.4,3.1,3.1
				C186.8,30.7,185.4,32.1,183.7,32.1z M213.2,60.5c-8.3,0-15-6.7-15-15s6.7-15,15-15c8.3,0,15,6.7,15,15S221.5,60.5,213.2,60.5z"/>
		</g>
		<g>
			<path fill="#FFFFFF" d="M213.2,33.7c-6.5,0-11.7,5.3-11.7,11.7c0,6.5,5.3,11.7,11.7,11.7c6.5,0,11.7-5.3,11.7-11.7
				C224.9,39,219.7,33.7,213.2,33.7z M211.8,43.7c-2.1,2.1-4.9,2.6-6.3,1.2c-1.4-1.4-0.9-4.2,1.2-6.3c2.1-2.1,4.9-2.6,6.3-1.2
				C214.4,38.8,213.9,41.7,211.8,43.7z M220.1,52c-1.1,1.1-2.6,1.5-3.3,0.7c-0.7-0.7-0.4-2.2,0.7-3.3c1.1-1.1,2.6-1.5,3.3-0.7
				C221.6,49.4,221.2,50.9,220.1,52z"/>
		</g>
	</g>
</g>
<g id="guides">
</g>
</svg>
