<?xml version="1.0" encoding="utf-8"?>
<!-- Generator: Adobe Illustrator 16.0.0, SVG Export Plug-In . SVG Version: 6.00 Build 0)  -->
<!DOCTYPE svg PUBLIC "-//W3C//DTD SVG 1.1//EN" "http://www.w3.org/Graphics/SVG/1.1/DTD/svg11.dtd">
<svg version="1.1" id="Layer_1" xmlns="http://www.w3.org/2000/svg" xmlns:xlink="http://www.w3.org/1999/xlink" x="0px" y="0px"
	 width="546.055px" height="98.667px" viewBox="0 0 546.055 98.667" enable-background="new 0 0 546.055 98.667"
	 xml:space="preserve">
<g>
	<g>
		<path fill="#404040" d="M50.498,66.193H37.8v-2.9c-2.965,1.482-7.219,3.545-10.506,3.545c-7.412,0-7.799-5.93-7.799-12.568V44.085
			c0-6.639,0.387-12.568,7.799-12.568c3.287,0,7.541,2.9,10.506,5.027V25.265h-3.48v-7.09h12.697v40.928h3.48V66.193z
			 M31.033,60.199c1.676,0,5.35-1.096,6.768-1.611V41.701c-1.418-0.967-5.092-3.029-6.768-3.029c-2.191,0-2.32,2.062-2.32,4.898
			v11.215C28.712,57.943,28.841,60.199,31.033,60.199z"/>
		<path fill="#404040" d="M82.817,56.847c0,7.283-4.512,9.99-14.115,9.99s-14.115-2.707-14.115-9.99v-15.34
			c0-7.283,4.512-9.99,14.115-9.99s14.115,2.707,14.115,9.99V56.847z M73.665,41.572c0-2.256-1.16-3.416-4.963-3.416
			c-3.738,0-4.963,1.16-4.963,3.416v15.211c0,1.998,1.225,3.416,4.963,3.416c3.803,0,4.963-1.418,4.963-3.416V41.572z"/>
		<path fill="#404040" d="M104.333,43.376v-4.512c-0.709-0.064-1.482-0.129-2.256-0.129c-4.125,0-5.994,2.385-5.994,5.736v9.41
			c0,3.352,1.869,5.736,5.994,5.736c3.932,0,7.025-0.516,9.475-0.967l1.096,6.574c-2.062,0.516-6.768,1.611-10.57,1.611
			c-10.57,0-15.211-4.963-15.211-14.051v-7.219c0-9.088,4.641-14.051,15.211-14.051c4.254,0,8.057,1.418,9.926,2.127v9.732H104.333z
			"/>
		<path fill="#404040" d="M133.095,66.193h-16.371v-7.09h3.932V25.265h-3.545v-7.09h12.697v29.068l10.312-15.082h9.152v7.09h-3.738
			l-6.703,8.701l7.283,11.15h3.738v7.09h-9.668l-10.377-17.338v10.248h3.287V66.193z"/>
		<path fill="#404040" d="M181.012,64.453c-2.385,0.838-8.186,2.385-12.504,2.385c-10.57,0-15.211-4.705-15.211-14.051v-7.992
			c0-11.666,4.061-13.277,15.082-13.277c10.184,0,12.117,4.447,12.117,9.604v4.576c0,3.674-3.223,6.703-17.982,6.961v1.225
			c0,3.287,1.869,5.736,5.994,5.736c4.383,0,8.186-0.838,10.893-1.676L181.012,64.453z M171.795,41.83
			c0-1.676-0.193-3.674-2.385-3.674c-3.674,0-6.896,0.58-6.896,4.061v5.994c6.059-0.516,9.281-1.418,9.281-3.352V41.83z"/>
		<path fill="#404040" d="M206.712,64.839c-4.189,1.354-6.381,1.998-9.088,1.998c-5.221,0-9.088-2.514-9.088-9.217V39.445h-3.867
			v-7.283h3.867v-7.477h9.217v7.477h7.09v7.283h-7.09v17.982c0,1.225,0.451,1.805,1.805,1.805c1.289,0,3.094-0.645,5.092-1.289
			L206.712,64.839z"/>
		<path fill="#404040" d="M324.152,39.251h-3.029l3.223,16.371l5.285-23.59h8.508l5.801,23.654l2.771-16.436h-2.836v-7.09h15.34
			v7.09h-3.674l-8.057,27.07h-8.443l-5.156-22.43l-5.285,22.43h-8.508l-8.057-27.07h-3.223v-7.09h15.34V39.251z"/>
		<path fill="#404040" d="M376.259,37.06c2.514-2.191,6.059-5.543,8.895-5.543c4.834,0,5.607,2.32,5.607,9.604v2.32h-7.67v-2.32
			c-0.064-1.482-0.387-2.449-1.676-2.449c-1.354,0-4.189,2.707-5.156,3.609v16.822h3.545v7.09h-16.371v-7.09h3.609V39.316h-3.48
			v-7.09h12.697V37.06z"/>
		<path fill="#404040" d="M422.488,64.453c-2.385,0.838-8.186,2.385-12.504,2.385c-10.57,0-15.211-4.705-15.211-14.051v-7.992
			c0-11.666,4.061-13.277,15.082-13.277c10.184,0,12.117,4.447,12.117,9.604v4.576c0,3.674-3.223,6.703-17.982,6.961v1.225
			c0,3.287,1.869,5.736,5.994,5.736c4.383,0,8.186-0.838,10.893-1.676L422.488,64.453z M413.271,41.83
			c0-1.676-0.193-3.674-2.385-3.674c-3.674,0-6.896,0.58-6.896,4.061v5.994c6.059-0.516,9.281-1.418,9.281-3.352V41.83z"/>
		<path fill="#404040" d="M461.426,66.193H448.6V44.085c0-3.158-0.129-5.414-2.385-5.414c-1.676,0-5.479,2.256-6.768,3.094v17.338
			h3.545v7.09h-16.371v-7.09h3.609V39.251h-3.48v-7.09h12.697v4.383c2.9-1.934,7.154-5.027,10.57-5.027
			c7.412,0,7.799,5.93,7.799,12.568v15.018h3.609V66.193z"/>
		<path fill="#404040" d="M482.37,43.376v-4.512c-0.709-0.064-1.482-0.129-2.256-0.129c-4.125,0-5.994,2.385-5.994,5.736v9.41
			c0,3.352,1.869,5.736,5.994,5.736c3.932,0,7.025-0.516,9.475-0.967l1.096,6.574c-2.062,0.516-6.768,1.611-10.57,1.611
			c-10.57,0-15.211-4.963-15.211-14.051v-7.219c0-9.088,4.641-14.051,15.211-14.051c4.254,0,8.057,1.418,9.926,2.127v9.732H482.37z"
			/>
		<path fill="#404040" d="M511.067,66.193h-16.371v-7.09h3.609V25.265h-3.48v-7.09h12.697v18.369c2.9-1.934,7.154-5.027,10.57-5.027
			c7.412,0,7.799,5.93,7.799,12.568v15.018h3.738v7.09h-12.955V44.085c0-3.158-0.129-5.414-2.385-5.414
			c-1.676,0-5.479,2.256-6.768,3.094v17.338h3.545V66.193z"/>
	</g>
</g>
<polygon opacity="0.3" fill="#C4C4C4" points="259.147,27.75 266.063,40.617 280.459,41.75 269.852,52.276 272.193,65.926 
	259.934,59.481 247.674,65.926 250.016,52.276 239.043,42.417 253.804,40.617 "/>
<path fill="#787878" d="M273.605,65.688l-13.794-7.56l-13.445,8.162l0.351,15.727l13.793,7.562l13.442-8.167L273.605,65.688z
	 M265.538,76.8c-1.076,1.964-3.138,3.184-5.382,3.184c-1.023,0-2.042-0.262-2.946-0.756c-2.963-1.624-4.053-5.359-2.429-8.325
	c1.078-1.965,3.141-3.185,5.384-3.185c1.022,0,2.039,0.262,2.941,0.757C266.071,70.1,267.162,73.834,265.538,76.8z"/>
<path fill="#A3A3A3" d="M267.074,77.643c-2.092,3.819-6.884,5.219-10.704,3.123c-3.819-2.094-5.218-6.887-3.123-10.703
	c2.093-3.818,6.884-5.217,10.701-3.125C267.771,69.033,269.167,73.827,267.074,77.643 M265.825,63.518
	c-5.707-3.129-12.871-1.037-15.996,4.67c-3.133,5.706-1.043,12.869,4.666,15.998c5.707,3.131,12.871,1.039,16-4.666
	C273.624,73.811,271.535,66.649,265.825,63.518"/>
<path fill="#787878" d="M295.013,45.268l-15.063-4.527l-11.45,10.78l3.605,15.308l15.067,4.527l11.452-10.78L295.013,45.268z
	 M277.431,55.865c0.049-1.638,0.734-3.157,1.928-4.279c1.141-1.076,2.633-1.668,4.2-1.668c1.709,0,3.295,0.685,4.466,1.93
	c2.317,2.459,2.199,6.348-0.262,8.667c-1.142,1.075-2.634,1.667-4.201,1.667c-1.709,0-3.295-0.685-4.466-1.929
	C277.973,59.06,277.382,57.502,277.431,55.865z"/>
<path fill="#A3A3A3" d="M288.963,61.792c-3.168,2.984-8.16,2.833-11.144-0.338c-2.984-3.173-2.834-8.16,0.335-11.145
	c3.175-2.988,8.164-2.836,11.148,0.336C292.287,53.817,292.139,58.804,288.963,61.792 M292.143,47.972
	c-4.461-4.739-11.918-4.968-16.66-0.505c-4.739,4.459-4.965,11.921-0.504,16.657c4.461,4.742,11.92,4.97,16.66,0.508
	C296.377,60.169,296.604,52.713,292.143,47.972"/>
<path fill="#787878" d="M282.799,15.41l-15.676-1.296L258.16,27.04l6.715,14.222l15.676,1.304l8.961-12.931L282.799,15.41z
	 M276.455,33.883c-0.828,0.391-1.707,0.588-2.614,0.588c-2.364,0-4.542-1.379-5.548-3.515c-0.7-1.482-0.781-3.147-0.229-4.689
	s1.673-2.776,3.155-3.476c0.827-0.39,1.706-0.588,2.612-0.588c2.363,0,4.542,1.382,5.552,3.52
	C280.825,28.779,279.511,32.439,276.455,33.883z"/>
<path fill="#A3A3A3" d="M277.202,35.468c-3.936,1.857-8.636,0.173-10.493-3.761c-1.861-3.942-0.174-8.641,3.764-10.5
	c3.938-1.857,8.636-0.175,10.495,3.766C282.828,28.912,281.141,33.61,277.202,35.468 M284.496,23.308
	c-2.78-5.887-9.803-8.405-15.689-5.628c-5.886,2.778-8.406,9.801-5.628,15.69c2.778,5.884,9.802,8.405,15.687,5.624
	C284.753,36.218,287.273,29.195,284.496,23.308"/>
<path fill="#787878" d="M250.554,14.453l-15.604,1.99l-6.075,14.506l9.522,12.518l15.601-1.988l6.082-14.508L250.554,14.453z
	 M239.625,25.208c1.003-1.295,2.451-2.123,4.077-2.331c0.263-0.033,0.525-0.05,0.784-0.05c3.073,0,5.684,2.304,6.074,5.359
	c0.207,1.624-0.231,3.231-1.233,4.526c-1.003,1.295-2.45,2.123-4.075,2.33c-3.391,0.435-6.438-1.994-6.86-5.306
	C238.184,28.111,238.622,26.503,239.625,25.208z"/>
<path fill="#A3A3A3" d="M245.476,36.781c-4.324,0.553-8.271-2.505-8.823-6.824c-0.551-4.32,2.502-8.268,6.826-8.817
	c4.32-0.553,8.266,2.505,8.816,6.824C252.846,32.284,249.792,36.229,245.476,36.781 M256.164,27.471
	c-0.821-6.459-6.721-11.025-13.18-10.202c-6.456,0.822-11.021,6.726-10.2,13.18c0.824,6.458,6.724,11.025,13.184,10.202
	C252.42,39.829,256.988,33.925,256.164,27.471"/>
<path fill="#787878" d="M238.927,41.759l-14.85,5.193l-2.931,15.455l11.92,10.261l14.848-5.188l2.929-15.453L238.927,41.759z
	 M242.021,58.356c-0.548,2.894-3.079,4.994-6.02,4.994c-0.383,0-0.77-0.037-1.148-0.108c-3.32-0.631-5.51-3.848-4.881-7.171
	c0.548-2.891,3.079-4.989,6.018-4.989c0.382,0,0.769,0.037,1.148,0.108c1.609,0.305,3.003,1.219,3.926,2.572
	C241.987,55.116,242.327,56.748,242.021,58.356z"/>
<path fill="#A3A3A3" d="M243.746,58.682c-0.814,4.281-4.942,7.09-9.218,6.28c-4.278-0.812-7.093-4.935-6.278-9.216
	c0.811-4.281,4.937-7.089,9.216-6.276C241.745,50.279,244.553,54.404,243.746,58.682 M238.192,45.639
	c-6.396-1.217-12.562,2.986-13.775,9.381c-1.211,6.396,2.989,12.561,9.385,13.775c6.396,1.212,12.562-2.989,13.774-9.387
	C248.789,53.015,244.586,46.847,238.192,45.639"/>
</svg>
