<?xml version="1.0" encoding="utf-8"?>
<!-- Generator: Adobe Illustrator 17.1.0, SVG Export Plug-In . SVG Version: 6.00 Build 0)  -->
<!DOCTYPE svg PUBLIC "-//W3C//DTD SVG 1.1//EN" "http://www.w3.org/Graphics/SVG/1.1/DTD/svg11.dtd">
<svg version="1.1" id="Layer_1" xmlns="http://www.w3.org/2000/svg" xmlns:xlink="http://www.w3.org/1999/xlink" x="0px" y="0px"
	 viewBox="0 0 300 90.1" style="enable-background:new 0 0 300 90.1;" xml:space="preserve">
<style type="text/css">
	.st0{fill:#DFB525;}
	.st1{fill:#FFFFFF;}
	.st2{fill:#E7EDEE;}
	.st3{fill:none;}
	.st4{fill:#E7EAEC;}
	.st5{fill:#E2D46A;}
	.st6{fill:#FCD843;enable-background:new    ;}
	.st7{fill:#F6C41F;enable-background:new    ;}
	.st8{fill:#E3C73C;}
	.st9{fill:#F9E573;enable-background:new    ;}
	.st10{fill:#D3B245;}
</style>
<path class="st0" d="M42,24.1c-4.5,0-8.9,1-12.9,2.7c0.1,3.1,0.8,6.3,2.2,9.2c2.7,6.1,7.7,10.7,13.9,13.1c2.8,1.1,5.8,1.6,8.8,1.6
	c0.6,0,1.3,0,1.9-0.1c2.8-8.8,1-18-4.1-25.1C48.6,24.6,45.3,24.1,42,24.1z"/>
<g>
	<path class="st1" d="M117.6,18.8h-5.3v-1.2c0-2.4-1-4.5-3.7-4.5c-2.9,0-3.6,2.3-3.6,4.8c0,2.9,0.3,3.9,3,4.9l4.1,1.6
		c4.7,1.8,5.6,4.7,5.6,10.2c0,6.2-2.3,10.9-9.2,10.9c-5.2,0-9.1-3.8-9.1-8.8v-2h5.3v1.7c0,1.9,1,3.8,3.7,3.8c3.6,0,3.9-2.1,3.9-5.5
		c0-4-0.5-4.6-3.1-5.6l-3.8-1.6c-4.6-1.9-5.8-4.9-5.8-9.5c0-5.6,3-10.2,9.1-10.2c5.3,0,8.9,4.3,8.9,8.4V18.8z"/>
	<path class="st1" d="M138.7,36.8c0,4.8-3.9,8.6-8.6,8.6c-4.7,0-8.6-3.8-8.6-8.6V8.1h5.3v28.2c0,2.6,1.4,3.9,3.3,3.9
		c1.9,0,3.3-1.2,3.3-3.9V8.1h5.3V36.8z"/>
	<path class="st1" d="M143.5,8.1h5.1l8,22.3h0.1V8.1h5.3v37.1h-5l-8.1-22.3h-0.1v22.3h-5.3V8.1z"/>
	<path class="st1" d="M166.8,8.1h5.3v31.8h10.5v5.3h-15.8V8.1z"/>
	<path class="st1" d="M186.2,8.1h5.3v37.1h-5.3V8.1z"/>
	<path class="st1" d="M196.4,16.8c0-6,4.6-9.1,8.9-9.1c4.3,0,8.9,3,8.9,9.1v1.9h-5.3v-1.9c0-2.6-1.7-3.7-3.6-3.7
		c-1.9,0-3.6,1.2-3.6,3.7v19.6c0,2.6,1.7,3.7,3.6,3.7c1.9,0,3.6-1.2,3.6-3.7v-7h-4.2v-4.7h9.5v11.7c0,6-4.6,9.1-8.9,9.1
		c-4.3,0-8.9-3-8.9-9.1V16.8z"/>
	<path class="st1" d="M218.9,8.1h5.3V24h6.6V8.1h5.3v37.1h-5.3V28.7h-6.6v16.5h-5.3V8.1z"/>
	<path class="st1" d="M245.2,13.1H239v-5h17.6v5h-6.1v32.1h-5.3V13.1z"/>
</g>
<g>
	<path class="st2" d="M104.2,66.6h9.1v3.3h-9.1v15.8h-3.9V51.8h15v3.3h-11.1V66.6z"/>
	<path class="st2" d="M136.5,68.5c0,5.6-0.9,10.4-3,13.9c-2.4,3.9-5.8,3.9-7,3.9c-6.8,0-10.1-5.5-10.1-17.3c0-8.2,1.8-17.8,10-17.8
		C134.2,51.2,136.5,58.9,136.5,68.5z M120.5,68.2c0,11.5,2.3,14.8,6,14.8c4.5,0,6-5.3,6-14.2c0-9.4-1.6-14.3-6-14.3
		C122.4,54.5,120.5,58.9,120.5,68.2z"/>
	<path class="st2" d="M145.1,51.8v23.6c0,4.1,0.1,7.6,4.7,7.6c3.8,0,5-2,5-7.4V51.8h3.7v23.6c0,3.7,0,10.9-8.7,10.9
		c-8.4,0-8.5-5.8-8.5-10.8V51.8H145.1z"/>
	<path class="st2" d="M164.3,51.8h4.6l10.7,26.5l-0.2-26.5h3.5v33.9h-3.8l-11.6-29l0.2,29h-3.5V51.8z"/>
	<path class="st2" d="M189.4,51.8h5.6c3.9,0,6.4,0.6,8.6,2.5c2.9,2.5,4.7,8.4,4.7,14.1c0,6.3-2.1,11.9-4.5,14.4
		c-2.7,2.8-6.7,2.8-8.2,2.8h-6.1V51.8z M193.3,82.4h2.6c3.9,0,5.4-2.2,5.8-2.7c1.4-2,2.5-5.6,2.5-11c0-4.9-0.8-7.5-1.5-9.1
		c-1.6-3.7-4.5-4.4-7.1-4.4h-2.4V82.4z"/>
	<path class="st2" d="M220.9,51.8l7.6,33.9h-4l-2.1-9.8h-7.6l-2.1,9.8h-3.7l7.8-33.9H220.9z M221.8,72.7l-3.1-16.9l-3.2,16.9H221.8z
		"/>
	<path class="st2" d="M233.2,55.1h-6.5v-3.3h17v3.3H237v30.6h-3.9V55.1z"/>
	<path class="st2" d="M246.6,51.8h3.9v33.9h-3.9V51.8z"/>
	<path class="st2" d="M275.8,68.5c0,5.6-0.9,10.4-3,13.9c-2.4,3.9-5.8,3.9-7,3.9c-6.8,0-10.1-5.5-10.1-17.3c0-8.2,1.8-17.8,10-17.8
		C273.5,51.2,275.8,58.9,275.8,68.5z M259.8,68.2c0,11.5,2.3,14.8,6,14.8c4.5,0,6-5.3,6-14.2c0-9.4-1.6-14.3-6-14.3
		C261.7,54.5,259.8,58.9,259.8,68.2z"/>
	<path class="st2" d="M281.2,51.8h4.6l10.7,26.5l-0.2-26.5h3.5v33.9H296l-11.6-29l0.2,29h-3.5V51.8z"/>
</g>
<path class="st3" d="M62.8,2.6C59.9,1.5,57,1,54,1c-8.9,0-17.1,4.8-21.5,12.4c2.3,0.3,4.7,0.8,6.9,1.7c5.4,2,9.8,5.5,13,9.8
	c0.5,0.2,1,0.3,1.5,0.5c8.5,3.2,14.9,9.6,18.5,17.3c2.1-2.3,3.7-4.9,4.9-7.9C82.1,21.8,75.6,7.4,62.8,2.6z"/>
<path class="st4" d="M72,44.3c-4.1,4-9.6,6.7-15.5,7.3c-0.1,0.3-0.2,0.6-0.3,0.9C52,63.7,41.1,71.2,29.1,71.2c-3.5,0-7-0.6-10.3-1.9
	c-3.1-1.2-5.8-2.8-8.2-4.8c2.5,9.9,9.7,18.5,20,22.4c3.7,1.4,7.6,2.1,11.5,2.1c13.4,0,25.6-8.4,30.4-21C75.4,60.1,75.1,51.6,72,44.3
	z"/>
<path class="st5" d="M56.9,50.5c5.6-0.7,10.8-3.3,14.7-7.2c-3.4-7.6-9.7-13.9-18.1-17.1c-0.1,0-0.2-0.1-0.2-0.1
	C57.9,33.1,59.5,42,56.9,50.5z"/>
<path class="st6" d="M10.7,44.7c3.2-8.4,9.5-14.9,17.4-18.5c0-3.2,0.5-6.4,1.7-9.5c0.3-0.9,0.7-1.7,1.2-2.6c-0.6,0-1.3-0.1-1.9-0.1
	C17.5,14,6.9,21.3,2.8,32.2c-4,10.5-1.2,22,6.2,29.6C8.1,56.2,8.6,50.4,10.7,44.7z"/>
<path class="st7" d="M29.1,25.8c4-1.7,8.4-2.6,12.9-2.6c3,0,5.9,0.4,8.8,1.2c-3-3.7-7-6.6-11.7-8.4c-2.3-0.9-4.6-1.4-7-1.7
	c-0.5,0.9-0.9,1.8-1.3,2.8C29.6,19.9,29.1,22.8,29.1,25.8z"/>
<path class="st8" d="M19.1,68.5c3.2,1.2,6.6,1.8,10,1.8c11.6,0,22.2-7.3,26.3-18.2c0.1-0.2,0.1-0.3,0.2-0.5c-0.5,0-1,0.1-1.6,0.1
	c-3.1,0-6.2-0.6-9.2-1.7c-6.5-2.4-11.6-7.3-14.4-13.6c-1.3-3-2.1-6.1-2.2-9.2c-7.5,3.5-13.5,9.8-16.5,17.8C9.4,51,9,57.2,10.2,63
	C12.7,65.3,15.7,67.2,19.1,68.5z"/>
<path class="st3" d="M29.1,70.3c11.6,0,22.2-7.3,26.3-18.2c0.1-0.2,0.1-0.3,0.2-0.5c-0.5,0-1,0.1-1.6,0.1c-3.1,0-6.2-0.6-9.2-1.7
	c-6.5-2.4-11.6-7.3-14.4-13.6c-1.3-3-2.1-6.1-2.2-9.2c-7.5,3.5-13.5,9.8-16.5,17.8C9.4,51,9,57.2,10.2,63c2.5,2.3,5.5,4.2,8.9,5.5
	C22.3,69.7,25.7,70.3,29.1,70.3z"/>
<path class="st3" d="M28.1,26.2c0-3.2,0.5-6.4,1.7-9.5c0.3-0.9,0.7-1.7,1.2-2.6c-0.6,0-1.3-0.1-1.9-0.1C17.5,14,6.9,21.3,2.8,32.2
	c-4,10.5-1.2,22,6.2,29.6c-0.9-5.6-0.4-11.4,1.7-17.1C13.9,36.4,20.3,29.8,28.1,26.2z"/>
<path class="st3" d="M56.6,51.5c-0.1,0.3-0.2,0.6-0.3,0.9C52,63.7,41.1,71.2,29.1,71.2c-3.5,0-7-0.6-10.3-1.9
	c-3.1-1.2-5.8-2.8-8.2-4.8c2.5,9.9,9.7,18.5,20,22.4c3.7,1.4,7.6,2.1,11.5,2.1c13.4,0,25.6-8.4,30.4-21c3-8,2.7-16.5-0.4-23.9
	C67.9,48.3,62.5,50.9,56.6,51.5z"/>
<path class="st9" d="M62.8,2.6C59.9,1.5,57,1,54,1c-8.9,0-17.1,4.8-21.5,12.4c2.3,0.3,4.7,0.8,6.9,1.7c5.4,2,9.8,5.5,13,9.8
	c0.5,0.2,1,0.3,1.5,0.5c8.5,3.2,14.9,9.6,18.5,17.3c2.1-2.3,3.7-4.9,4.9-7.9C82.1,21.8,75.6,7.4,62.8,2.6z"/>
<path class="st10" d="M63.1,1.7C60.2,0.6,57.1,0,54,0c-9.4,0-18,5.2-22.5,13.2c-0.8-0.1-1.6-0.1-2.4-0.1c-12,0-22.9,7.5-27.2,18.8
	c-4.3,11.4-1,23.8,7.4,31.6c2.3,10.8,9.8,20.2,20.9,24.4c3.8,1.5,7.8,2.2,11.9,2.2c13.8,0,26.4-8.7,31.3-21.6
	c3.2-8.4,2.7-17.3-0.5-24.9c2.3-2.4,4.1-5.3,5.4-8.5C83.2,21.7,76.4,6.7,63.1,1.7z M55.9,50.7c-0.6,0-1.3,0.1-1.9,0.1
	c-3,0-6-0.5-8.8-1.6c-6.2-2.4-11.1-7-13.9-13.1c-1.3-3-2.1-6.1-2.2-9.2c4-1.8,8.4-2.7,12.9-2.7c3.3,0,6.6,0.5,9.8,1.5
	C56.9,32.6,58.6,41.9,55.9,50.7z M53.3,26.1c0.1,0,0.2,0.1,0.2,0.1c8.4,3.2,14.7,9.5,18.1,17.1c-3.9,4-9.1,6.6-14.7,7.2
	C59.5,42,57.9,33.1,53.3,26.1z M42,23.1c-4.5,0-8.9,0.9-12.9,2.6c0-3,0.5-5.9,1.6-8.8c0.4-1,0.8-1.9,1.3-2.8c2.4,0.3,4.8,0.8,7,1.7
	c4.7,1.8,8.7,4.8,11.7,8.4C47.9,23.5,45,23.1,42,23.1z M72.3,42.6c-3.5-7.7-10-14-18.5-17.3c-0.5-0.2-1-0.4-1.5-0.5
	c-3.2-4.3-7.6-7.8-13-9.8c-2.2-0.8-4.5-1.4-6.9-1.7C36.9,5.8,45.1,1,54,1c3,0,6,0.5,8.8,1.6c12.8,4.9,19.3,19.3,14.4,32.1
	C76.1,37.6,74.4,40.3,72.3,42.6z M9,61.8C1.6,54.2-1.2,42.8,2.8,32.2C6.9,21.3,17.5,14,29.1,14c0.6,0,1.3,0,1.9,0.1
	c-0.4,0.8-0.8,1.7-1.2,2.6c-1.2,3.1-1.7,6.3-1.7,9.5c-7.8,3.6-14.2,10.2-17.4,18.5C8.6,50.4,8.1,56.2,9,61.8z M11.6,45.1
	c3-8,9.1-14.3,16.5-17.8c0.2,3.1,0.9,6.2,2.2,9.2c2.8,6.3,7.9,11.1,14.4,13.6c3,1.1,6,1.7,9.2,1.7c0.5,0,1.1,0,1.6-0.1
	c-0.1,0.2-0.1,0.3-0.2,0.5C51.2,63,40.7,70.3,29.1,70.3c-3.4,0-6.8-0.6-10-1.8c-3.4-1.3-6.4-3.2-8.9-5.5C9,57.2,9.4,51,11.6,45.1z
	 M72.4,68.1c-4.8,12.5-17,21-30.4,21c-3.9,0-7.8-0.7-11.5-2.1c-10.3-3.9-17.4-12.5-20-22.4c2.4,2,5.2,3.6,8.2,4.8
	c3.3,1.3,6.8,1.9,10.3,1.9c12,0,22.9-7.5,27.2-18.8c0.1-0.3,0.2-0.6,0.3-0.9c5.9-0.6,11.3-3.2,15.5-7.3
	C75.1,51.6,75.4,60.1,72.4,68.1z"/>
</svg>
