<?xml version="1.0" encoding="utf-8"?>
<!-- Generator: Adobe Illustrator 17.1.0, SVG Export Plug-In . SVG Version: 6.00 Build 0)  -->
<!DOCTYPE svg PUBLIC "-//W3C//DTD SVG 1.1//EN" "http://www.w3.org/Graphics/SVG/1.1/DTD/svg11.dtd">
<svg version="1.1" id="Layer_1" xmlns="http://www.w3.org/2000/svg" xmlns:xlink="http://www.w3.org/1999/xlink" x="0px" y="0px"
	 viewBox="0 0 707.7 150" enable-background="new 0 0 707.7 150" xml:space="preserve">
<path fill="#414042" d="M64.3,120.8v20.5c0,0.6-0.2,1.2-0.7,1.7c-0.5,0.5-1.1,0.7-1.8,0.7H44.4c-0.7,0-1.2-0.2-1.8-0.7
	c-0.5-0.5-0.8-1.1-0.8-1.7V81.9c0-0.7,0.3-1.2,0.7-1.7c0.5-0.5,1.1-0.7,1.7-0.7h24.2c5.2,0,9.8,0.4,13.7,1.1
	c3.9,0.7,7.2,1.9,9.9,3.6c2.6,1.7,4.6,3.8,6,6.4c1.3,2.6,2,5.7,2,9.4c0,7.3-2.3,12.6-6.9,16c-4.6,3.4-11.4,5.1-20.4,5L64.3,120.8z
	 M64.3,94.5v11.7l4.2,0.2c6.6,0.3,9.9-1.7,9.9-6c0-2.1-0.8-3.7-2.5-4.8c-1.7-1.1-4-1.6-6.9-1.3L64.3,94.5z"/>
<path fill="#FFFFFF" d="M152.7,144.3c-0.4,0-0.8-0.1-1.3-0.4c-0.5-0.3-0.8-0.6-0.9-1l-4.2-8h-30.8l-4.2,8c-0.2,0.4-0.5,0.7-1,1
	c-0.4,0.3-0.9,0.4-1.3,0.4H92c-1.1,0-1.9-0.4-2.4-1.1c-0.5-0.8-0.5-1.6,0.1-2.5l33.8-59.4c0.2-0.3,0.5-0.6,1-0.9
	c0.5-0.3,0.9-0.4,1.2-0.4h14.5c0.4,0,0.8,0.1,1.2,0.4c0.5,0.3,0.8,0.6,1,1l31.8,59.4c0.4,0.9,0.4,1.8,0,2.5
	c-0.4,0.7-1.2,1.1-2.3,1.1H152.7z M123.6,120.4h15.3l-7.4-14.3L123.6,120.4z"/>
<path fill="#FFFFFF" d="M521.5,144.3c-0.6,0-1.1-0.2-1.5-0.7c-0.4-0.5-0.6-1.1-0.6-1.7V82.4c0-0.7,0.2-1.2,0.6-1.7
	c0.4-0.5,0.9-0.7,1.5-0.7h15.3c0.6,0,1.1,0.2,1.5,0.7c0.4,0.5,0.6,1,0.6,1.7v59.5c0,0.6-0.2,1.2-0.6,1.7c-0.4,0.5-0.9,0.7-1.5,0.7
	H521.5z"/>
<path fill="#FFFFFF" d="M637.4,79.9c0.7,0,1.3,0.2,1.8,0.7c0.5,0.5,0.8,1,0.8,1.7v59.5c0,0.6-0.3,1.2-0.8,1.7
	c-0.5,0.5-1.1,0.7-1.8,0.7H621c-0.7,0-1.3-0.2-1.8-0.7c-0.5-0.5-0.7-1.1-0.7-1.7v-32.1l-17.8,33.2c-0.2,0.4-0.6,0.7-1,1
	c-0.4,0.3-0.8,0.4-1.2,0.4h-7.7c-0.4,0-0.8-0.1-1.2-0.4c-0.4-0.3-0.8-0.6-1-1l-17.7-33.1v32c0,0.6-0.2,1.2-0.7,1.7
	c-0.5,0.5-1.1,0.7-1.8,0.7h-16.4c-0.7,0-1.3-0.2-1.8-0.7c-0.5-0.5-0.7-1.1-0.7-1.7V82.4c0-0.7,0.3-1.2,0.7-1.7
	c0.5-0.5,1.1-0.7,1.8-0.7h19.2c0.3,0,0.7,0.1,1.2,0.4c0.5,0.2,0.8,0.5,0.9,0.9l21.5,34.9l21.3-34.9c0.2-0.3,0.5-0.6,1-0.9
	c0.4-0.2,0.9-0.4,1.2-0.4H637.4z"/>
<path fill="#FFFFFF" d="M651.6,144.3c-0.7,0-1.2-0.2-1.7-0.7c-0.5-0.5-0.7-1.1-0.7-1.7V82.4c0-0.7,0.2-1.2,0.7-1.7
	c0.5-0.5,1.1-0.7,1.7-0.7h47.9c0.7,0,1.2,0.2,1.7,0.7c0.5,0.5,0.7,1,0.7,1.7v12c0,0.7-0.2,1.3-0.7,1.8c-0.5,0.5-1.1,0.7-1.7,0.7
	h-27.6v6.6h23.6c0.7,0,1.2,0.2,1.7,0.7c0.5,0.5,0.7,1.1,0.7,1.7v11.8c0,0.7-0.3,1.3-0.7,1.8c-0.5,0.5-1.1,0.7-1.7,0.7l-23.6,0.1v6.9
	h29.8c0.7,0,1.3,0.2,1.8,0.7c0.5,0.5,0.7,1.1,0.7,1.8v12c0,0.6-0.2,1.2-0.7,1.7c-0.5,0.5-1.1,0.7-1.8,0.7H651.6z"/>
<path fill="#FFFFFF" d="M64.3,120.8v20.5c0,0.6-0.2,1.2-0.7,1.7c-0.5,0.5-1.1,0.7-1.8,0.7H44.4c-0.7,0-1.2-0.2-1.8-0.7
	c-0.5-0.5-0.8-1.1-0.8-1.7V81.9c0-0.7,0.3-1.2,0.7-1.7c0.5-0.5,1.1-0.7,1.7-0.7h24.2c5.2,0,9.8,0.4,13.7,1.1
	c3.9,0.7,7.2,1.9,9.9,3.6c2.6,1.7,4.6,3.8,6,6.4c1.3,2.6,2,5.7,2,9.4c0,7.3-2.3,12.6-6.9,16c-4.6,3.4-11.4,5.1-20.4,5L64.3,120.8z
	 M64.3,94.5v11.7l4.2,0.2c6.6,0.3,9.9-1.7,9.9-6c0-2.1-0.8-3.7-2.5-4.8c-1.7-1.1-4-1.6-6.9-1.3L64.3,94.5z"/>
<path fill="#FFFFFF" d="M205.7,121.6v20.3c0,0.6-0.3,1.2-0.7,1.7c-0.5,0.5-1.1,0.7-1.8,0.7H185c-0.7,0-1.2-0.2-1.7-0.7
	c-0.5-0.5-0.7-1.1-0.7-1.7V82.4c0-0.7,0.3-1.2,0.7-1.7c0.5-0.5,1.1-0.7,1.7-0.7h41.2c7.1,0,12.7,1.6,17,4.7
	c4.6,3.4,6.9,7.9,6.9,13.4c0,6.2-1.9,10.8-5.7,13.6c-0.9,0.7-2,1.4-3.2,2c-1.2,0.6-2.6,1.2-4.1,1.7c1.7,0.9,3.2,2,4.5,3
	c1.2,1.1,2.2,2.2,3.1,3.3l11.3,19c0.6,0.9,0.6,1.8,0.1,2.6c-0.5,0.8-1.2,1.2-2.3,1.2h-20.9c-0.4,0-0.9-0.1-1.3-0.4
	c-0.4-0.3-0.7-0.6-0.9-1l-10.5-19.5l0.1,0.2c-0.2-0.3-0.5-0.5-0.7-0.8c-0.2-0.3-0.5-0.5-0.8-0.7c-0.4-0.3-2.1-0.5-5.1-0.5H205.7z
	 M205.2,94.6v12.2h9.9c4,0,7-0.4,9.1-1.4c2.1-0.9,3.1-2.6,3.1-5c0-2-0.8-3.5-2.4-4.5c-1.6-0.9-3.9-1.4-6.9-1.4H205.2z"/>
<path fill="#FFFFFF" d="M279.1,144.3c-0.7,0-1.2-0.2-1.7-0.7c-0.5-0.5-0.7-1.1-0.7-1.7V96.1h-17c-0.7,0-1.3-0.3-1.8-0.7
	c-0.5-0.5-0.7-1.1-0.7-1.8V82.4c0-0.7,0.2-1.2,0.7-1.7c0.5-0.5,1-0.7,1.8-0.7h56.8c0.7,0,1.3,0.2,1.8,0.7c0.5,0.5,0.7,1,0.7,1.7
	v11.2c0,0.7-0.2,1.3-0.7,1.8c-0.5,0.5-1.1,0.7-1.8,0.7h-16.9v45.8c0,0.6-0.2,1.2-0.7,1.7c-0.5,0.5-1.1,0.7-1.8,0.7H279.1z"/>
<path fill="#FFFFFF" d="M470.8,144.3c-0.7,0-1.2-0.2-1.7-0.7c-0.5-0.5-0.7-1.1-0.7-1.7V96.1h-17c-0.7,0-1.3-0.3-1.8-0.7
	c-0.5-0.5-0.7-1.1-0.7-1.8V82.4c0-0.7,0.2-1.2,0.7-1.7c0.5-0.5,1-0.7,1.8-0.7h56.8c0.7,0,1.3,0.2,1.8,0.7c0.5,0.5,0.7,1,0.7,1.7
	v11.2c0,0.7-0.2,1.3-0.7,1.8c-0.5,0.5-1.1,0.7-1.8,0.7h-16.9v45.8c0,0.6-0.2,1.2-0.7,1.7c-0.5,0.5-1.1,0.7-1.8,0.7H470.8z"/>
<path fill="#FFFFFF" d="M404.3,79.9c1.1,0,2,0.5,2.4,1.4c0.5,0.9,0.3,1.8-0.4,2.7l-28.6,34.5v23.3c0,0.6-0.3,1.2-0.7,1.7
	c-0.5,0.5-1.1,0.7-1.8,0.7h-18.4c-0.7,0-1.2-0.2-1.7-0.7c-0.5-0.5-0.7-1.1-0.7-1.7v-23.3L325.7,84c-0.8-0.9-0.9-1.8-0.5-2.7
	c0.5-0.9,1.3-1.4,2.4-1.4H349c0.3,0,0.6,0.1,1.1,0.3c0.4,0.2,0.7,0.4,0.9,0.6l16.7,20.6L382.8,81c0.1-0.3,0.4-0.5,0.9-0.7
	c0.5-0.2,0.9-0.3,1.1-0.3H404.3z"/>
<g>
	<path fill="#FFFFFF" d="M42.7,24.1c-4.2,7.4-5.2,19.4-6.7,30.7c8.5-1.1,14.2-10.8,14.2-20.1c0-9.2-5.6-18.2-19.5-18.2
		c-14.4,0-21,10.9-21,20.3c0,7.1,3.8,13.3,10.9,13.3c0.9,0,1.8-0.1,2.6-0.3l1,5.4c-1.2,0.4-2.5,0.6-3.9,0.6
		c-10.3,0-15.8-8.4-15.8-17.8c0-11.6,8.5-24.7,26.9-24.7C48.7,13.3,56,23.9,56,34.8c0,11.3-7.9,22.8-20.5,23.3
		c-2,13.8-5.3,25.8-16.8,25.8c-7.3,0-11.3-4.2-11.3-10.6c0-5.1,3.5-10.1,9.8-10.4v5.2c-3.3,0.4-5.3,3.5-5.3,6.4
		c0,4.1,3.1,6.3,6.6,6.3c16.1,0,8.1-39.6,18.5-58.7L42.7,24.1z"/>
	<path fill="#FFFFFF" d="M76.4,55.2c-1.4,3.7-4.3,6.4-7.3,7.5c-2.1,4.6-5.3,7.3-9.3,7.3c-4.3,0-6.2-4.5-6.2-10.2
		c0-3.5,0.7-7.5,1.9-11.2l2.3,0.6c0.7-4.8,3.3-9,7.8-9c4.2,0,6.4,4.8,6.4,10.5c0,3.1-0.8,6.3-1.6,9.1c1.6-0.8,3.1-2.3,4.3-5.3
		C75.1,54.3,76.4,54.8,76.4,55.2z M63.4,62.7c-2.6-1-4.3-3.5-5.2-6.5c-0.1,0.9-0.2,1.9-0.2,2.7c0,3.7,1,6.3,2.6,6.3
		c0.2,0,0.3,0,0.5-0.1C61.9,64.9,62.7,64,63.4,62.7z M60.9,52.6c0,3.4,1,6.7,3.8,7.5c1.4-3.3,2.3-7.7,2.3-11c0-2.8-0.7-5-2.4-5
		c-0.1,0-0.3,0.1-0.4,0.1C62.4,44.5,60.9,48.6,60.9,52.6z"/>
	<path fill="#FFFFFF" d="M88.9,54.3c0.3,0,1.5,0.5,1.5,0.8c0,0.1,0,0.1,0,0.1c-3.7,10-6.6,14.7-10.7,14.7c-3.8,0-5.3-3.7-5.3-10.2
		c0-4.6,0.7-10.6,2-17.8c2.8-15.7,6.8-22.8,10.4-22.8c3.3,0,4.2,2.6,4.2,5.8c0,3.7-1.2,8.2-1.9,10.1c-2.6,8.2-6.8,14.4-9.3,17.4
		c-0.3,2.7-0.5,5.1-0.5,7.2c0,4.2,0.9,5.5,2.4,5.5C83.8,65.2,86.2,61.3,88.9,54.3z M87.7,23.3c-1.7,0-5.4,13.5-7.2,25.2
		c3.1-5.7,7.8-16.2,7.8-23.8C88.3,23.8,88,23.3,87.7,23.3z"/>
	<path fill="#FFFFFF" d="M97.1,40.7c-2.2,9.8-4,17.1-4,22.2c0,1.8,0.7,2.1,1.3,2.1c1.6,0,3.7-3.5,6.5-10.7c0.3,0,1.8,0.4,1.8,0.8
		v0.1c-2.8,7.2-5,14.4-10.1,14.4c-3.4,0-4.5-3.1-4.5-7.5c0-7,2.8-16.9,3.8-21.4H97.1z M92.6,33.9c0-2.3,1.6-5,4.4-5
		c2.1,0,2.9,1.5,2.9,3.3c0,2.3-1.6,4.9-4.4,4.9C93.5,37.1,92.6,35.6,92.6,33.9z"/>
	<path fill="#FFFFFF" d="M110.6,25.9c-0.3,5.2-0.9,9.9-2,15c1,0,1.9-0.1,2.4-0.1l-0.6,2.9c-0.3,0.1-1.5,0.1-2.6,0.1
		c-0.6,2.4-1.2,4.8-1.9,7.4c-0.6,4.3-0.9,7.6-0.9,9.9c0,2.6,0.4,4,1.2,4c1.7,0,4.2-5.9,6-10.7c0.4,0,1.8,0.5,1.8,0.9
		c-3.7,10-5.7,14.4-9.7,14.4c-2.8,0-3.9-3.4-3.9-8.7c0-4.6,0.7-10.8,2.1-17.2c-1.5,0-2.5,0-2.8-0.1l0.4-2.9c0.4,0,1.5,0.1,2.8,0.1
		c0.8-4.3,1.6-8.5,3.1-14.9H110.6z"/>
	<path fill="#FFFFFF" d="M120.5,40.7c-2.2,9.8-4,17.1-4,22.2c0,1.8,0.7,2.1,1.2,2.1c1.6,0,3.7-3.5,6.5-10.7c0.3,0,1.8,0.4,1.8,0.8
		v0.1c-2.8,7.2-5,14.4-10.1,14.4c-3.4,0-4.5-3.1-4.5-7.5c0-7,2.8-16.9,3.8-21.4H120.5z M116,33.9c0-2.3,1.6-5,4.4-5
		c2.1,0,2.9,1.5,2.9,3.3c0,2.3-1.6,4.9-4.4,4.9C116.9,37.1,116,35.6,116,33.9z"/>
	<path fill="#FFFFFF" d="M134.1,52.9c1.3-2.1,2.1-4.9,2.1-6.8c0-1.3-0.4-2.2-1.2-2.2c-3.3,0-6.1,7.5-6.1,13.4c0,4,1.2,7.2,4.5,7.2
		c3,0,6.4-3.4,9.2-10.3c0.4,0,1.8,0.5,1.8,0.9c-1.9,5-6.7,14.7-13.4,14.7c-4.9,0-7-5-7-11c0-8.5,4.4-18.9,11.3-18.9
		c3.6,0,5,2.9,5,6.5c0,2.7-0.8,5.8-2.1,8.5L134.1,52.9z"/>
	<path fill="#FFFFFF" d="M157,40.8h4.5c-1.9,8.3-3.1,15.1-4,21.3c-0.1,0.7-0.1,1.2-0.1,1.6c0,0.9,0.2,1.4,0.5,1.4
		c0.7,0,3.3-3,6.3-10.8c0.4,0,1.8,0.5,1.8,0.9c-3.8,10-6.9,14.4-9.8,14.4c-2,0-3.1-1.8-3.1-6.1c0-0.2,0-0.5,0-0.7
		c-1.4,3.8-3.6,7.2-7.3,7.2c-3.1,0-4.3-3.4-4.3-8c0-8.8,4.8-21.9,10.8-21.9c2.3,0,3.6,1.4,4.1,4.2L157,40.8z M146.8,61.4
		c0,1.9,0.4,3.2,1.3,3.2c2.9,0,6.5-10.2,6.5-16c0-2.3-0.6-4-1.9-4C150,44.6,146.8,55.6,146.8,61.4z"/>
	<path fill="#FFFFFF" d="M178.4,54.3c0.3,0,1.5,0.5,1.5,0.8c0,0.1,0,0.1,0,0.1c-3.7,10-6.6,14.7-10.7,14.7c-3.8,0-5.3-3.7-5.3-10.2
		c0-4.6,0.7-10.6,2-17.8c2.8-15.7,6.8-22.8,10.4-22.8c3.3,0,4.2,2.6,4.2,5.8c0,3.7-1.2,8.2-1.9,10.1c-2.6,8.2-6.8,14.4-9.3,17.4
		c-0.3,2.7-0.5,5.1-0.5,7.2c0,4.2,0.9,5.5,2.4,5.5C173.3,65.2,175.7,61.3,178.4,54.3z M177.2,23.3c-1.7,0-5.4,13.5-7.2,25.2
		c3.1-5.7,7.8-16.2,7.8-23.8C177.9,23.8,177.5,23.3,177.2,23.3z"/>
</g>
<g>
	<path fill="#FFFFFF" d="M198.7,35.9c0.1,0.7,0.2,1.3,0.3,1.9l0.2,1.5c0.2,1.2,1.1,2.1,2.3,2.3c0.7,0.1,2,0.3,3.3,0.5
		c-1.3,0.7-2.6,1.3-3,1.5c-1.1,0.5-1.7,1.7-1.5,2.9c0.1,0.7,0.3,2,0.5,3.3c-0.9-0.9-1.8-1.8-2.4-2.4c-0.5-0.5-1.2-0.8-2-0.8
		c-0.4,0-0.9,0.1-1.3,0.3L195,47c-0.6,0.3-1.7,0.8-2.8,1.4c0.7-1.3,1.3-2.5,1.6-3.1c0.5-1,0.3-2.3-0.5-3.1c-0.5-0.5-1.4-1.4-2.4-2.5
		c1.4,0.2,2.7,0.4,3.4,0.6c0.2,0,0.3,0,0.5,0c1,0,1.9-0.6,2.4-1.5l1-1.9C198.3,36.6,198.5,36.3,198.7,35.9 M199.6,30.1
		c-0.2,0-0.3,0.1-0.4,0.3c-0.2,0.4-3.1,6-3.9,7.5c-0.1,0.2-0.3,0.3-0.5,0.3c0,0-0.1,0-0.1,0c-1.6-0.3-7.3-1.2-8.5-1.3
		c-0.1,0-0.1,0-0.2,0c-0.5,0-0.5,0.4-0.2,0.8c0.3,0.3,4.8,4.8,6,6.1c0.2,0.2,0.2,0.4,0.1,0.6c-0.8,1.5-3.7,7.2-3.9,7.7
		c-0.2,0.4-0.1,0.7,0.2,0.7c0.1,0,0.2,0,0.4-0.1c1.1-0.5,6-3,7.6-3.8c0.1-0.1,0.2-0.1,0.4-0.1c0.2,0,0.3,0.1,0.5,0.2
		c1.2,1.2,5.1,5.1,5.9,6c0.2,0.2,0.3,0.2,0.4,0.2c0.2,0,0.4-0.3,0.3-0.7c-0.1-0.6-1-6.4-1.3-8.2c0-0.3,0.1-0.6,0.4-0.7
		c1.6-0.8,7-3.6,7.5-3.8c0.6-0.3,0.5-0.7-0.1-0.8c-0.5-0.1-6.6-1.1-8.3-1.3c-0.3-0.1-0.5-0.3-0.6-0.6c-0.3-1.6-1.1-7-1.3-8.3
		C200,30.2,199.8,30.1,199.6,30.1L199.6,30.1z"/>
</g>
<g>
	<path fill="#FFFFFF" d="M256.4,53.5L256.4,53.5c-0.4,0-0.7-0.3-0.8-0.7c-0.3-0.8-1.6-4.3-2-5.4c-0.8,0-5,0.2-5.9,0.2
		c-0.7,0-0.9-0.4-1-0.6c-0.1-0.1-0.2-0.6,0.4-1l4.6-3.6l-0.7-1.8c-0.6-1.6-1.3-3.4-1.4-3.6c-0.1-0.3-0.1-0.7,0.1-0.9
		c0.3-0.4,0.8-0.5,1.3-0.2c0.7,0.4,3.8,2.5,4.9,3.3L256,39c1.2-1,4.1-3.2,4.4-3.4c0.4-0.3,1-0.3,1.3,0.1c0.2,0.2,0.2,0.5,0.1,0.8
		c-0.2,0.7-0.8,2.9-1.2,4.4l-0.3,1.2l2.2,1.5c1.2,0.8,2.4,1.6,2.6,1.7c0.5,0.3,0.6,0.7,0.5,1c-0.1,0.3-0.4,0.6-1,0.6
		c-0.4,0-4.2,0.2-5.8,0.2l-0.5,1.9c-0.4,1.5-0.9,3.3-1,3.6C257.1,53.3,256.7,53.5,256.4,53.5z M253.6,46.2c0.5,0,0.9,0.3,1.1,0.7
		c0.3,0.8,1.2,3.3,1.7,4.7c0.2-0.7,0.5-1.8,0.8-2.8l0.6-2c0.1-0.5,0.5-0.8,1-0.8c0.9,0,3.6-0.2,5-0.2c-0.5-0.3-1.2-0.8-1.9-1.2
		l-2.3-1.5c-0.4-0.3-0.6-0.7-0.4-1.2l0.4-1.3c0.3-1.1,0.7-2.5,1-3.5c-1,0.8-2.8,2.2-3.7,2.9l-0.3,0.2c-0.4,0.3-0.8,0.3-1.2,0.1
		c-0.7-0.5-2.9-2-4.2-2.8c0.3,0.7,0.7,1.8,1,2.8l0.7,1.9c0.2,0.4,0,0.9-0.3,1.1l-4,3.1C250.2,46.4,253.1,46.2,253.6,46.2L253.6,46.2
		z"/>
</g>
<g>
	<path fill="#FFFFFF" d="M230.3,36.5l-6.1-7.7l-9.6-2l5.5-8.1L219,8.9l9.5,2.7l8.9-4.1l0.3,9.8l6.7,7.3l-9.2,3.4L230.3,36.5z
		 M217.6,25.6l7.6,1.6l4.8,6.1l3.8-6.8l7.3-2.7l-5.3-5.7l-0.3-7.8l-7.1,3.2l-7.5-2.2l0.9,7.8L217.6,25.6z"/>
</g>
<g>
	<path fill="#FFFFFF" d="M222.6,41.7l7.8,4.4l9-0.3l-1.8,8.8l3.1,8.4l-8.9,1l-7,5.6l-3.7-8.2l-7.5-5l6.6-6L222.6,41.7 M221.5,39
		l-0.6,2.2l-2.3,8.1l-6.2,5.7l-1.7,1.6l1.9,1.3l7,4.7l3.5,7.7l0.9,2.1l1.8-1.4l6.6-5.2l8.4-1l2.3-0.3l-0.8-2.1l-2.9-7.9l1.7-8.3
		l0.5-2.2l-2.3,0.1l-8.5,0.3l-7.4-4.2L221.5,39L221.5,39z"/>
</g>
<g>
	<path fill="#FFFFFF" d="M229.7,50.3l0.2,0.9c0,0.2,0,0.4-0.2,0.4l-1.9,0.9c-0.2,0.1-0.3,0-0.3-0.2l-0.3-1.5c0-0.1-0.1-0.3-0.2-0.3
		c-0.1-0.1-0.3-0.1-0.4-0.1l-0.2,0c-0.2,0-0.3,0.1-0.4,0.2c-0.1,0.1-0.1,0.3-0.1,0.4l0.2,1.2c0,0.2,0.1,0.3,0.2,0.4
		c0.1,0.1,0.2,0.2,0.3,0.3l3.3,1.7c0.3,0.2,0.5,0.4,0.6,0.6c0.1,0.2,0.2,0.4,0.3,0.7l0.5,3c0.1,0.7,0,1.4-0.3,2
		c-0.4,0.6-0.9,1-1.5,1.2l0.2,0.9c0,0.2-0.1,0.3-0.3,0.4l-1.2,0.2c-0.2,0-0.3-0.1-0.4-0.3l-0.2-0.8c-0.7,0-1.3-0.2-1.8-0.7
		c-0.5-0.4-0.9-1-1-1.7l-0.2-1.3c0-0.2,0-0.4,0.2-0.4l1.9-0.9c0.2-0.1,0.3,0,0.3,0.2l0.3,1.9c0,0.1,0.1,0.3,0.2,0.3
		c0.1,0.1,0.3,0.1,0.4,0.1l0.2,0c0.2,0,0.3-0.1,0.3-0.2c0.1-0.1,0.1-0.3,0.1-0.4l-0.4-2.1c-0.1-0.2-0.1-0.4-0.2-0.5
		c-0.1-0.1-0.2-0.3-0.3-0.4l-3.3-1.7c-0.3-0.2-0.5-0.3-0.6-0.5c-0.1-0.2-0.2-0.4-0.3-0.8l-0.3-1.9c-0.1-0.7,0-1.4,0.3-1.9
		c0.4-0.6,0.9-1,1.5-1.2l-0.2-0.8c0-0.2,0.1-0.3,0.3-0.4l1.2-0.2c0.2,0,0.3,0.1,0.4,0.3l0.1,0.8c0.7,0,1.3,0.2,1.8,0.6
		C229.2,49.1,229.5,49.6,229.7,50.3z"/>
</g>
</svg>
