<?xml version="1.0" encoding="utf-8"?>
<!-- Generator: Adobe Illustrator 17.1.0, SVG Export Plug-In . SVG Version: 6.00 Build 0)  -->
<!DOCTYPE svg PUBLIC "-//W3C//DTD SVG 1.1//EN" "http://www.w3.org/Graphics/SVG/1.1/DTD/svg11.dtd">
<svg version="1.1" id="Layer_1" xmlns="http://www.w3.org/2000/svg" xmlns:xlink="http://www.w3.org/1999/xlink" x="0px" y="0px"
	 viewBox="0 0 300 80.7" style="enable-background:new 0 0 300 80.7;" xml:space="preserve">
<style type="text/css">
	.st0{opacity:0.76;}
	.st1{fill:#FFFFFF;}
	.st2{opacity:0.24;}
	.st3{opacity:0.36;fill:#FFFFFF;}
	.st4{opacity:0.68;fill:#FFFFFF;}
	.st5{opacity:0.68;}
	.st6{fill:none;}
	.st7{opacity:0.31;fill:#FFFFFF;}
	.st8{opacity:0.24;fill:#FFFFFF;}
	.st9{opacity:0.51;fill:#FFFFFF;}
	.st10{opacity:0.6;fill:#FFFFFF;}
	.st11{opacity:0.81;fill:#FFFFFF;}
</style>
<g class="st0">
	<path class="st1" d="M107.3,21.1c0.8,0,2,0.1,3.2,0.1c1,0,1.6,0,2-0.1c0.1,1.5,1.5,9.1,2,11.9c3-4.2,7.8-10.8,8.5-11.9
		c0.5,0,1.2,0.1,1.9,0.1c1.1,0,2.4-0.1,3.2-0.1l-0.2,0.7c-0.5,0-1.1,0.1-1.6,0.2c-0.4,0-0.6,0.2-0.7,0.6c-0.7,2.3-2.4,9.9-2.9,12.4
		c-0.1,0.7,0.1,0.8,0.9,0.9l1.4,0.1l-0.3,0.7c-0.8,0-2.4-0.1-3.9-0.1c-1.5,0-2.5,0-3.6,0.1l0.2-0.7c1.9-0.1,2.1-0.3,2.4-1.1
		c0.6-2.1,1.8-6.9,3.5-12.8h0c-4.4,6.2-8.4,12-10.1,14.6c-0.4,0-0.8,0.1-1.1,0.1c-0.3-2.7-1.4-9.8-1.9-14.1h0
		c-1.7,5.1-3.3,9.8-3.8,11.8c-0.3,1.2,0,1.4,2.3,1.5l-0.3,0.7c-0.8,0-1.9-0.1-3.1-0.1c-1.1,0-3,0.1-3.4,0.1l0.2-0.7
		c0.6-0.1,1.2-0.1,1.5-0.2c0.5-0.1,0.9-0.3,1.2-1c1-2.4,2.8-7.3,4.5-12.2c0.1-0.3,0-0.5-0.4-0.5l-2-0.2L107.3,21.1z"/>
	<path class="st1" d="M134.1,26.1c2.6,0,4.4,1.3,4.4,4c0,2.3-1.2,4.7-3.2,5.9c-1.1,0.7-2.4,1-4,1c-2.2,0-4.4-0.8-4.4-3.8
		c0-2.4,1.3-4.9,3.4-6.1C131.3,26.5,132.6,26.1,134.1,26.1L134.1,26.1z M134,26.9c-1,0-2,0.5-2.9,1.6c-1.1,1.3-1.8,3.6-1.8,5.3
		c0,1.8,1,2.5,2.1,2.5c0.9,0,1.8-0.3,2.5-1.1c1.4-1.4,2.1-3.9,2.1-5.8C136.1,28,135.6,26.9,134,26.9L134,26.9z"/>
	<path class="st1" d="M153.6,33.8c-1.1,2.1-2.7,3.3-4.4,3.3c-1.7,0-1.7-1.4-1-3.2c0.6-1.6,1.4-3.5,1.9-5c0.3-0.7,0.2-1.6-0.8-1.6
		c-2.5,0-5,3.9-6.1,6.5c-0.3,0.8-0.7,1.7-1.1,3c-0.9,0-1.7,0.1-2.4,0.2c1.1-2.8,2.5-7.3,2.8-9c0.1-0.4,0-0.5-0.3-0.5l-1.7,0l0.3-0.7
		c1.5-0.1,3-0.3,4.5-0.6c-0.5,1.7-1,3.3-1.4,4.5c1.6-2.3,3.7-4.5,6.5-4.5c0.7,0,1.2,0.2,1.5,0.5c0.8,0.7,0.5,2.1,0.2,2.8
		c-0.6,1.6-1.5,3.9-2,5.4c-0.2,0.5-0.1,0.9,0.2,0.9c0.8,0,1.9-1.1,2.6-2.5L153.6,33.8z"/>
	<path class="st1" d="M165.2,33.9c-1.3,2-3.8,3.1-6.1,3.1c-2.4,0-3.9-1.2-3.9-3.7c0-2.4,1.1-4.6,3.2-6.1c1.1-0.8,2.4-1.1,3.8-1.1
		c2.6,0,3.4,1.5,3.4,2.8c0,1.2-1.1,1.8-2.2,2.2c-1.4,0.6-4,0.9-5.6,1.1c-0.1,0.3-0.1,0.8-0.1,1.2c0,1.5,0.7,2.7,2.4,2.7
		c2.1,0,3.7-1.2,4.6-3.4h0.4L165.2,33.9z M162,26.9c-1.2,0-3,1-4,4.5c1.4-0.1,3.1-0.4,4-0.7c1-0.4,1.5-1.1,1.5-2.1
		C163.5,27.5,162.9,26.9,162,26.9L162,26.9z"/>
	<path class="st1" d="M171,26c0,1.3,0.6,7.1,0.8,8.8c0.9-1.7,1.9-3.4,2.9-5c1.4-2.3,2.8-3.8,4.8-3.9l0.1,0.6
		c-1.4,0.4-2.8,2.1-3.8,3.7c-1.7,2.5-3.6,5.6-5,8c-2.1,3.7-3.5,4.7-5.2,4.7c-1.4,0-2-1-1.9-1.8c0-1,0.7-1.4,1.2-1.4
		c0.5,0,0.7,0.3,0.8,0.7c0.2,0.6,0.5,0.9,0.9,0.9c1.2,0,2.2-1.3,3.5-3.8c-0.4-0.3-0.4-0.9-0.5-1.7c-0.2-2.3-0.8-6.7-1-7.9
		c-0.1-0.5-0.4-0.6-2.2-0.6l0.2-0.7C167.8,26.6,169.8,26.4,171,26z"/>
	<path class="st1" d="M176,38.9c1.4-0.3,2.6-1.1,3-2.5c0-0.1-0.1-0.1-0.2,0c-0.2,0.1-0.5,0.2-0.7,0.2c-0.6,0-1-0.5-1-1.2
		c0-1,0.8-1.7,1.7-1.7c0.9,0,1.5,0.7,1.5,1.9c0,2.3-2,3.8-4,4L176,38.9z"/>
	<path class="st1" d="M191.4,21.1c0.6,0,2.3,0.1,3.4,0.1c1,0,2.1-0.1,4-0.1c2.8,0,3.7,0.5,4.4,1.2c0.7,0.7,1,1.8,1,2.8
		c0,1.8-0.8,3.4-2.2,4.5c-1.4,1-3.2,1.3-4.5,1.3c-0.9,0-1.7-0.1-2.2-0.3l0.2-0.8c0.4,0.1,1,0.2,1.6,0.2c0.8,0,1.8-0.2,2.5-0.8
		c1.3-1,1.9-2.6,1.9-4.3c0-1-0.3-1.8-0.7-2.2c-0.4-0.5-1.2-0.9-2.9-0.9c-1,0-1.4,0.1-1.5,0.5c-0.3,0.7-1,3.1-2.1,6.9
		c-1.1,3.9-1.4,5.2-1.5,5.7c-0.1,0.5,0,0.7,0.8,0.8l1.9,0.1l-0.3,0.7c-0.9,0-2.4-0.1-4.2-0.1c-1.6,0-3.1,0.1-3.7,0.1l0.2-0.7
		l1.2-0.1c0.8-0.1,1.1-0.3,1.3-0.9c0.5-1.3,0.9-2.5,2-6.4c1.1-3.9,1.5-5.4,1.6-6c0.1-0.5,0-0.6-0.6-0.7l-1.8-0.2L191.4,21.1z"/>
	<path class="st1" d="M211.5,26.1c2.6,0,4.4,1.3,4.4,4c0,2.3-1.2,4.7-3.2,5.9c-1.1,0.7-2.4,1-4,1c-2.2,0-4.4-0.8-4.4-3.8
		c0-2.4,1.3-4.9,3.4-6.1C208.8,26.5,210.1,26.1,211.5,26.1L211.5,26.1z M211.5,26.9c-1,0-2,0.5-2.9,1.6c-1.1,1.3-1.8,3.6-1.8,5.3
		c0,1.8,1,2.5,2.1,2.5c0.9,0,1.8-0.3,2.5-1.1c1.4-1.4,2.1-3.9,2.1-5.8C213.6,28,213.1,26.9,211.5,26.9L211.5,26.9z"/>
	<path class="st1" d="M219.9,20.6c1.8,0,3.6-0.2,4.7-0.4c-0.6,1.3-1.4,3.9-2.6,7.7c-1,3.5-1.7,5.7-2,7c-0.1,0.6-0.1,1,0.3,1
		c0.7,0,2-1.1,2.7-2.6l0.5,0.5c-1.1,2.2-2.7,3.3-4.4,3.3c-1.7,0-1.7-1.4-1.2-3.2c0.5-1.6,1.1-3.4,1.8-5.9c1.1-3.6,1.5-5,1.8-6.3
		c0.1-0.4,0-0.5-0.4-0.5l-1.6,0L219.9,20.6z"/>
	<path class="st1" d="M225.4,26.7c1.5-0.1,3.3-0.3,4.5-0.6l0.1,0.1c-0.9,2.1-2.5,7.1-2.9,8.7c-0.1,0.6-0.2,0.9,0.2,0.9
		c0.9,0,2.2-1.4,2.7-2.6l0.5,0.5c-1.1,2-2.6,3.3-4.5,3.3c-1.6,0-1.6-1.1-1.1-2.8c0.6-1.7,1.5-4.5,2.1-6.4c0.1-0.3,0.1-0.5-0.3-0.4
		c-0.3,0-1.1,0-1.7,0L225.4,26.7z M229.6,21.2c0.8,0,1.1,0.5,1.1,1.3c0,0.9-0.8,1.5-1.5,1.5c-0.6,0-1.2-0.5-1.1-1.3
		C228.2,21.7,229,21.2,229.6,21.2L229.6,21.2z"/>
	<path class="st1" d="M238.6,33.8c-1.1,2.2-3.1,3.2-4.7,3.2c-2.2,0-2.1-1.4-1.7-2.8c0.6-2,1.6-5.2,2.1-6.7l-2-0.2l0.3-0.7h2
		c0.4-1.2,0.7-2.2,0.9-3c0.9-0.1,2.1-0.4,2.6-0.6c-0.2,0.6-0.8,2.4-1.2,3.6h3.1l-0.4,0.7l-3,0.2c-0.4,1.2-1.8,5.8-2.2,7.5
		c-0.1,0.5-0.1,1,0.6,1c1.2,0,2.7-1.5,3.2-2.9L238.6,33.8z"/>
	<path class="st1" d="M240.9,26.7c1.5-0.1,3.3-0.3,4.5-0.6l0.1,0.1c-0.9,2.1-2.5,7.1-2.9,8.7c-0.1,0.6-0.2,0.9,0.2,0.9
		c0.9,0,2.2-1.4,2.7-2.6l0.5,0.5c-1.1,2-2.6,3.3-4.5,3.3c-1.6,0-1.6-1.1-1.1-2.8c0.6-1.7,1.5-4.5,2.1-6.4c0.1-0.3,0.1-0.5-0.3-0.4
		c-0.3,0-1.1,0-1.7,0L240.9,26.7z M245.1,21.2c0.8,0,1.1,0.5,1.1,1.3c0,0.9-0.8,1.5-1.5,1.5c-0.6,0-1.2-0.5-1.1-1.3
		C243.7,21.7,244.5,21.2,245.1,21.2L245.1,21.2z"/>
	<path class="st1" d="M257.5,33.9c-0.8,1.3-2.9,3.1-5.8,3.1c-2.6,0-4.3-1.2-4.3-4c0-2.4,1.3-4.7,3.6-6c1.1-0.6,2.2-0.9,3.5-0.9
		c2.3,0,3.5,1.1,3.5,2.6c0,1.1-0.7,1.6-1.4,1.6c-0.4,0-0.7-0.1-0.8-0.4c-0.2-0.2-0.2-0.5,0-0.7c0.1-0.3,0.3-0.7,0.3-1
		c0-0.9-0.5-1.4-1.7-1.4c-1.3,0-2.3,0.6-3.3,2c-0.8,1.2-1.2,2.9-1.2,4.2c0,1.9,1,2.9,2.5,2.9c2,0,3.6-1.2,4.6-3.4h0.4L257.5,33.9z"
		/>
	<path class="st1" d="M269.1,26.3c-0.5,1-1,2.4-1.4,4.1l-0.6,0.1c0.4-2.2-0.3-3.6-2.3-3.6c-1.2,0-2,0.7-2,1.7c0,0.7,0.4,1.1,1,1.4
		c0.6,0.4,1.8,0.8,2.6,1.2c1,0.5,1.6,1.1,1.6,2.3c0,1.1-0.6,2-1.3,2.5c-0.8,0.7-2,1-3.7,1c-1.5,0-3-0.5-4-1.1
		c0.3-0.7,0.8-2.3,1.2-3.8l0.6-0.1c-0.1,0.4-0.2,1.3-0.2,1.7c0,1.6,1.1,2.5,2.9,2.5c1.3,0,2.4-0.6,2.4-1.8c0-0.7-0.3-1-1-1.3
		c-0.6-0.3-1.5-0.7-2.3-1.1c-1-0.5-1.7-1.2-1.7-2.5c0-1,0.5-1.9,1.3-2.6c0.7-0.5,1.6-0.8,2.9-0.8c1.3,0,2.4,0.5,2.8,1l0.7-1.1
		L269.1,26.3z"/>
	<path class="st1" d="M113.7,55.2c-0.5,1-1.6,2.7-3,2.7c-1.3,0-0.9-1.5-0.7-2.3c0.1-0.4,0.3-1,0.4-1.4h0c-1.1,1.6-3,3.8-5,3.8
		c-1.2,0-1.7-0.9-1.7-2.1c0-2.4,1.6-6.1,4-7.6c0.9-0.6,1.8-0.9,2.5-0.9c1,0,1.8,0.4,1.9,1.2l0.3-1h1.2c-0.9,2.6-1.9,6-2.5,8.7
		c-0.1,0.7,0,1,0.3,1c0.9,0,1.9-1.4,2.2-2.3L113.7,55.2z M104.9,55.8c0,0.6,0.2,1.5,1,1.5c1.4,0,2.8-1.3,4-3.4
		c0.7-1.2,1.6-3.8,1.6-4.6c0-1.1-0.4-1.6-1.4-1.6c-0.9,0-1.7,0.4-2.7,1.5C105.9,51,104.9,53.8,104.9,55.8L104.9,55.8z"/>
	<path class="st1" d="M124.5,55.3c-0.6,1.3-1.9,2.6-3.1,2.6c-1.1,0-1.1-1.1-0.6-2.4c0.6-1.9,1.5-4.1,2.1-6c0.2-0.7,0.3-1.7-0.6-1.7
		c-2.5,0-4.9,4-5.8,6.4c-0.3,1-0.6,1.7-1.1,3.4c-0.4,0-0.9,0.1-1.2,0.2c1.1-3.1,2.3-7.2,2.8-9.4c0-0.2,0.1-0.3-0.2-0.3h-1.3l0.1-0.2
		c1-0.1,2.1-0.3,3-0.5c-0.5,1.5-0.9,3-1.3,4.5c1.2-2,3.3-4.5,5.7-4.5c0.5,0,0.8,0.1,1,0.3c0.6,0.5,0.3,1.7,0,2.5
		c-0.6,1.8-1.6,4.3-2.2,6.1c-0.2,0.7,0,1,0.2,1c0.8,0,1.9-1.3,2.3-2.2L124.5,55.3z"/>
	<path class="st1" d="M135.9,55.2c-0.7,1.5-1.8,2.6-3,2.6c-1.1,0-0.9-1.4-0.5-2.6c0.1-0.3,0.2-0.7,0.3-1.1c-0.8,1.4-2.8,3.7-5.2,3.7
		c-1.3,0-1.8-1-1.8-2.3c0-2.5,1.5-5.5,3.5-7.2c0.8-0.7,1.8-1.1,3-1.1c1,0,1.8,0.4,2.1,1.2c1-3,1.7-5.5,1.9-6.5
		c0.1-0.2,0-0.4-0.2-0.4h-1.5l0.1-0.3c1,0,2.6-0.2,3.4-0.4c-0.6,1.7-2,6.2-3.3,10.6c-0.6,2-1,3.6-1.2,4.5c-0.1,0.5-0.3,1.2,0.1,1.2
		c0.8,0,1.8-1.3,2.2-2.2L135.9,55.2z M126.9,55.6c0,0.9,0.4,1.7,1.3,1.7c1.1,0,2.5-1,4-3.3c0.9-1.4,1.7-3.7,1.7-4.8
		c0-0.7-0.3-1.7-1.5-1.7c-1,0-1.8,0.5-2.7,1.4C128.1,50.6,126.9,53.1,126.9,55.6L126.9,55.6z"/>
	<path class="st1" d="M144.3,46.6c0.5-1.1,1.5-3.7,1.9-4.8c0.3,0.1,0.8,0.2,1.7,0.3c0.9,0,2.3,0.1,4.4,0.1h1.8c4.9,0,5.7,0,6.8-0.3
		c-0.2,0.5-1.1,2.8-1.6,4.8l-0.7,0.3c0.2-1.4,0.2-2.5,0.2-3c0-0.8-0.4-1-4.4-1c-0.6,1.6-1.2,3.9-1.9,6.4c-0.8,2.6-1.5,5.4-1.8,6.8
		c-0.1,0.5,0.1,0.6,0.6,0.7c0.9,0.1,1.5,0.1,2.1,0.2l-0.2,0.7c-0.9,0-2.9-0.1-4.3-0.1c-1.3,0-3,0-4.2,0.1l0.2-0.7
		c0.5,0,0.9,0,1.7-0.1c0.6-0.1,1-0.2,1.2-0.7c0.7-1.7,1.3-3.8,2.2-7c0.9-3.1,1.5-5.1,1.8-6.3c-3.8,0-4.1,0.2-5,1.2
		c-0.7,0.8-1.4,1.9-1.8,2.8L144.3,46.6z"/>
	<path class="st1" d="M159.4,47.6c1.3-0.1,3-0.3,4.2-0.6c-0.2,1.1-0.7,3-0.9,4.1h0.1c1.4-2.6,2.9-4.1,4.5-4.1c1,0,1.5,0.8,1.5,1.4
		c0,1-0.7,1.6-1.3,1.6c-0.4,0-0.6-0.2-0.7-0.6c-0.1-0.4-0.2-0.7-0.6-0.7c-1.3,0-3,3.1-3.7,4.8c-0.5,1.1-0.9,2.4-1.4,4.1
		c-1,0-1.8,0.1-2.5,0.2c1.2-3.2,2.5-7.7,2.5-9c0-0.3-0.1-0.4-0.3-0.5h-1.6L159.4,47.6z"/>
	<path class="st1" d="M182.2,54.6c-0.6,1.3-2,3.3-4.2,3.3c-1.5,0-1.6-1.3-1.2-2.6c0.1-0.3,0.1-0.5,0.2-0.8h-0.1
		c-1.2,1.7-3.2,3.3-5.8,3.3c-1.6,0-2.5-1.1-2.5-2.8c0-2.5,1.5-5.4,3.9-7c1.1-0.7,2.3-1.1,3.4-1.1c1.5,0,2.5,0.5,2.8,1.5l0.3-1.1h2.3
		c-0.8,2.2-2.1,6.5-2.5,8.3c-0.1,0.7-0.1,1,0.3,1c0.8,0,1.8-1.1,2.5-2.6L182.2,54.6z M171.1,55c0,1,0.4,1.7,1.3,1.7
		c1.4,0,3-1,4.2-3.1c0.7-1.1,1.5-2.9,1.5-3.8c0-1.4-0.9-1.9-1.8-1.9c-1,0-1.9,0.4-3,1.5C172,50.9,171.1,53.1,171.1,55L171.1,55z"/>
	<path class="st1" d="M196.7,54.7c-1.1,2.1-2.7,3.3-4.4,3.3c-1.7,0-1.7-1.4-1-3.2c0.6-1.6,1.4-3.5,1.9-5c0.3-0.7,0.2-1.6-0.8-1.6
		c-2.5,0-5,3.9-6.1,6.5c-0.3,0.8-0.7,1.7-1.1,3c-0.9,0-1.7,0.1-2.4,0.2c1.1-2.8,2.5-7.3,2.8-9c0.1-0.4,0-0.5-0.3-0.5l-1.7,0l0.3-0.7
		c1.5-0.1,3-0.3,4.5-0.6c-0.5,1.7-1,3.3-1.4,4.5c1.6-2.3,3.7-4.5,6.5-4.5c0.7,0,1.2,0.2,1.5,0.5c0.8,0.7,0.5,2.1,0.2,2.8
		c-0.6,1.6-1.5,3.9-2,5.4c-0.2,0.5-0.1,0.9,0.2,0.9c0.8,0,1.9-1.1,2.6-2.5L196.7,54.7z"/>
	<path class="st1" d="M207.8,47.2c-0.5,1-1,2.4-1.4,4.1l-0.6,0.1c0.4-2.2-0.3-3.6-2.3-3.6c-1.2,0-2,0.7-2,1.7c0,0.7,0.4,1.1,1,1.4
		c0.6,0.4,1.8,0.8,2.6,1.2c1,0.5,1.6,1.1,1.6,2.3c0,1.1-0.6,2-1.3,2.5c-0.8,0.7-2,1-3.7,1c-1.5,0-3-0.5-4-1.1
		c0.3-0.7,0.8-2.3,1.2-3.8l0.6-0.1c-0.1,0.4-0.2,1.3-0.2,1.7c0,1.6,1.1,2.5,2.9,2.5c1.3,0,2.4-0.6,2.4-1.8c0-0.7-0.3-1-1-1.3
		c-0.6-0.3-1.5-0.7-2.3-1.1c-1-0.5-1.7-1.2-1.7-2.5c0-1,0.5-1.9,1.3-2.6c0.7-0.5,1.6-0.8,2.9-0.8c1.3,0,2.4,0.5,2.8,1l0.7-1.1
		L207.8,47.2z"/>
	<path class="st1" d="M211.7,47.9c0.2-0.6,0.7-2.2,0.7-2.5c0.5-0.1,1.8-0.4,2.4-0.7l0.1,0.1c-0.6,1.6-1.2,3.9-1.8,5.8
		c1.4-1.7,3.3-3.5,5.7-3.5c1.8,0,2.9,1.2,2.9,3.2c0,2.7-1.8,6-4.6,7.1c-0.9,0.4-1.9,0.6-2.7,0.6c-1.2,0-2.5-0.3-3-1.2
		c-0.6,2.1-1.2,4.3-1.4,5c-0.2,0.7,0,0.8,0.5,0.9l1.8,0.2l-0.2,0.6h-2.8c-1.4,0-3,0-4.4,0.2l0.2-0.7l1.2-0.2c0.6-0.1,1-0.3,1.1-0.8
		c0.9-2.3,2.7-8.5,3.8-12.2c-0.6,0.4-1.7,1-2.3,1.2c-0.1-0.2-0.3-0.4-0.4-0.5C210,49.7,211,48.9,211.7,47.9z M217.7,48.1
		c-1.5,0-3.1,1.6-4.2,3.2c-0.9,1.2-1.5,2.7-1.5,3.9c0,1.4,1.1,2,2.2,2c1,0,2-0.5,2.8-1.4c1.3-1.5,2.2-3.9,2.2-5.6
		C219.2,49,218.7,48.1,217.7,48.1L217.7,48.1z"/>
	<path class="st1" d="M236.8,54.6c-0.6,1.3-2,3.3-4.2,3.3c-1.5,0-1.6-1.3-1.2-2.6c0.1-0.3,0.1-0.5,0.2-0.8h-0.1
		c-1.2,1.7-3.2,3.3-5.8,3.3c-1.6,0-2.5-1.1-2.5-2.8c0-2.5,1.5-5.4,3.9-7c1.1-0.7,2.3-1.1,3.4-1.1c1.5,0,2.5,0.5,2.8,1.5l0.3-1.1h2.3
		c-0.8,2.2-2.1,6.5-2.5,8.3c-0.1,0.7-0.1,1,0.3,1c0.8,0,1.8-1.1,2.5-2.6L236.8,54.6z M225.7,55c0,1,0.4,1.7,1.3,1.7
		c1.4,0,3-1,4.2-3.1c0.7-1.1,1.5-2.9,1.5-3.8c0-1.4-0.9-1.9-1.8-1.9c-1,0-1.9,0.4-3,1.5C226.6,50.9,225.7,53.1,225.7,55L225.7,55z"
		/>
	<path class="st1" d="M238.5,47.6c1.3-0.1,3-0.3,4.2-0.6c-0.2,1.1-0.7,3-0.9,4.1h0.1c1.4-2.6,2.9-4.1,4.5-4.1c1,0,1.5,0.8,1.5,1.4
		c0,1-0.7,1.6-1.3,1.6c-0.4,0-0.6-0.2-0.7-0.6c-0.1-0.4-0.2-0.7-0.6-0.7c-1.3,0-3,3.1-3.7,4.8c-0.5,1.1-0.9,2.4-1.4,4.1
		c-1,0-1.8,0.1-2.5,0.2c1.2-3.2,2.5-7.7,2.5-9c0-0.3-0.1-0.4-0.3-0.5h-1.6L238.5,47.6z"/>
	<path class="st1" d="M258.1,54.8c-1.3,2-3.8,3.1-6.1,3.1c-2.4,0-3.9-1.2-3.9-3.7c0-2.4,1.1-4.6,3.2-6.1c1.1-0.8,2.4-1.1,3.8-1.1
		c2.6,0,3.4,1.5,3.4,2.8c0,1.2-1.1,1.8-2.2,2.2c-1.4,0.6-4,0.9-5.6,1.1c-0.1,0.3-0.1,0.8-0.1,1.2c0,1.5,0.7,2.7,2.4,2.7
		c2.1,0,3.7-1.2,4.6-3.4h0.4L258.1,54.8z M254.9,47.7c-1.2,0-3,1-4,4.5c1.4-0.1,3.1-0.4,4-0.7c1-0.4,1.5-1.1,1.5-2.1
		C256.4,48.4,255.9,47.7,254.9,47.7L254.9,47.7z"/>
	<path class="st1" d="M273.5,54.7c-1.1,2.1-2.7,3.3-4.4,3.3c-1.7,0-1.7-1.4-1-3.2c0.6-1.6,1.4-3.5,1.9-5c0.3-0.7,0.2-1.6-0.8-1.6
		c-2.5,0-5,3.9-6.1,6.5c-0.3,0.8-0.7,1.7-1.1,3c-0.9,0-1.7,0.1-2.4,0.2c1.1-2.8,2.5-7.3,2.8-9c0.1-0.4,0-0.5-0.3-0.5l-1.7,0l0.3-0.7
		c1.5-0.1,3-0.3,4.5-0.6c-0.5,1.7-1,3.3-1.4,4.5c1.6-2.3,3.7-4.5,6.5-4.5c0.7,0,1.2,0.2,1.5,0.5c0.8,0.7,0.5,2.1,0.2,2.8
		c-0.6,1.6-1.5,3.9-2,5.4c-0.2,0.5-0.1,0.9,0.2,0.9c0.8,0,1.9-1.1,2.6-2.5L273.5,54.7z"/>
	<path class="st1" d="M285.2,54.8c-0.8,1.3-2.9,3.1-5.8,3.1c-2.6,0-4.3-1.2-4.3-4c0-2.4,1.3-4.7,3.6-6c1.1-0.6,2.2-0.9,3.5-0.9
		c2.3,0,3.5,1.1,3.5,2.6c0,1.1-0.7,1.6-1.4,1.6c-0.4,0-0.7-0.1-0.8-0.4c-0.2-0.2-0.2-0.5,0-0.7c0.1-0.3,0.3-0.7,0.3-1
		c0-0.9-0.5-1.4-1.7-1.4c-1.3,0-2.3,0.6-3.3,2c-0.8,1.2-1.2,2.9-1.2,4.2c0,1.9,1,2.9,2.5,2.9c2,0,3.6-1.2,4.6-3.4h0.4L285.2,54.8z"
		/>
	<path class="st1" d="M291,46.9c0,1.3,0.6,7.1,0.8,8.8c0.9-1.7,1.9-3.4,2.9-5c1.4-2.3,2.8-3.8,4.8-3.9l0.1,0.6
		c-1.4,0.4-2.8,2.1-3.8,3.7c-1.7,2.5-3.6,5.6-5,8c-2.1,3.7-3.5,4.7-5.2,4.7c-1.4,0-2-1-1.9-1.8c0-1,0.7-1.4,1.2-1.4
		c0.5,0,0.7,0.3,0.8,0.7c0.2,0.6,0.5,0.9,0.9,0.9c1.2,0,2.2-1.3,3.5-3.8c-0.4-0.3-0.4-0.9-0.5-1.7c-0.2-2.3-0.8-6.7-1-7.9
		c-0.1-0.5-0.4-0.6-2.2-0.6l0.2-0.7C287.8,47.5,289.8,47.3,291,46.9z"/>
</g>
<g class="st2">
	<circle class="st1" cx="43.5" cy="75.1" r="1.9"/>
</g>
<g class="st2">
	<circle class="st1" cx="59.5" cy="71.2" r="1.9"/>
</g>
<g class="st2">
	<circle class="st1" cx="71.9" cy="60.3" r="1.9"/>
</g>
<g class="st2">
	<circle class="st1" cx="77.8" cy="44.9" r="1.9"/>
</g>
<g class="st2">
	<path class="st1" d="M26.6,72.8c-0.9-0.5-1.3-1.6-0.8-2.6c0.5-0.9,1.6-1.3,2.6-0.8c0.9,0.5,1.3,1.6,0.8,2.6
		C28.7,72.9,27.5,73.3,26.6,72.8z"/>
</g>
<path class="st3" d="M15.3,40.8c0-10.5,5.8-19.7,14.3-24.5l-5.7-9.7l0,0l-0.2-0.3L10.3,18.2L3.4,36.4l2.3,19.3l11,16l6.2,3.3
	l0.4-0.7l-0.1,0l0,0L29,65C20.8,60,15.3,51.1,15.3,40.8z M19.6,13.4c0.8-0.7,2-0.6,2.7,0.2c0.7,0.8,0.6,2-0.2,2.7
	c-0.8,0.7-2,0.6-2.7-0.2C18.8,15.3,18.8,14.1,19.6,13.4z M9.1,42.6c-0.9,0.1-1.8-0.6-1.9-1.5c-0.1-0.9,0.6-1.8,1.5-1.9
	c0.9-0.1,1.8,0.6,1.9,1.5C10.7,41.7,10.1,42.5,9.1,42.6z M10.2,27.6c-0.9-0.3-1.3-1.3-1-2.2c0.3-0.9,1.3-1.3,2.2-1
	c0.9,0.3,1.3,1.3,1,2.2C12.1,27.5,11.1,27.9,10.2,27.6z M15.2,56.4c-0.8,0.5-1.9,0.3-2.4-0.4c-0.5-0.8-0.3-1.9,0.4-2.4
	c0.8-0.5,1.9-0.3,2.4,0.4C16.2,54.8,16,55.9,15.2,56.4z"/>
<g class="st2">
	<path class="st1" d="M19.6,13.4c0.8-0.7,2-0.6,2.7,0.2c0.7,0.8,0.6,2-0.2,2.7c-0.8,0.7-2,0.6-2.7-0.2
		C18.8,15.3,18.8,14.1,19.6,13.4z"/>
</g>
<g class="st2">
	<path class="st1" d="M9.2,25.4c0.3-0.9,1.3-1.3,2.2-1c0.9,0.3,1.3,1.3,1,2.2c-0.3,0.9-1.3,1.3-2.2,1C9.3,27.3,8.8,26.3,9.2,25.4z"
		/>
</g>
<g class="st2">
	<path class="st1" d="M7.2,41.1c-0.1-0.9,0.6-1.8,1.5-1.9c0.9-0.1,1.8,0.6,1.9,1.5c0.1,0.9-0.6,1.8-1.5,1.9
		C8.2,42.8,7.3,42.1,7.2,41.1z"/>
</g>
<g class="st2">
	<circle class="st1" cx="14.2" cy="55" r="1.7"/>
</g>
<path class="st4" d="M71.7,40.5l4.1,0c-0.4-4.9-3-9.2-6.9-11.9C70.7,32.3,71.6,36.1,71.7,40.5L71.7,40.5
	C71.7,40.4,71.7,40.6,71.7,40.5z"/>
<g class="st5">
	<circle class="st1" cx="75.8" cy="28.6" r="1.9"/>
</g>
<g class="st5">
	<circle class="st1" cx="66.5" cy="15" r="1.9"/>
</g>
<g class="st5">
	<circle class="st1" cx="51" cy="7.3" r="1.9"/>
</g>
<g class="st5">
	<circle class="st1" cx="34.5" cy="7.2" r="1.9"/>
</g>
<polygon class="st6" points="23.4,74.2 43.7,40.4 23.4,74.2 "/>
<polygon class="st6" points="23.9,6.6 43.7,40.4 23.9,6.6 "/>
<circle class="st6" cx="59.5" cy="71.2" r="1.9"/>
<circle class="st6" cx="71.9" cy="60.3" r="1.9"/>
<circle class="st6" cx="43.5" cy="75.1" r="1.9"/>
<circle class="st6" cx="77.8" cy="44.9" r="1.9"/>
<path class="st6" d="M28.4,69.4c-0.9-0.5-2.1-0.1-2.6,0.8c-0.5,0.9-0.1,2.1,0.8,2.6c0.9,0.5,2.1,0.1,2.6-0.8
	C29.7,71,29.3,69.9,28.4,69.4z"/>
<path class="st7" d="M75.8,40.5c0,0.4,0.1,0.9,0.1,1.4c0,6.2-3.5,11.6-8.7,14.3C62.2,63.8,53.4,69,43.5,69c-5.3,0-10.3-1.5-14.5-4
	l-5.5,9.2l0.1,0L23.1,75l11,5.8h19.4l17.2-9l11-16l1.8-15.2L75.8,40.5z M29.2,72c-0.5,0.9-1.6,1.3-2.6,0.8c-0.9-0.5-1.3-1.6-0.8-2.6
	c0.5-0.9,1.6-1.3,2.6-0.8C29.3,69.9,29.7,71,29.2,72z M43.5,77c-1,0-1.9-0.8-1.9-1.9c0-1,0.8-1.9,1.9-1.9c1,0,1.9,0.8,1.9,1.9
	C45.4,76.1,44.5,77,43.5,77z M60.4,72.9c-0.9,0.5-2.1,0.1-2.6-0.8c-0.5-0.9-0.1-2.1,0.8-2.6c0.9-0.5,2.1-0.1,2.6,0.8
	C61.7,71.2,61.3,72.4,60.4,72.9z M73.4,61.4c-0.6,0.9-1.8,1.1-2.6,0.5c-0.9-0.6-1.1-1.8-0.5-2.6c0.6-0.9,1.8-1.1,2.6-0.5
	C73.8,59.4,74,60.5,73.4,61.4z M79.6,45.2c-0.1,1-1.1,1.8-2.1,1.6c-1-0.1-1.8-1.1-1.6-2.1c0.1-1,1.1-1.8,2.1-1.6
	C79,43.2,79.8,44.1,79.6,45.2z"/>
<path class="st8" d="M75.8,41.8c0-0.5,0-0.9-0.1-1.4l-4.1,0c0,0.1,0,0.2,0,0.3c0,5.6-1.7,10.9-4.5,15.3C72.3,53.4,75.8,48,75.8,41.8
	z"/>
<path class="st9" d="M68.9,28.6c-2.6-1.8-5.7-2.9-9.1-2.9c-8.9,0-16.1,7.2-16.1,16.1c0,8.9,7.2,16.1,16.1,16.1
	c2.7,0,5.2-0.7,7.4-1.8c2.9-4.4,4.5-9.7,4.5-15.3C71.7,36.4,70.7,32.3,68.9,28.6z"/>
<path class="st10" d="M43.7,41.8c0-8.9,7.2-16.1,16.1-16.1c3.4,0,6.6,1.1,9.1,2.9c-4.5-9.5-14.2-16-25.4-16c-1.7,0-3.3,0.2-5,0.4
	c3.2,1.9,5.4,5.4,5.4,9.4c0,6.1-4.9,11-11,11c-6,0-10.9-4.8-11-10.8c-4.2,4.9-6.7,11.3-6.7,18.2C15.3,56.4,27.9,69,43.5,69
	c9.9,0,18.6-5.1,23.7-12.9c-2.2,1.1-4.7,1.8-7.4,1.8C50.9,57.9,43.7,50.7,43.7,41.8z"/>
<circle class="st6" cx="66.5" cy="15" r="1.9"/>
<circle class="st6" cx="51" cy="7.3" r="1.9"/>
<circle class="st6" cx="75.8" cy="28.6" r="1.9"/>
<circle class="st6" cx="34.5" cy="7.2" r="1.9"/>
<path class="st11" d="M33.8,14.4C33.8,14.4,33.8,14.4,33.8,14.4C33.8,14.4,33.8,14.4,33.8,14.4z"/>
<path class="st11" d="M77.1,18.2L62.6,5.4L43.7,0.7L24.9,5.4l-1.1,1l0.2,0.3l3.7,6.3c1.6-0.9,3.4-1.4,5.4-1.4c2,0,3.9,0.6,5.6,1.5
	c1.6-0.3,3.3-0.5,5-0.5c11.2,0,20.9,6.5,25.4,16c3.8,2.7,6.4,6.9,6.9,11.8l-4.1,0l11.9,0l0.5-4.1L77.1,18.2z M34.9,9.1
	c-1,0.2-2-0.4-2.3-1.4c-0.2-1,0.4-2,1.4-2.3c1-0.2,2,0.4,2.3,1.4C36.6,7.8,36,8.8,34.9,9.1z M52.8,7.8c-0.2,1-1.3,1.6-2.3,1.4
	c-1-0.3-1.6-1.3-1.4-2.3c0.3-1,1.3-1.6,2.3-1.4C52.4,5.7,53,6.7,52.8,7.8z M67.9,16.3c-0.7,0.8-1.9,0.9-2.7,0.2
	c-0.8-0.7-0.9-1.9-0.2-2.7c0.7-0.8,1.9-0.9,2.7-0.2C68.5,14.3,68.6,15.5,67.9,16.3z M76.5,30.4c-1,0.4-2.1-0.1-2.4-1.1
	c-0.4-1,0.1-2.1,1.1-2.4c1-0.4,2.1,0.1,2.4,1.1C78,28.9,77.5,30,76.5,30.4z"/>
<path class="st11" d="M71.7,40.5L71.7,40.5C71.7,40.4,71.7,40.4,71.7,40.5z"/>
<path class="st1" d="M38.5,13.1C38.5,13.1,38.5,13.1,38.5,13.1c-1.7,0.3-3.2,0.7-4.8,1.3C35.3,13.8,36.9,13.4,38.5,13.1z"/>
<path class="st8" d="M27.6,12.9c-3.3,1.9-5.6,5.5-5.6,9.6c0,0,0,0.1,0,0.1c3.3-3.6,5-4.7,7.6-6.3l0,0L27.6,12.9z"/>
<path class="st4" d="M27.6,12.9l2,3.4c1.3-0.8,2.7-1.4,4.2-1.9c0,0,0,0,0,0c1.5-0.6,3.1-1,4.8-1.3c-1.6-1-3.5-1.5-5.6-1.5
	C31,11.5,29.2,12,27.6,12.9z"/>
<path class="st9" d="M33,33.4c6.1,0,11-4.9,11-11c0-4-2.2-7.5-5.4-9.4C32,14.2,26.2,17.7,22,22.6C22.1,28.6,26.9,33.4,33,33.4z"/>
</svg>
