<?xml version="1.0" encoding="utf-8"?>
<!-- Generator: Adobe Illustrator 16.0.0, SVG Export Plug-In . SVG Version: 6.00 Build 0)  -->
<!DOCTYPE svg PUBLIC "-//W3C//DTD SVG 1.1//EN" "http://www.w3.org/Graphics/SVG/1.1/DTD/svg11.dtd">
<svg version="1.1" id="Layer_1" xmlns="http://www.w3.org/2000/svg" xmlns:xlink="http://www.w3.org/1999/xlink" x="0px" y="0px"
	 width="546.055px" height="98.667px" viewBox="0 0 546.055 98.667" enable-background="new 0 0 546.055 98.667"
	 xml:space="preserve">
<g>
	<path fill="#FFFFFF" d="M50.498,66.193H37.8v-2.9c-2.965,1.482-7.219,3.545-10.506,3.545c-7.412,0-7.799-5.93-7.799-12.568V44.085
		c0-6.639,0.387-12.568,7.799-12.568c3.287,0,7.541,2.9,10.506,5.027V25.265h-3.48v-7.09h12.697v40.928h3.48V66.193z M31.033,60.199
		c1.676,0,5.35-1.096,6.768-1.611V41.701c-1.418-0.967-5.092-3.029-6.768-3.029c-2.191,0-2.32,2.062-2.32,4.898v11.215
		C28.712,57.943,28.841,60.199,31.033,60.199z"/>
	<path fill="#FFFFFF" d="M82.817,56.847c0,7.283-4.512,9.99-14.115,9.99s-14.115-2.707-14.115-9.99v-15.34
		c0-7.283,4.512-9.99,14.115-9.99s14.115,2.707,14.115,9.99V56.847z M73.665,41.572c0-2.256-1.16-3.416-4.963-3.416
		c-3.738,0-4.963,1.16-4.963,3.416v15.211c0,1.998,1.225,3.416,4.963,3.416c3.803,0,4.963-1.418,4.963-3.416V41.572z"/>
	<path fill="#FFFFFF" d="M104.333,43.376v-4.512c-0.709-0.064-1.482-0.129-2.256-0.129c-4.125,0-5.994,2.385-5.994,5.736v9.41
		c0,3.352,1.869,5.736,5.994,5.736c3.932,0,7.025-0.516,9.475-0.967l1.096,6.574c-2.062,0.516-6.768,1.611-10.57,1.611
		c-10.57,0-15.211-4.963-15.211-14.051v-7.219c0-9.088,4.641-14.051,15.211-14.051c4.254,0,8.057,1.418,9.926,2.127v9.732H104.333z"
		/>
	<path fill="#FFFFFF" d="M133.095,66.193h-16.371v-7.09h3.932V25.265h-3.545v-7.09h12.697v29.068l10.312-15.082h9.152v7.09h-3.738
		l-6.703,8.701l7.283,11.15h3.738v7.09h-9.668l-10.377-17.338v10.248h3.287V66.193z"/>
	<path fill="#FFFFFF" d="M181.012,64.453c-2.385,0.838-8.186,2.385-12.504,2.385c-10.57,0-15.211-4.705-15.211-14.051v-7.992
		c0-11.666,4.061-13.277,15.082-13.277c10.184,0,12.117,4.447,12.117,9.604v4.576c0,3.674-3.223,6.703-17.982,6.961v1.225
		c0,3.287,1.869,5.736,5.994,5.736c4.383,0,8.186-0.838,10.893-1.676L181.012,64.453z M171.795,41.83
		c0-1.676-0.193-3.674-2.385-3.674c-3.674,0-6.896,0.58-6.896,4.061v5.994c6.059-0.516,9.281-1.418,9.281-3.352V41.83z"/>
	<path fill="#FFFFFF" d="M206.712,64.839c-4.189,1.354-6.381,1.998-9.088,1.998c-5.221,0-9.088-2.514-9.088-9.217V39.445h-3.867
		v-7.283h3.867v-7.477h9.217v7.477h7.09v7.283h-7.09v17.982c0,1.225,0.451,1.805,1.805,1.805c1.289,0,3.094-0.645,5.092-1.289
		L206.712,64.839z"/>
	<path fill="#FFFFFF" d="M324.152,39.251h-3.029l3.223,16.371l5.285-23.59h8.508l5.801,23.654l2.771-16.436h-2.836v-7.09h15.34v7.09
		h-3.674l-8.057,27.07h-8.443l-5.156-22.43l-5.285,22.43h-8.508l-8.057-27.07h-3.223v-7.09h15.34V39.251z"/>
	<path fill="#FFFFFF" d="M376.259,37.06c2.514-2.191,6.059-5.543,8.895-5.543c4.834,0,5.607,2.32,5.607,9.604v2.32h-7.67v-2.32
		c-0.064-1.482-0.387-2.449-1.676-2.449c-1.354,0-4.189,2.707-5.156,3.609v16.822h3.545v7.09h-16.371v-7.09h3.609V39.316h-3.48
		v-7.09h12.697V37.06z"/>
	<path fill="#FFFFFF" d="M422.488,64.453c-2.385,0.838-8.186,2.385-12.504,2.385c-10.57,0-15.211-4.705-15.211-14.051v-7.992
		c0-11.666,4.061-13.277,15.082-13.277c10.184,0,12.117,4.447,12.117,9.604v4.576c0,3.674-3.223,6.703-17.982,6.961v1.225
		c0,3.287,1.869,5.736,5.994,5.736c4.383,0,8.186-0.838,10.893-1.676L422.488,64.453z M413.271,41.83
		c0-1.676-0.193-3.674-2.385-3.674c-3.674,0-6.896,0.58-6.896,4.061v5.994c6.059-0.516,9.281-1.418,9.281-3.352V41.83z"/>
	<path fill="#FFFFFF" d="M461.426,66.193H448.6V44.085c0-3.158-0.129-5.414-2.385-5.414c-1.676,0-5.479,2.256-6.768,3.094v17.338
		h3.545v7.09h-16.371v-7.09h3.609V39.251h-3.48v-7.09h12.697v4.383c2.9-1.934,7.154-5.027,10.57-5.027
		c7.412,0,7.799,5.93,7.799,12.568v15.018h3.609V66.193z"/>
	<path fill="#FFFFFF" d="M482.37,43.376v-4.512c-0.709-0.064-1.482-0.129-2.256-0.129c-4.125,0-5.994,2.385-5.994,5.736v9.41
		c0,3.352,1.869,5.736,5.994,5.736c3.932,0,7.025-0.516,9.475-0.967l1.096,6.574c-2.062,0.516-6.768,1.611-10.57,1.611
		c-10.57,0-15.211-4.963-15.211-14.051v-7.219c0-9.088,4.641-14.051,15.211-14.051c4.254,0,8.057,1.418,9.926,2.127v9.732H482.37z"
		/>
	<path fill="#FFFFFF" d="M511.067,66.193h-16.371v-7.09h3.609V25.265h-3.48v-7.09h12.697v18.369c2.9-1.934,7.154-5.027,10.57-5.027
		c7.412,0,7.799,5.93,7.799,12.568v15.018h3.738v7.09h-12.955V44.085c0-3.158-0.129-5.414-2.385-5.414
		c-1.676,0-5.479,2.256-6.768,3.094v17.338h3.545V66.193z"/>
</g>
<g>
	<path fill="none" d="M263.106,68.475c-0.902-0.495-1.919-0.757-2.941-0.757c-2.243,0-4.306,1.22-5.384,3.185
		c-1.624,2.966-0.534,6.701,2.429,8.325c0.904,0.494,1.923,0.756,2.946,0.756c2.244,0,4.307-1.22,5.382-3.184
		C267.162,73.834,266.071,70.1,263.106,68.475z"/>
	<path opacity="0.4" fill="#FFFFFF" d="M265.825,63.518c-5.707-3.129-12.871-1.037-15.996,4.67
		c-3.133,5.706-1.043,12.869,4.666,15.998c5.707,3.131,12.871,1.039,16-4.666C273.624,73.811,271.535,66.649,265.825,63.518z
		 M267.074,77.643c-2.092,3.819-6.884,5.219-10.704,3.123c-3.819-2.094-5.218-6.887-3.123-10.703
		c2.093-3.818,6.884-5.217,10.701-3.125C267.771,69.033,269.167,73.827,267.074,77.643z"/>
</g>
<g>
	<path fill="none" d="M283.559,49.917c-1.567,0-3.059,0.592-4.2,1.668c-1.194,1.122-1.878,2.641-1.928,4.279
		s0.542,3.195,1.664,4.388c1.171,1.244,2.757,1.929,4.466,1.929c1.567,0,3.059-0.592,4.201-1.667
		c2.461-2.319,2.58-6.208,0.262-8.667C286.854,50.603,285.268,49.917,283.559,49.917z"/>
	<path opacity="0.4" fill="#FFFFFF" d="M292.143,47.972c-4.461-4.739-11.918-4.968-16.66-0.505
		c-4.739,4.459-4.965,11.921-0.504,16.657c4.461,4.742,11.92,4.97,16.66,0.508C296.377,60.169,296.604,52.713,292.143,47.972z
		 M288.963,61.792c-3.168,2.984-8.16,2.833-11.144-0.338c-2.984-3.173-2.834-8.16,0.335-11.145
		c3.175-2.988,8.164-2.836,11.148,0.336C292.287,53.817,292.139,58.804,288.963,61.792z"/>
</g>
<g>
	<path fill="none" d="M273.832,22.204c-0.906,0-1.785,0.198-2.612,0.588c-1.482,0.7-2.603,1.934-3.155,3.476
		s-0.472,3.207,0.229,4.689c1.006,2.136,3.184,3.515,5.548,3.515c0.907,0,1.786-0.198,2.614-0.588
		c3.056-1.444,4.37-5.104,2.928-8.16C278.374,23.585,276.195,22.204,273.832,22.204z"/>
	<path opacity="0.4" fill="#FFFFFF" d="M284.496,23.308c-2.78-5.887-9.803-8.405-15.689-5.628c-5.886,2.778-8.406,9.801-5.628,15.69
		c2.778,5.884,9.802,8.405,15.687,5.624C284.753,36.218,287.273,29.195,284.496,23.308z M277.202,35.468
		c-3.936,1.857-8.636,0.173-10.493-3.761c-1.861-3.942-0.174-8.641,3.764-10.5c3.938-1.857,8.636-0.175,10.495,3.766
		C282.828,28.912,281.141,33.61,277.202,35.468z"/>
</g>
<g>
	<path fill="none" d="M244.485,22.827c-0.259,0-0.521,0.017-0.784,0.05c-1.626,0.208-3.074,1.035-4.077,2.331
		s-1.441,2.904-1.234,4.528c0.423,3.312,3.469,5.741,6.86,5.306c1.625-0.207,3.072-1.034,4.075-2.33
		c1.002-1.295,1.44-2.903,1.233-4.526C250.169,25.131,247.559,22.827,244.485,22.827z"/>
	<path opacity="0.4" fill="#FFFFFF" d="M256.164,27.471c-0.821-6.459-6.721-11.025-13.18-10.202
		c-6.456,0.822-11.021,6.726-10.2,13.18c0.824,6.458,6.724,11.025,13.184,10.202C252.42,39.829,256.988,33.925,256.164,27.471z
		 M245.476,36.781c-4.324,0.553-8.271-2.505-8.823-6.824c-0.551-4.32,2.502-8.268,6.826-8.817c4.32-0.553,8.266,2.505,8.816,6.824
		C252.846,32.284,249.792,36.229,245.476,36.781z"/>
</g>
<g>
	<path fill="none" d="M245.967,40.651c6.454-0.823,11.021-6.726,10.197-13.18c-0.821-6.459-6.721-11.025-13.18-10.202
		c-6.456,0.822-11.021,6.726-10.2,13.18C233.607,36.907,239.507,41.474,245.967,40.651z M236.653,29.957
		c-0.551-4.32,2.502-8.268,6.826-8.817c4.32-0.553,8.266,2.505,8.816,6.824c0.551,4.32-2.502,8.266-6.819,8.817
		C241.152,37.333,237.205,34.275,236.653,29.957z"/>
	<path fill="none" d="M263.106,68.475c-0.902-0.495-1.919-0.757-2.941-0.757c-2.243,0-4.306,1.22-5.384,3.185
		c-1.624,2.966-0.534,6.701,2.429,8.325c0.904,0.494,1.923,0.756,2.946,0.756c2.244,0,4.307-1.22,5.382-3.184
		C267.162,73.834,266.071,70.1,263.106,68.475z"/>
	<path fill="none" d="M265.825,63.518c-5.707-3.129-12.871-1.037-15.996,4.67c-3.133,5.706-1.043,12.869,4.666,15.998
		c5.707,3.131,12.871,1.039,16-4.666C273.624,73.811,271.535,66.649,265.825,63.518z M267.074,77.643
		c-2.092,3.819-6.884,5.219-10.704,3.123c-3.819-2.094-5.218-6.887-3.123-10.703c2.093-3.818,6.884-5.217,10.701-3.125
		C267.771,69.033,269.167,73.827,267.074,77.643z"/>
	<path fill="none" d="M237.138,51.19c-0.379-0.072-0.766-0.108-1.148-0.108c-2.939,0-5.47,2.099-6.018,4.989
		c-0.628,3.323,1.561,6.54,4.881,7.171c0.379,0.071,0.766,0.108,1.148,0.108c2.94,0,5.472-2.101,6.02-4.994
		c0.306-1.608-0.034-3.24-0.957-4.594C240.142,52.409,238.747,51.495,237.138,51.19z"/>
	<path fill="none" d="M249.326,32.712c1.002-1.295,1.44-2.903,1.233-4.526c-0.39-3.055-3-5.359-6.074-5.359
		c-0.259,0-0.521,0.017-0.784,0.05c-1.626,0.208-3.074,1.035-4.077,2.331s-1.441,2.904-1.234,4.528
		c0.423,3.312,3.469,5.741,6.86,5.306C246.876,34.835,248.323,34.008,249.326,32.712z"/>
	<path fill="none" d="M273.841,34.472c0.907,0,1.786-0.198,2.614-0.588c3.056-1.444,4.37-5.104,2.928-8.16
		c-1.009-2.138-3.188-3.52-5.552-3.52c-0.906,0-1.785,0.198-2.612,0.588c-1.482,0.7-2.603,1.934-3.155,3.476
		s-0.472,3.207,0.229,4.689C269.299,33.092,271.477,34.472,273.841,34.472z"/>
	<path fill="none" d="M278.866,38.993c5.887-2.775,8.407-9.798,5.63-15.686c-2.78-5.887-9.803-8.405-15.689-5.628
		c-5.886,2.778-8.406,9.801-5.628,15.69C265.958,39.253,272.981,41.775,278.866,38.993z M270.472,21.207
		c3.938-1.857,8.636-0.175,10.495,3.766c1.861,3.939,0.174,8.637-3.766,10.495c-3.936,1.857-8.636,0.173-10.493-3.761
		C264.847,27.764,266.535,23.066,270.472,21.207z"/>
	<path fill="none" d="M283.559,49.917c-1.567,0-3.059,0.592-4.2,1.668c-1.194,1.122-1.878,2.641-1.928,4.279
		s0.542,3.195,1.664,4.388c1.171,1.244,2.757,1.929,4.466,1.929c1.567,0,3.059-0.592,4.201-1.667
		c2.461-2.319,2.58-6.208,0.262-8.667C286.854,50.603,285.268,49.917,283.559,49.917z"/>
	<path fill="none" d="M292.143,47.972c-4.461-4.739-11.918-4.968-16.66-0.505c-4.739,4.459-4.965,11.921-0.504,16.657
		c4.461,4.742,11.92,4.97,16.66,0.508C296.377,60.169,296.604,52.713,292.143,47.972z M288.963,61.792
		c-3.168,2.984-8.16,2.833-11.144-0.338c-2.984-3.173-2.834-8.16,0.335-11.145c3.175-2.988,8.164-2.836,11.148,0.336
		C292.287,53.817,292.139,58.804,288.963,61.792z"/>
	<path opacity="0.6" fill="#FFFFFF" d="M263.948,66.938c-3.817-2.092-8.608-0.693-10.701,3.125
		c-2.095,3.816-0.696,8.609,3.123,10.703c3.82,2.096,8.612,0.696,10.704-3.123C269.167,73.827,267.771,69.033,263.948,66.938z
		 M265.538,76.8c-1.076,1.964-3.138,3.184-5.382,3.184c-1.023,0-2.042-0.262-2.946-0.756c-2.963-1.624-4.053-5.359-2.429-8.325
		c1.078-1.965,3.141-3.185,5.384-3.185c1.022,0,2.039,0.262,2.941,0.757C266.071,70.1,267.162,73.834,265.538,76.8z"/>
	<path opacity="0.6" fill="#FFFFFF" d="M278.155,50.309c-3.169,2.984-3.319,7.972-0.335,11.145
		c2.984,3.171,7.976,3.322,11.144,0.338c3.176-2.987,3.323-7.975,0.34-11.146C286.319,47.473,281.33,47.321,278.155,50.309z
		 M287.763,60.514c-1.142,1.075-2.634,1.667-4.201,1.667c-1.709,0-3.295-0.685-4.466-1.929c-1.123-1.192-1.713-2.75-1.664-4.388
		s0.734-3.157,1.928-4.279c1.141-1.076,2.633-1.668,4.2-1.668c1.709,0,3.295,0.685,4.466,1.93
		C290.342,54.306,290.224,58.195,287.763,60.514z"/>
	<path opacity="0.6" fill="#FFFFFF" d="M298.625,60.577l-3.611-15.309l-13.52-4.063l8.019-11.57l-6.713-14.225l-15.676-1.296
		l-8.023,11.57l-8.546-11.231l-15.604,1.99l-6.075,14.506l8.607,11.315l-13.404,4.688l-2.931,15.455l11.92,10.261l13.338-4.661
		l0.312,14.011l13.793,7.562l13.442-8.167l-0.312-14.122l13.531,4.066L298.625,60.577z M268.807,17.679
		c5.886-2.777,12.909-0.258,15.689,5.628c2.777,5.887,0.257,12.911-5.63,15.686c-5.885,2.782-12.908,0.26-15.687-5.624
		C260.401,27.48,262.921,20.458,268.807,17.679z M232.783,30.449c-0.821-6.455,3.745-12.358,10.2-13.18
		c6.459-0.823,12.359,3.743,13.18,10.202c0.824,6.454-3.743,12.357-10.197,13.18C239.507,41.474,233.607,36.907,232.783,30.449z
		 M233.802,68.795c-6.396-1.215-10.596-7.379-9.385-13.775c1.213-6.395,7.38-10.598,13.775-9.381
		c6.394,1.208,10.597,7.376,9.383,13.77C246.364,65.806,240.197,70.007,233.802,68.795z M270.495,79.52
		c-3.129,5.705-10.294,7.797-16,4.666c-5.709-3.129-7.799-10.292-4.666-15.998c3.125-5.707,10.289-7.799,15.996-4.67
		C271.535,66.649,273.624,73.811,270.495,79.52z M259.934,59.481l-12.259,6.445l2.341-13.65l-10.973-9.859l14.761-1.8l5.343-12.866
		l6.917,12.866l14.396,1.134l-10.607,10.525l2.341,13.65L259.934,59.481z M274.979,64.124c-4.461-4.735-4.235-12.197,0.504-16.657
		c4.742-4.462,12.199-4.234,16.66,0.505c4.461,4.741,4.234,12.197-0.504,16.659C286.899,69.093,279.44,68.866,274.979,64.124z"/>
	<polygon opacity="0.1" fill="#FFFFFF" points="280.459,41.75 266.063,40.617 259.147,27.75 253.804,40.617 239.043,42.417 
		250.016,52.276 247.674,65.926 259.934,59.481 272.193,65.926 269.852,52.276 	"/>
	<path opacity="0.6" fill="#FFFFFF" d="M277.202,35.468c3.939-1.858,5.626-6.556,3.766-10.495
		c-1.859-3.941-6.557-5.624-10.495-3.766c-3.938,1.859-5.625,6.558-3.764,10.5C268.565,35.641,273.266,37.325,277.202,35.468z
		 M268.064,26.268c0.553-1.542,1.673-2.776,3.155-3.476c0.827-0.39,1.706-0.588,2.612-0.588c2.363,0,4.542,1.382,5.552,3.52
		c1.441,3.056,0.128,6.716-2.928,8.16c-0.828,0.391-1.707,0.588-2.614,0.588c-2.364,0-4.542-1.379-5.548-3.515
		C267.593,29.475,267.512,27.809,268.064,26.268z"/>
	<path opacity="0.6" fill="#FFFFFF" d="M252.295,27.963c-0.55-4.319-4.496-7.376-8.816-6.824c-4.323,0.549-7.376,4.497-6.826,8.817
		c0.552,4.319,4.499,7.377,8.823,6.824C249.792,36.229,252.846,32.284,252.295,27.963z M238.391,29.736
		c-0.207-1.625,0.231-3.233,1.234-4.528s2.451-2.123,4.077-2.331c0.263-0.033,0.525-0.05,0.784-0.05
		c3.073,0,5.684,2.304,6.074,5.359c0.207,1.624-0.231,3.231-1.233,4.526c-1.003,1.295-2.45,2.123-4.075,2.33
		C241.86,35.477,238.814,33.048,238.391,29.736z"/>
	<path opacity="0.6" fill="#FFFFFF" d="M237.466,49.47c-4.279-0.812-8.405,1.995-9.216,6.276c-0.814,4.281,2,8.403,6.278,9.216
		c4.276,0.81,8.403-1.999,9.218-6.28C244.553,54.404,241.745,50.279,237.466,49.47z M242.021,58.356
		c-0.548,2.894-3.079,4.994-6.02,4.994c-0.383,0-0.77-0.037-1.148-0.108c-3.32-0.631-5.51-3.848-4.881-7.171
		c0.548-2.891,3.079-4.989,6.018-4.989c0.382,0,0.769,0.037,1.148,0.108c1.609,0.305,3.003,1.219,3.926,2.572
		C241.987,55.116,242.327,56.748,242.021,58.356z"/>
	<path opacity="0.4" fill="#FFFFFF" d="M238.192,45.639c-6.396-1.217-12.562,2.986-13.775,9.381
		c-1.211,6.396,2.989,12.561,9.385,13.775c6.396,1.212,12.562-2.989,13.774-9.387C248.789,53.015,244.586,46.847,238.192,45.639z
		 M243.746,58.682c-0.814,4.281-4.942,7.09-9.218,6.28c-4.278-0.812-7.093-4.935-6.278-9.216c0.811-4.281,4.937-7.089,9.216-6.276
		C241.745,50.279,244.553,54.404,243.746,58.682z"/>
</g>
</svg>
