<?xml version="1.0" encoding="utf-8"?>
<!-- Generator: Adobe Illustrator 17.1.0, SVG Export Plug-In . SVG Version: 6.00 Build 0)  -->
<!DOCTYPE svg PUBLIC "-//W3C//DTD SVG 1.1//EN" "http://www.w3.org/Graphics/SVG/1.1/DTD/svg11.dtd">
<svg version="1.1" id="Layer_1" xmlns="http://www.w3.org/2000/svg" xmlns:xlink="http://www.w3.org/1999/xlink" x="0px" y="0px"
	 viewBox="0 0 519 215.3" enable-background="new 0 0 519 215.3" xml:space="preserve">
<path fill="#B6CFD3" d="M419.5,123.3l-4.5-61.9l-3.4,18.1l-3.9-17.9l-4.1,22l-4-28.5l-3.3,14.1l-4.4-8.5l-4.1,6.7l-2.8-8.8
	l-4.7,13.2l-4-10.9l-4,9.7l-3.6-12.6l-4.4,19.6l-2.9-27.8l-4,46.4l-3-44.1l-3.7,54.4L346,41.8l-4.1,70.6l-4.4-74.1l-4.3,72.3
	l-4.5-56.5l-4.3,32L321,55.6l-4.6,41.2L313,49.6l-3,45.3l-4-37.7l-3.8,44.3L297.7,50l-3.7,58.7l-4.2-62.2l-3.4,70.3l-5.3-72.4
	l-2.3,60l-5-42.5l-3.7,14.8l-3.8-18.6l-4,22.6l-4-22.5l-3.7,17.1l-4.2-14.6l-3.8,9.8l-3.4-8.6l-4.4,35.8l-5-40.7
	c-0.1-0.5,0.3-1,0.9-1.1c0.6-0.1,1.1,0.3,1.1,0.9l3,24.5l3.3-27.3l4.4,11.1l4.1-10.6l3.7,12.7l4.2-19.3l3.8,21.3l3.9-22l4.1,20.3
	l4.2-16.8l3.2,27.8l2.7-69.8l5.5,75l3.5-72.3l4.4,66.2l3.4-54.4l4.8,54.9l3.6-42l3.8,35.4l3.4-51.2l3.9,54.5l4.2-37.5l3.5,32.2
	l4.7-34.4l3.7,46.2l4.6-76.9l4.4,73.8l4-68.2l4.6,67l3.7-54.6l3.2,47.6l3.6-41.3l3.9,36.5l3.5-15.4l4.2,14.7l3.8-9.1l3.9,10.5
	l4.8-13.6l3.3,10.3l3.7-6.1l3.5,6.8l4.5-19.2l3.8,27l3.7-19.7l3.9,17.9l4.4-23.7l3.4,46.8l4-67.7l3.7,57.3l3.8-62l4,57.4l4.5-43.2
	l4.1,33.2l3.4-21.4l4.5,22.2l3.5-37l3.4,34l3.8-49.5l4.8,47.8l3.4-41.4l4,43.1l3.9-33.7l4.3,37l3.3-18.4l3.9,26.7l4.8-27.3l4.6,19.4
	l3.6-23.4l5.3,17.9l3.5-9l5.3,14.7c0.2,0.5-0.1,1.1-0.6,1.3c-0.5,0.2-1.1-0.1-1.3-0.6l-3.4-9.6l-3.6,9.5l-4.5-15l-3.8,24.8l-4.8-20
	l-5.2,30l-4-27l-3.6,19.7L478.2,49L474,84.7l-3.7-39.6L467,85.5l-4.7-47.1l-3.9,49.6l-3.6-35.9L452,82l-5-24.6L443,81.9l-3.6-29.6
	l-5.1,48.6L430.9,51l-3.9,63.3l-3.6-56.6L419.5,123.3L419.5,123.3z"/>
<path fill="#E6E5DF" d="M235,55.3c-1.1-0.8-2.7-0.5-3.4,0.6l-20.9,30.7c-1.5-0.7-3.2-1-5-1c-7.1,0-12.8,5.7-12.8,12.8
	s5.7,12.8,12.8,12.8c7.1,0,12.8-5.7,12.8-12.8c0-3.5-1.4-6.7-3.7-9l20.9-30.7C236.4,57.6,236.1,56.1,235,55.3z"/>
<circle fill="#C0BFB0" cx="205.8" cy="98.4" r="12.8"/>
<path fill="#47443C" d="M7,93.2h39c0.4,0,11.1,0,16.8,2.2c13.9,5.2,15.1,18.8,15.1,23.7c0,10.1-4.4,18.8-13.2,23.4
	c-5.9,3.1-15.2,3.1-16.6,3.1H34.8V166c0,4.1,0.6,5.3,5.9,5.3h3.9v11.5H7v-11.5h3.1c5.3,0,5.7-1.8,5.7-5.9v-54.5c0-4.3,0-6.2-5.7-6.2
	H7V93.2z M34.8,132.5h8.8c10.5,0,15.6-3.9,15.6-13.4c0-12.7-10.7-12.7-15-12.7h-9.4V132.5z"/>
<path fill="#47443C" d="M110.5,185c-27.1,0-31.4-22.1-31.4-32.4c0-14.3,6.5-35.2,32.8-35.2c22.5,0,32.1,14.6,32.1,31.9
	C144.1,166.9,135.6,185,110.5,185z M111.7,130.3c-12.4,0-13.4,16-13.4,21.6c0,2.2,0.1,20.1,13.6,20.1c11.4,0,13-13.3,13-21.7
	C124.8,146.8,124.8,130.3,111.7,130.3z"/>
<path fill="#47443C" d="M176.3,164.4c0,7.7,0,7.9,7.2,7.9v10.6h-33.8v-10.6h2.6c5,0,5-1,5-8.1v-53.2c0-5.5,0-7.9-4.8-7.9H149V92.7
	l27.4-2.2V164.4z"/>
<path fill="#47443C" d="M217.3,164.4c0,7.7,0,7.9,7.1,7.9v10.6h-34.1v-10.6h3.2c4.9,0,4.9-1,4.9-8.1V141c0-8.1,0-9.7-3.9-9.7
	c-1.3,0-1.7,0-4.6,0.1V121l27.4-2.5V164.4z"/>
<path fill="#47443C" d="M294.7,131.2h-9.8c1.3,2.2,3.2,5.5,3.2,11.5c0,8-4.1,13.9-9.8,17.4c-4.9,3-10.6,3.6-16.3,3.9
	c-5.3,0.3-10.8,0.5-10.8,4.4c0,3.4,6.6,4,9.7,4c1,0.1,6.3,0.3,7.2,0.3c16.6,0.4,27,4.6,27,17.6c0,22.7-28.8,22.7-35.9,22.7
	c-14.5,0-31.9-2.1-31.9-15.4c0-10.6,11.2-12.8,15.1-13.4v-0.3c-3.1-0.9-8.9-3-8.9-9.8c0-7.1,6.8-10.8,12.6-12.6v-0.3
	c-7.7-2.8-13.8-8.9-13.8-19.7c0-12.3,8.1-24,28.1-24c7.2,0,11.2,1.5,12.9,2.2h21.3V131.2z M245.1,194.9c0,6.8,13.2,7.1,16.5,7.1
	c6.5,0,16.8-1.3,16.8-7.6c0-5.6-10.1-6.1-16.7-6.1C258.4,188.4,245.1,188.4,245.1,194.9z M250.7,141.4c0,5.3,2.2,12.9,9.6,12.9
	c4.1,0,9.8-2.5,9.8-13.8c0-4.1-0.6-13.8-9.6-13.8C250.8,126.7,250.7,139.1,250.7,141.4z"/>
<path fill="#47443C" d="M325.8,119.3c0.5,2.3,1.2,4.8,1.3,10.8h0.3c1.4-2.7,6.7-11.6,16.9-11.6c3.7,0,6.2,1.2,7.9,1.8V140h-11.7
	c0-2.2,0-4.8-3.1-4.8c-2.8,0-10.1,3.1-10.1,21.4v10.8c0,3.5,0.5,4.8,5.2,4.8h3.4v10.6h-34.3v-10.6h1.9c4.8,0,5.6-1,5.6-5.6v-29.8
	c0-4-0.6-5.3-4-5.3h-4v-10.5L325.8,119.3z"/>
<path fill="#47443C" d="M360.7,125.2c8-5,17.3-7.5,26.6-7.5c22.7,0,25.4,12.5,25.4,22.5v23c0,5.2,0.8,7.6,3.9,7.6
	c1.8,0,3.5-0.8,4.5-1.2v11.1c-7.4,3.5-13.8,3.9-15.5,3.9c-3.5,0-8.4-0.9-10.6-7.5c-3,2.4-8.8,7.5-19,7.5c-10.5,0-20.5-4.3-20.5-18.1
	c0-13.3,11.4-18.1,16.8-19.6c4.3-1.3,11.5-3.4,12.6-3.6l9-2.1c0-5.2-0.4-12.4-9.8-12.4c-8.9,0-8.9,4.9-8.9,9.9v1.7h-14.6V125.2z
	 M394,151.2c-12.3,3.4-20,5.8-20,13.7c0,4.5,3.1,8.4,8.4,8.4c1.9,0,4-0.6,5.7-1.7c2.5-1.4,5.9-4,5.9-13.3V151.2z"/>
<path fill="#47443C" d="M455.2,164.4c0,7.2,0,7.9,6.2,7.9h2.6v10.6h-36.5v-10.6h3.4c5,0,5-1,5-8.1V133h-8.4v-13.4h8.4v-3.9
	c0-14.7,7.2-25.2,24.8-25.2c8.5,0,13.8,1.9,17.6,3.4v15.7h-10.6c0-3.6,0-7.6-5.3-7.6c-7.1,0-7.1,7.7-7.1,12.5v5h12.3V133h-12.3
	V164.4z"/>
<path fill="#47443C" d="M500.1,99.8v19.8h15.2V133h-15.2v26.1c0,4,0,10.1,6.2,10.1c3.2,0,7-1.5,9.4-2.5v13.2
	c-8.5,4.4-15.6,4.4-18.1,4.4c-17,0-17-13.4-17-19.1V133h-7.7v-11.1c13.8-4.4,15.1-17.3,15.6-22.1H500.1z"/>
</svg>
