<?xml version="1.0" encoding="utf-8"?>
<!-- Generator: Adobe Illustrator 17.1.0, SVG Export Plug-In . SVG Version: 6.00 Build 0)  -->
<!DOCTYPE svg PUBLIC "-//W3C//DTD SVG 1.1//EN" "http://www.w3.org/Graphics/SVG/1.1/DTD/svg11.dtd">
<svg version="1.1" id="Layer_1" xmlns="http://www.w3.org/2000/svg" xmlns:xlink="http://www.w3.org/1999/xlink" x="0px" y="0px"
	 viewBox="0 0 717.7 154.6" enable-background="new 0 0 717.7 154.6" xml:space="preserve">
<pattern  x="-27.3" y="-228.4" width="72" height="72" patternUnits="userSpaceOnUse" id="New_Pattern_Swatch_2" viewBox="24 -72 72 72" overflow="visible">
	<g>
		<polygon fill="none" points="24,0 24,-72 96,-72 96,0 		"/>
		<line fill="none" stroke="#2C2C2C" stroke-width="4" x1="23.8" y1="-22" x2="96.2" y2="-22"/>
		<line fill="none" stroke="#2C2C2C" stroke-width="4" x1="23.8" y1="-50" x2="96.2" y2="-50"/>
		<line fill="none" stroke="#2C2C2C" stroke-width="4" x1="0" y1="-50" x2="16.5" y2="-50"/>
		<line fill="none" stroke="#2C2C2C" stroke-width="4" x1="23.8" y1="-8" x2="96.2" y2="-8"/>
		<line fill="none" stroke="#2C2C2C" stroke-width="4" x1="23.8" y1="-36" x2="96.2" y2="-36"/>
		<line fill="none" stroke="#2C2C2C" stroke-width="4" x1="23.8" y1="-64" x2="96.2" y2="-64"/>
		<line fill="none" stroke="#2C2C2C" stroke-width="4" x1="0" y1="-64" x2="16.5" y2="-64"/>
	</g>
</pattern>
<pattern  x="-27.3" y="-228.4" width="48" height="48" patternUnits="userSpaceOnUse" id="New_Pattern_Swatch_3" viewBox="56.4 -60 48 48" overflow="visible">
	<g>
		<polygon fill="none" points="56.4,-12 56.4,-60 104.4,-60 104.4,-12 		"/>
		<path fill="#2C2C2C" d="M56.4-3.6c4.6,0,8.4-3.8,8.4-8.4c0-4.6-3.8-8.4-8.4-8.4c-4.6,0-8.4,3.8-8.4,8.4C48-7.4,51.8-3.6,56.4-3.6z
			"/>
		<path fill="#2C2C2C" d="M80.4-3.6c4.6,0,8.4-3.8,8.4-8.4c0-4.6-3.8-8.4-8.4-8.4c-4.6,0-8.4,3.8-8.4,8.4C72-7.4,75.8-3.6,80.4-3.6z
			"/>
		<path fill="#2C2C2C" d="M104.4-3.6c4.6,0,8.4-3.8,8.4-8.4c0-4.6-3.8-8.4-8.4-8.4c-4.6,0-8.4,3.8-8.4,8.4
			C96-7.4,99.8-3.6,104.4-3.6z"/>
		<path fill="#2C2C2C" d="M56.4-27.6c4.6,0,8.4-3.8,8.4-8.4c0-4.6-3.8-8.4-8.4-8.4c-4.6,0-8.4,3.8-8.4,8.4
			C48-31.4,51.8-27.6,56.4-27.6z"/>
		<path fill="#2C2C2C" d="M80.4-27.6c4.6,0,8.4-3.8,8.4-8.4c0-4.6-3.8-8.4-8.4-8.4c-4.6,0-8.4,3.8-8.4,8.4
			C72-31.4,75.8-27.6,80.4-27.6z"/>
		<path fill="#2C2C2C" d="M104.4-27.6c4.6,0,8.4-3.8,8.4-8.4c0-4.6-3.8-8.4-8.4-8.4c-4.6,0-8.4,3.8-8.4,8.4
			C96-31.4,99.8-27.6,104.4-27.6z"/>
		<path fill="#2C2C2C" d="M56.4-51.6c4.6,0,8.4-3.8,8.4-8.4c0-4.6-3.8-8.4-8.4-8.4c-4.6,0-8.4,3.8-8.4,8.4
			C48-55.4,51.8-51.6,56.4-51.6z"/>
		<path fill="#2C2C2C" d="M80.4-51.6c4.6,0,8.4-3.8,8.4-8.4c0-4.6-3.8-8.4-8.4-8.4c-4.6,0-8.4,3.8-8.4,8.4
			C72-55.4,75.8-51.6,80.4-51.6z"/>
		<path fill="#2C2C2C" d="M104.4-51.6c4.6,0,8.4-3.8,8.4-8.4c0-4.6-3.8-8.4-8.4-8.4c-4.6,0-8.4,3.8-8.4,8.4
			C96-55.4,99.8-51.6,104.4-51.6z"/>
		<path fill="#2C2C2C" d="M8.4-51.6c4.6,0,8.4-3.8,8.4-8.4c0-4.6-3.8-8.4-8.4-8.4C3.8-68.4,0-64.6,0-60C0-55.4,3.8-51.6,8.4-51.6z"
			/>
		<path fill="#2C2C2C" d="M8.4-60"/>
		<path fill="#2C2C2C" d="M116.4-32.4c-4.6,0-8.4,3.8-8.4,8.4c0,4.6,3.8,8.4,8.4,8.4V-32.4z"/>
		<path fill="#2C2C2C" d="M92.4-15.6c4.6,0,8.4-3.8,8.4-8.4c0-4.6-3.8-8.4-8.4-8.4c-4.6,0-8.4,3.8-8.4,8.4
			C84-19.4,87.8-15.6,92.4-15.6z"/>
		<path fill="#2C2C2C" d="M68.4-15.6c4.6,0,8.4-3.8,8.4-8.4c0-4.6-3.8-8.4-8.4-8.4c-4.6,0-8.4,3.8-8.4,8.4
			C60-19.4,63.8-15.6,68.4-15.6z"/>
		<path fill="#2C2C2C" d="M44.4-15.6c4.6,0,8.4-3.8,8.4-8.4c0-4.6-3.8-8.4-8.4-8.4V-15.6z"/>
		<path fill="#2C2C2C" d="M116.4-56.4c-4.6,0-8.4,3.8-8.4,8.4c0,4.6,3.8,8.4,8.4,8.4V-56.4z"/>
		<path fill="#2C2C2C" d="M92.4-39.6c4.6,0,8.4-3.8,8.4-8.4c0-4.6-3.8-8.4-8.4-8.4c-4.6,0-8.4,3.8-8.4,8.4
			C84-43.4,87.8-39.6,92.4-39.6z"/>
		<path fill="#2C2C2C" d="M68.4-39.6c4.6,0,8.4-3.8,8.4-8.4c0-4.6-3.8-8.4-8.4-8.4c-4.6,0-8.4,3.8-8.4,8.4
			C60-43.4,63.8-39.6,68.4-39.6z"/>
		<path fill="#2C2C2C" d="M44.4-39.6c4.6,0,8.4-3.8,8.4-8.4c0-4.6-3.8-8.4-8.4-8.4V-39.6z"/>
		<path fill="#2C2C2C" d="M84-72c0,4.6,3.8,8.4,8.4,8.4c4.6,0,8.4-3.8,8.4-8.4H84z"/>
		<path fill="#2C2C2C" d="M60-72c0,4.6,3.8,8.4,8.4,8.4c4.6,0,8.4-3.8,8.4-8.4H60z"/>
		<path fill="#2C2C2C" d="M100.8,0c0-4.6-3.8-8.4-8.4-8.4C87.8-8.4,84-4.6,84,0H100.8z"/>
		<path fill="#2C2C2C" d="M76.8,0c0-4.6-3.8-8.4-8.4-8.4C63.8-8.4,60-4.6,60,0H76.8z"/>
		<path fill="#2C2C2C" d="M20.4-39.6c4.6,0,8.4-3.8,8.4-8.4c0-4.6-3.8-8.4-8.4-8.4c-4.6,0-8.4,3.8-8.4,8.4
			C12-43.4,15.8-39.6,20.4-39.6z"/>
		<path fill="#2C2C2C" d="M20.4-48"/>
	</g>
</pattern>
<pattern  x="-27.3" y="-228.4" width="28.8" height="28.8" patternUnits="userSpaceOnUse" id="New_Pattern_Swatch_4" viewBox="16.6 -31 28.8 28.8" overflow="visible">
	<g>
		<polygon fill="none" points="16.6,-2.2 16.6,-31 45.4,-31 45.4,-2.2 		"/>
		<path fill="#2C2C2C" d="M45.4,0c1.2,0,2.2-1,2.2-2.2c0-1.2-1-2.2-2.2-2.2c-1.2,0-2.2,1-2.2,2.2C43.2-1,44.2,0,45.4,0z"/>
		<path fill="#2C2C2C" d="M31,0c1.2,0,2.2-1,2.2-2.2c0-1.2-1-2.2-2.2-2.2c-1.2,0-2.2,1-2.2,2.2C28.8-1,29.8,0,31,0z"/>
		<path fill="#2C2C2C" d="M16.6,0c1.2,0,2.2-1,2.2-2.2c0-1.2-1-2.2-2.2-2.2c-1.2,0-2.2,1-2.2,2.2C14.4-1,15.4,0,16.6,0z"/>
		<path fill="#2C2C2C" d="M45.4-14.4c1.2,0,2.2-1,2.2-2.2c0-1.2-1-2.2-2.2-2.2c-1.2,0-2.2,1-2.2,2.2C43.2-15.4,44.2-14.4,45.4-14.4z
			"/>
		<path fill="#2C2C2C" d="M31-14.4c1.2,0,2.2-1,2.2-2.2c0-1.2-1-2.2-2.2-2.2c-1.2,0-2.2,1-2.2,2.2C28.8-15.4,29.8-14.4,31-14.4z"/>
		<path fill="#2C2C2C" d="M16.6-14.4c1.2,0,2.2-1,2.2-2.2c0-1.2-1-2.2-2.2-2.2c-1.2,0-2.2,1-2.2,2.2C14.4-15.4,15.4-14.4,16.6-14.4z
			"/>
		<path fill="#2C2C2C" d="M45.4-28.8c1.2,0,2.2-1,2.2-2.2c0-1.2-1-2.2-2.2-2.2c-1.2,0-2.2,1-2.2,2.2C43.2-29.8,44.2-28.8,45.4-28.8z
			"/>
		<path fill="#2C2C2C" d="M31-28.8c1.2,0,2.2-1,2.2-2.2c0-1.2-1-2.2-2.2-2.2c-1.2,0-2.2,1-2.2,2.2C28.8-29.8,29.8-28.8,31-28.8z"/>
		<path fill="#2C2C2C" d="M16.6-28.8c1.2,0,2.2-1,2.2-2.2c0-1.2-1-2.2-2.2-2.2c-1.2,0-2.2,1-2.2,2.2C14.4-29.8,15.4-28.8,16.6-28.8z
			"/>
		<path fill="#2C2C2C" d="M2.2-28.8c1.2,0,2.2-1,2.2-2.2c0-1.2-1-2.2-2.2-2.2C1-33.1,0-32.2,0-31C0-29.8,1-28.8,2.2-28.8z"/>
		<path fill="#2C2C2C" d="M2.2-31"/>
	</g>
</pattern>
<g>
	<g>
		<path fill="#2C2C2C" d="M189.4,32c0.1,0.6,0.2,1.2,0.3,1.7l0.2,1.4c0.2,1.1,1,2,2.2,2.2c0.6,0.1,1.8,0.3,3.1,0.5
			c-1.3,0.6-2.4,1.2-2.8,1.4c-1,0.5-1.6,1.6-1.4,2.8c0.1,0.6,0.3,1.8,0.5,3.1c-0.9-0.9-1.7-1.7-2.2-2.2c-0.5-0.5-1.2-0.8-1.8-0.8
			c-0.4,0-0.8,0.1-1.2,0.3l-0.3,0.2c-0.6,0.3-1.5,0.8-2.5,1.3c0.6-1.2,1.2-2.4,1.5-2.9c0.5-1,0.3-2.1-0.5-2.9
			c-0.4-0.4-1.3-1.4-2.3-2.3c1.3,0.2,2.5,0.4,3.2,0.5c0.1,0,0.3,0,0.4,0c0.9,0,1.8-0.5,2.2-1.4l0.9-1.8
			C189,32.7,189.2,32.4,189.4,32 M190.2,26.5c-0.1,0-0.3,0.1-0.4,0.3c-0.2,0.4-2.9,5.6-3.6,7.1c-0.1,0.2-0.3,0.3-0.5,0.3
			c0,0-0.1,0-0.1,0c-1.5-0.2-6.9-1.1-8-1.3c-0.1,0-0.1,0-0.2,0c-0.5,0-0.5,0.4-0.2,0.7c0.3,0.3,4.5,4.6,5.7,5.7
			c0.2,0.2,0.2,0.4,0.1,0.6c-0.7,1.4-3.5,6.7-3.7,7.2c-0.2,0.4-0.1,0.6,0.2,0.6c0.1,0,0.2,0,0.3-0.1c1-0.5,5.7-2.9,7.1-3.6
			c0.1-0.1,0.2-0.1,0.3-0.1c0.2,0,0.3,0.1,0.4,0.2c1.1,1.1,4.8,4.8,5.6,5.6c0.1,0.1,0.3,0.2,0.4,0.2c0.2,0,0.4-0.2,0.3-0.7
			c-0.1-0.5-0.9-6.1-1.2-7.7c0-0.3,0.1-0.6,0.3-0.7c1.5-0.8,6.6-3.4,7.1-3.6c0.6-0.3,0.5-0.7-0.1-0.8c-0.5-0.1-6.2-1-7.8-1.3
			c-0.3,0-0.5-0.2-0.5-0.5c-0.2-1.5-1-6.6-1.2-7.9C190.6,26.7,190.4,26.5,190.2,26.5L190.2,26.5z"/>
	</g>
	<path fill="none" stroke="#2C2C2C" stroke-width="1.1333" stroke-miterlimit="10" d="M251.5,41.3c-0.3-0.2-3.6-2.4-4.6-3.1
		c-0.2-0.1-0.2-0.3-0.2-0.5c0.3-1.1,1.2-4.5,1.5-5.3c0.1-0.4-0.2-0.5-0.5-0.3c-0.3,0.2-3.5,2.7-4.4,3.5c-0.1,0.1-0.3,0.1-0.5,0
		c-0.9-0.6-4-2.7-4.7-3.1c-0.4-0.2-0.5,0-0.4,0.3c0.1,0.3,1.6,4.2,2,5.3c0.1,0.2,0,0.3-0.1,0.4c-0.9,0.7-4.1,3.3-4.4,3.5
		c-0.3,0.3-0.2,0.5,0.2,0.5c0.8,0,4.4-0.2,5.6-0.2c0.2,0,0.4,0.1,0.5,0.3c0.4,1,1.6,4.4,1.9,5.2c0.1,0.4,0.5,0.4,0.6-0.1
		c0.1-0.4,1.2-4.1,1.5-5.3c0.1-0.2,0.2-0.3,0.4-0.3c1.2-0.1,5.2-0.2,5.5-0.2C251.8,41.8,251.9,41.5,251.5,41.3z"/>
	<polygon fill="none" stroke="#2C2C2C" stroke-width="1.69" stroke-miterlimit="10" points="225.2,14.9 224.9,6.6 217.4,10.1 
		209.4,7.8 210.4,16 205.7,22.9 213.9,24.5 219,31.1 223,23.8 230.8,21 	"/>
	<g>
		<path fill="#2C2C2C" d="M211.9,37.4l7.3,4.2l8.4-0.3l-1.7,8.3l2.9,7.9l-8.4,1l-6.6,5.2l-3.5-7.7l-7-4.7l6.2-5.7L211.9,37.4
			 M210.8,34.9l-0.6,2.1l-2.2,7.7l-5.9,5.4l-1.6,1.5l1.8,1.2l6.6,4.4l3.3,7.2l0.9,2l1.7-1.3l6.2-4.9l7.9-0.9l2.1-0.2l-0.7-2
			l-2.8-7.5l1.6-7.8l0.4-2.1l-2.2,0.1l-8,0.3l-6.9-3.9L210.8,34.9L210.8,34.9z"/>
	</g>
	<g>
		<path fill="#2C2C2C" d="M47,24.3c-3.9,6.8-4.8,17.9-6.2,28.3c7.9-1,13.1-9.9,13.1-18.6c0-8.5-5.1-16.8-18-16.8
			c-13.2,0-19.4,10.1-19.4,18.7c0,6.5,3.5,12.3,10.1,12.3c0.9,0,1.7-0.1,2.4-0.3l0.9,5c-1.1,0.4-2.3,0.6-3.6,0.6
			c-9.5,0-14.6-7.7-14.6-16.4c0-10.7,7.9-22.7,24.8-22.7c15.8,0,22.6,9.8,22.6,19.8c0,10.4-7.2,21.1-18.9,21.5
			c-1.9,12.7-4.9,23.8-15.5,23.8c-6.7,0-10.4-3.9-10.4-9.8c0-4.7,3.2-9.3,9.1-9.5v4.7c-3,0.3-4.9,3.2-4.9,5.9c0,3.8,2.8,5.8,6.1,5.8
			c14.9,0,7.5-36.5,17.1-54.1L47,24.3z"/>
		<path fill="#2C2C2C" d="M78,53c-1.3,3.5-3.9,5.9-6.7,6.9c-2,4.2-4.9,6.7-8.6,6.7c-4,0-5.7-4.2-5.7-9.4c0-3.2,0.6-6.9,1.8-10.3
			l2.1,0.5c0.6-4.5,3.1-8.3,7.2-8.3c3.9,0,5.9,4.5,5.9,9.7c0,2.8-0.7,5.8-1.4,8.3c1.5-0.7,2.9-2.1,3.9-4.9C76.8,52.2,78,52.7,78,53z
			 M66.1,60c-2.4-0.9-4-3.2-4.8-6c-0.1,0.9-0.2,1.7-0.2,2.5c0,3.4,0.9,5.8,2.4,5.8c0.2,0,0.3,0,0.5-0.1C64.7,61.9,65.4,61.1,66.1,60
			z M63.8,50.7c0,3.1,0.9,6.1,3.5,6.9c1.3-3.1,2.1-7.1,2.1-10.2c0-2.6-0.6-4.6-2.3-4.6c-0.1,0-0.3,0.1-0.4,0.1
			C65.1,43.2,63.8,47,63.8,50.7z"/>
		<path fill="#2C2C2C" d="M89.5,52.2c0.3,0,1.4,0.5,1.4,0.8c0,0.1,0,0.1,0,0.1c-3.4,9.3-6.1,13.6-9.8,13.6c-3.5,0-4.9-3.4-4.9-9.4
			c0-4.2,0.7-9.8,1.8-16.4c2.6-14.5,6.2-21.1,9.6-21.1c3,0,3.9,2.4,3.9,5.4c0,3.4-1.2,7.5-1.7,9.3c-2.4,7.6-6.2,13.2-8.6,16.1
			c-0.3,2.5-0.5,4.7-0.5,6.6c0,3.9,0.9,5.1,2.2,5.1C84.8,62.2,87,58.6,89.5,52.2z M88.4,23.7c-1.6,0-5,12.5-6.7,23.3
			c2.9-5.3,7.2-14.9,7.2-22C89,24.1,88.7,23.7,88.4,23.7z"/>
		<path fill="#2C2C2C" d="M97.1,39.7c-2,9-3.7,15.7-3.7,20.5c0,1.7,0.6,2,1.2,2c1.5,0,3.4-3.2,6-9.9c0.3,0,1.6,0.4,1.6,0.8V53
			c-2.5,6.6-4.6,13.3-9.3,13.3c-3.1,0-4.2-2.9-4.2-6.9c0-6.4,2.5-15.6,3.5-19.8H97.1z M92.9,33.4c0-2.1,1.5-4.6,4-4.6
			c1.9,0,2.7,1.4,2.7,3c0,2.1-1.5,4.5-4,4.5C93.8,36.3,92.9,34.9,92.9,33.4z"/>
		<path fill="#2C2C2C" d="M109.5,26c-0.3,4.7-0.9,9.1-1.9,13.8c0.9,0,1.7-0.1,2.3-0.1l-0.5,2.7c-0.2,0.1-1.3,0.1-2.4,0.1
			c-0.5,2.2-1.1,4.5-1.8,6.8c-0.6,4-0.9,7-0.9,9.1c0,2.4,0.4,3.7,1.2,3.7c1.6,0,3.8-5.4,5.6-9.9c0.3,0,1.6,0.5,1.6,0.8
			c-3.4,9.3-5.2,13.3-9,13.3c-2.5,0-3.6-3.1-3.6-8c0-4.2,0.6-9.9,2-15.8c-1.3,0-2.3,0-2.5-0.1l0.4-2.7c0.4,0,1.4,0.1,2.6,0.1
			c0.8-4,1.5-7.9,2.8-13.7H109.5z"/>
		<path fill="#2C2C2C" d="M118.7,39.7c-2,9-3.7,15.7-3.7,20.5c0,1.7,0.6,2,1.2,2c1.5,0,3.4-3.2,6-9.9c0.3,0,1.6,0.4,1.6,0.8V53
			c-2.5,6.6-4.6,13.3-9.3,13.3c-3.1,0-4.2-2.9-4.2-6.9c0-6.4,2.5-15.6,3.5-19.8H118.7z M114.5,33.4c0-2.1,1.5-4.6,4-4.6
			c1.9,0,2.7,1.4,2.7,3c0,2.1-1.5,4.5-4,4.5C115.4,36.3,114.5,34.9,114.5,33.4z"/>
		<path fill="#2C2C2C" d="M131.3,51c1.2-2,1.9-4.5,1.9-6.2c0-1.2-0.3-2-1.2-2c-3,0-5.6,6.9-5.6,12.4c0,3.6,1.2,6.7,4.1,6.7
			c2.8,0,5.9-3.1,8.4-9.5c0.3,0,1.6,0.5,1.6,0.8c-1.7,4.6-6.2,13.6-12.3,13.6c-4.5,0-6.5-4.6-6.5-10.1c0-7.9,4-17.4,10.5-17.4
			c3.3,0,4.6,2.7,4.6,6c0,2.5-0.8,5.3-1.9,7.8L131.3,51z"/>
		<path fill="#2C2C2C" d="M152.4,39.7h4.1c-1.7,7.7-2.8,13.9-3.6,19.7c-0.1,0.6-0.1,1.1-0.1,1.5c0,0.9,0.2,1.3,0.5,1.3
			c0.6,0,3.1-2.8,5.8-9.9c0.3,0,1.6,0.5,1.6,0.8c-3.5,9.3-6.4,13.3-9,13.3c-1.8,0-2.9-1.7-2.9-5.7c0-0.2,0-0.4,0-0.6
			c-1.3,3.5-3.4,6.6-6.7,6.6c-2.8,0-4-3.1-4-7.3c0-8.2,4.5-20.2,9.9-20.2c2.1,0,3.4,1.3,3.8,3.9L152.4,39.7z M142.9,58.7
			c0,1.8,0.3,3,1.2,3c2.7,0,6-9.4,6-14.8c0-2.1-0.5-3.6-1.8-3.6C145.8,43.3,142.9,53.4,142.9,58.7z"/>
		<path fill="#2C2C2C" d="M172.1,52.2c0.3,0,1.4,0.5,1.4,0.8c0,0.1,0,0.1,0,0.1c-3.4,9.3-6.1,13.6-9.8,13.6c-3.5,0-4.9-3.4-4.9-9.4
			c0-4.2,0.7-9.8,1.9-16.4c2.6-14.5,6.2-21.1,9.6-21.1c3,0,3.9,2.4,3.9,5.4c0,3.4-1.2,7.5-1.7,9.3c-2.4,7.6-6.2,13.2-8.6,16.1
			c-0.3,2.5-0.5,4.7-0.5,6.6c0,3.9,0.9,5.1,2.2,5.1C167.4,62.2,169.6,58.6,172.1,52.2z M171,23.7c-1.6,0-5,12.5-6.7,23.3
			c2.9-5.3,7.2-14.9,7.2-22C171.6,24.1,171.3,23.7,171,23.7z"/>
	</g>
	<pattern  id="SVGID_1_" xlink:href="#New_Pattern_Swatch_4" patternTransform="matrix(0.1409 0 0 0.1409 -6644.4443 -6470.8809)">
	</pattern>
	<path fill="url(#SVGID_1_)" d="M93.1,96.8c-1.3-2.5-3.2-4.6-5.8-6.2c-2.5-1.6-5.7-2.7-9.6-3.5c-3.8-0.7-9.1-1.1-14.1-1.1H47.4
		l0.7-9.1L38,87.1l0.1,0c-0.3,0.4-0.4,0.9-0.4,1.4v58.1c0,0.6,0.3,1.2,0.8,1.7c0.5,0.5,1.1,0.7,1.7,0.7h19.3c0.6,0,1.1-0.2,1.6-0.5
		l0,0l0,0c0.1-0.1,0.1-0.1,0.2-0.2c0.1-0.1,0.1-0.1,0.2-0.2l9.8-9.7l-9.2-1.3v-9.4l5.8,0.1c8.7,0.1,16.1-1.5,20.6-4.8
		c4.5-3.3,6.7-9.4,6.7-16.4C95,102.9,94.4,99.3,93.1,96.8z M65.1,110.5l-2.4-0.1v-6.6l2.7-0.2c1.7-0.1,3,0.1,3.9,0.8
		c0.9,0.6,1.4,1.5,1.4,2.7C70.7,109.6,68.8,110.7,65.1,110.5z"/>
	<pattern  id="SVGID_2_" xlink:href="#New_Pattern_Swatch_4" patternTransform="matrix(0.1409 0 0 0.1409 -6644.4443 -6465.8589)">
	</pattern>
	<path fill="url(#SVGID_2_)" d="M146.1,148.9c-0.4,0-0.8-0.1-1.2-0.4c-0.4-0.3-0.7-0.6-0.9-0.9l-3.4-6.8H114l-3.1,6.8
		c-0.2,0.4-0.5,0.7-0.9,0.9c-0.4,0.3-0.8,0.4-1.2,0.4H88.9c-1,0-1.8-0.4-2.3-1.1c-0.5-0.7-0.4-1.5,0.1-2.4L119.9,87
		c0.2-0.3,0.5-0.6,0.9-0.9c0.5-0.3,0.9-0.4,1.2-0.4h15.5c0.4,0,0.8,0.1,1.2,0.4c0.4,0.3,0.7,0.6,0.9,0.9l31.5,58.4
		c0.4,0.9,0.4,1.7,0,2.4c-0.4,0.7-1.1,1.1-2.2,1.1H146.1z M124.8,122.6h6.2l-3.1-6L124.8,122.6z"/>
	<pattern  id="SVGID_3_" xlink:href="#New_Pattern_Swatch_4" patternTransform="matrix(0.1409 0 0 0.1409 -6648.6699 -6451.9146)">
	</pattern>
	<path fill="url(#SVGID_3_)" d="M272.8,148.9c-0.6,0-1.1-0.2-1.6-0.7c-0.5-0.5-0.7-1-0.7-1.6v-41.3h-15.6c-0.7,0-1.2-0.2-1.6-0.7
		c-0.4-0.5-0.6-1-0.6-1.7V87.8c0-0.6,0.2-1.1,0.6-1.6c0.4-0.5,1-0.7,1.6-0.7h57.4c0.7,0,1.2,0.2,1.7,0.7c0.5,0.5,0.7,1,0.7,1.6V103
		c0,0.7-0.2,1.2-0.7,1.7c-0.5,0.5-1,0.7-1.7,0.7h-15.2v41.3c0,0.6-0.2,1.1-0.6,1.6c-0.4,0.5-1,0.7-1.6,0.7H272.8z"/>
	<pattern  id="SVGID_4_" xlink:href="#New_Pattern_Swatch_4" patternTransform="matrix(0.1409 0 0 0.1409 -6654.3042 -6455.999)">
	</pattern>
	<path fill="url(#SVGID_4_)" d="M203.6,128.5v18.1c0,0.6-0.2,1.2-0.7,1.7c-0.5,0.5-1.1,0.7-1.8,0.7h-21.5c-0.6,0-1.2-0.2-1.7-0.7
		c-0.5-0.5-0.7-1-0.7-1.7V88.1c0-0.6,0.2-1.2,0.7-1.7c0.5-0.5,1-0.7,1.7-0.7h41.4c6.9,0,12.3,1.5,16.5,4.5c4.5,3.3,6.7,7.6,6.7,13
		c0,6.1-1.4,10.5-5.6,13.6c-1.2,0.9-2.7,2.3-4.2,3.1c2,1,5,5.1,5.8,6.1l10.9,19.2c0.5,0.9,0.6,1.7,0.1,2.5c-0.5,0.8-1.2,1.2-2.2,1.2
		h-25.7c-0.4,0-0.8-0.1-1.2-0.4c-0.4-0.3-0.7-0.6-0.9-1l-8.6-17.3l-0.1,0c-0.2-0.3-0.4-0.5-0.7-0.8c-0.2-0.3-0.5-0.5-0.8-0.6
		c-0.4-0.3-2.1-0.5-4.9-0.5H203.6z M203.4,104.2v5.8h5.5c3.9,0,5.1,0.2,7.2-0.5c1.5-0.5,2.3-1.2,2.3-2.5c0-1.1-0.5-1.6-1.4-2.1
		c-0.8-0.5-2.3-0.8-5.2-0.8H203.4z"/>
	<pattern  id="SVGID_5_" xlink:href="#New_Pattern_Swatch_3" patternTransform="matrix(0.1409 0 0 0.1409 -6612.9419 -6491.5908)">
	</pattern>
	<path fill="url(#SVGID_5_)" d="M102.9,86.9c-0.6-1.2-1.4-2.4-2.4-3.4l0,0l-0.4-0.3c-0.1-0.1-0.1-0.1-0.2-0.2l-4.5-4.4l-0.2,1.2
		c-2.2-1.1-4.8-1.9-7.7-2.4c-3.8-0.7-9.1-1.1-14.1-1.1H49.9c-0.6,0-1.2,0.2-1.7,0.7c-0.5,0.5-0.7,1-0.7,1.7v53.3l-3.8,1.9l4.2,4.2
		l0,0c0.1,0.1,0.2,0.3,0.3,0.4c0.5,0.5,1.1,0.7,1.7,0.7h19.3c0.7,0,1.3-0.2,1.8-0.7c0.5-0.5,0.7-1,0.7-1.7v-18.9l5.8,0.1
		c8.7,0.1,16.1-1.5,20.6-4.8c4.5-3.3,6.7-9.4,6.7-16.4C104.9,93.1,104.2,89.5,102.9,86.9z M74.9,100.7l-2.4-0.1V94l2.7-0.2
		c1.7-0.1,3,0.1,3.9,0.8c0.9,0.6,1.4,1.5,1.4,2.7C80.6,99.7,78.7,100.8,74.9,100.7z"/>
	<path fill="none" d="M102.9,86.9c-0.6-1.2-1.4-2.4-2.4-3.4l0,0l-0.4-0.3c-0.1-0.1-0.1-0.1-0.2-0.2l-4.5-4.4l-0.2,1.2
		c-2.2-1.1-4.8-1.9-7.7-2.4c-3.8-0.7-9.1-1.1-14.1-1.1H49.9c-0.6,0-1.2,0.2-1.7,0.7c-0.5,0.5-0.7,1-0.7,1.7v53.3l-3.8,1.9l4.2,4.2
		l0,0c0.1,0.1,0.2,0.3,0.3,0.4c0.5,0.5,1.1,0.7,1.7,0.7h19.3c0.7,0,1.3-0.2,1.8-0.7c0.5-0.5,0.7-1,0.7-1.7v-18.9l5.8,0.1
		c8.7,0.1,16.1-1.5,20.6-4.8c4.5-3.3,6.7-9.4,6.7-16.4C104.9,93.1,104.2,89.5,102.9,86.9z M74.9,100.7l-2.4-0.1V94l2.7-0.2
		c1.7-0.1,3,0.1,3.9,0.8c0.9,0.6,1.4,1.5,1.4,2.7C80.6,99.7,78.7,100.8,74.9,100.7z"/>
	<path fill="#6E6E6E" d="M68.5,113.6v18.9c0,0.6-0.2,1.2-0.7,1.7c-0.5,0.5-1.1,0.7-1.8,0.7H45.8c-0.6,0-1.2-0.2-1.7-0.7
		c-0.5-0.5-0.8-1-0.8-1.7V74.4c0-0.6,0.2-1.2,0.7-1.7c0.5-0.5,1-0.7,1.7-0.7h23.5c5,0,10.3,0.4,14.1,1.1c3.8,0.7,7,1.9,9.6,3.5
		c2.5,1.6,4.5,3.7,5.8,6.2c1.3,2.5,2,6.1,2,9.7c0,7.1-2.2,13.1-6.7,16.4c-4.5,3.3-11.9,4.9-20.6,4.8L68.5,113.6z M68.3,89.7v6.6
		l2.4,0.1c3.8,0.2,5.6-1,5.6-3.4c0-1.2-0.5-2.1-1.4-2.7c-0.9-0.6-2.2-0.9-3.9-0.8L68.3,89.7z"/>
	<path fill="#2C2C2C" d="M66.9,111.2v18.8c0,0.6-2.5,3.2-3.2,3.2l-15.1-1c-0.6,0-1.1-0.2-1.6-0.7c-0.5-0.5-0.7-1-0.7-1.6l-1.1-54.7
		c0-0.6,2.8-2.1,3.4-2.1h22.2c4.8,0,9,0.3,12.6,1c3.6,0.7,6.6,1.8,9,3.3c2.4,1.5,4.2,3.5,5.5,5.8c1.2,2.4,1.8,5.3,1.8,8.6
		c0,6.7-2.1,11.6-6.3,14.7c-4.2,3.1-10.4,4.7-18.7,4.6L66.9,111.2z M66.8,87.1v10.7l3.8,0.2c6.1,0.3,9.1-1.6,9.1-5.5
		c0-1.9-0.8-3.4-2.3-4.4c-1.5-1-3.6-1.4-6.3-1.2L66.8,87.1z"/>
	<path fill="none" d="M65.5,112.2v18.8c0,0.6-0.2,1.1-0.7,1.6c-0.5,0.5-1,0.7-1.7,0.7h-16c-0.6,0-1.1-0.2-1.6-0.7
		c-0.5-0.5-0.7-1-0.7-1.6V76.5c0-0.6,0.2-1.1,0.7-1.6c0.5-0.5,1-0.7,1.6-0.7h22.2c4.8,0,9,0.3,12.6,1c3.6,0.7,6.6,1.8,9,3.3
		c2.4,1.5,4.2,3.5,5.5,5.8c1.2,2.4,1.8,5.3,1.8,8.6c0,6.7-2.1,11.6-6.3,14.7c-4.2,3.1-10.4,4.7-18.7,4.6L65.5,112.2z M65.4,88v10.7
		l3.8,0.2c6.1,0.3,9.1-1.6,9.1-5.5c0-1.9-0.8-3.4-2.3-4.4c-1.5-1-3.6-1.4-6.3-1.2L65.4,88z"/>
	<pattern  id="SVGID_6_" xlink:href="#New_Pattern_Swatch_3" patternTransform="matrix(0.1409 0 0 0.1409 -6612.9419 -6486.5688)">
	</pattern>
	<path fill="url(#SVGID_6_)" d="M181,135.6l-31.5-58.4c-0.1-0.2-0.3-0.4-0.5-0.6l-4.2-4.2l-5.7,3.5h-7.2c-0.3,0-0.7,0.1-1.2,0.4
		c-0.5,0.3-0.8,0.5-0.9,0.9L99,131.4l-3.1-1.4l-3.6,3.8l4.3,4.4c0.5,0.6,1.2,0.9,2.2,0.9h19.8c0.4,0,0.8-0.1,1.2-0.4
		c0.4-0.3,0.7-0.6,0.9-0.9l3.1-6.8h26.6l0.6,1.3l-1.3,1.5l4.5,4.6l0,0c0.1,0.1,0.3,0.3,0.5,0.4c0.4,0.3,0.8,0.4,1.2,0.4h22.8
		c1,0,1.8-0.4,2.2-1.1C181.4,137.3,181.4,136.5,181,135.6z M133.1,116.4l7.5-13.6l4.2,13.6H133.1z"/>
	<path fill="#6E6E6E" d="M151.8,134.9c-0.4,0-0.8-0.1-1.2-0.4c-0.4-0.3-0.7-0.6-0.9-0.9l-3.4-6.8h-26.6l-3.1,6.8
		c-0.2,0.4-0.5,0.7-0.9,0.9c-0.4,0.3-0.8,0.4-1.2,0.4H94.5c-1,0-1.8-0.4-2.3-1.1c-0.5-0.7-0.4-1.5,0.1-2.4l33.2-58.4
		c0.2-0.3,0.5-0.6,0.9-0.9c0.5-0.3,0.9-0.4,1.2-0.4h15.5c0.4,0,0.8,0.1,1.2,0.4c0.4,0.3,0.7,0.6,0.9,0.9l31.5,58.4
		c0.4,0.9,0.4,1.7,0,2.4c-0.4,0.7-1.1,1.1-2.2,1.1H151.8z M130.4,108.5h6.2l-3.1-6L130.4,108.5z"/>
	<path fill="#2C2C2C" d="M153.9,132.2c-0.4,0-0.7-0.1-1.2-0.4c-0.4-0.3-0.7-0.6-0.9-0.9l-3.8-7.4h-28.3l-3.8,7.4
		c-0.2,0.4-0.5,0.7-0.9,0.9c-0.4,0.3-0.8,0.4-1.2,0.4H98.2c-1,0-1.7-0.4-2.2-1.1c-0.5-0.7-0.4-1.5,0.1-2.3l31-54.5
		c0.2-0.3,0.5-0.6,0.9-0.8c0.5-0.3,0.8-0.4,1.1-0.4h13.3c0.4,0,0.7,0.1,1.1,0.4c0.4,0.3,0.7,0.6,0.9,0.9l29.2,54.5
		c0.4,0.9-0.8,4.7-1.8,4.7L153.9,132.2z M127.2,110.3h14l-6.8-13.1L127.2,110.3z"/>
	<path fill="#BBBBBB" d="M153.1,133.8c-0.4,0-0.7-0.1-1.2-0.4c-0.4-0.3-0.7-0.6-0.9-0.9l-3.8-7.4h-28.3l-3.8,7.4
		c-0.2,0.4-0.5,0.7-0.9,0.9c-0.4,0.3-0.8,0.4-1.2,0.4H97.4c-1,0-1.7-0.4-2.2-1.1c-0.5-0.7-0.4-1.5,0.1-2.3l31-54.5
		c0.2-0.3,0.5-0.6,0.9-0.8c0.5-0.3,0.8-0.4,1.1-0.4h13.3c0.4,0,0.7,0.1,1.1,0.4c0.4,0.3,0.7,0.6,0.9,0.9l29.2,54.5
		c0.4,0.9,0.4,1.6,0,2.3c-0.4,0.7-1.1,1-2.1,1H153.1z M126.3,111.9h14l-6.8-13.1L126.3,111.9z"/>
	
		<pattern  id="SVGID_7_" xlink:href="#New_Pattern_Swatch_2" patternTransform="matrix(0.1168 -7.876413e-02 7.876413e-02 0.1168 -6159.1504 -7333.2144)">
	</pattern>
	<path opacity="0.6" fill="url(#SVGID_7_)" d="M153.1,133.8c-0.4,0-0.7-0.1-1.2-0.4c-0.4-0.3-0.7-0.6-0.9-0.9l-3.8-7.4h-28.3
		l-3.8,7.4c-0.2,0.4-0.5,0.7-0.9,0.9c-0.4,0.3-0.8,0.4-1.2,0.4H97.4c-1,0-1.7-0.4-2.2-1.1c-0.5-0.7-0.4-1.5,0.1-2.3l31-54.5
		c0.2-0.3,0.5-0.6,0.9-0.8c0.5-0.3,0.8-0.4,1.1-0.4h13.3c0.4,0,0.7,0.1,1.1,0.4c0.4,0.3,0.7,0.6,0.9,0.9l29.2,54.5
		c0.4,0.9,0.4,1.6,0,2.3c-0.4,0.7-1.1,1-2.1,1H153.1z M126.3,111.9h14l-6.8-13.1L126.3,111.9z"/>
	<pattern  id="SVGID_8_" xlink:href="#New_Pattern_Swatch_3" patternTransform="matrix(0.1409 0 0 0.1409 -6612.9419 -6486.5688)">
	</pattern>
	<path fill="url(#SVGID_8_)" d="M261,135.5l-10.9-19.2c-0.8-1.1-3.8-5.1-5.8-6.1c1.5-0.8,3-2.2,4.2-3.1c4.2-3.1,5.6-7.5,5.6-13.6
		c0-4.1-1.3-7.6-4-10.5l0.1,0l-4.8-4.7l-0.1,0.9c-3.8-2.1-8.6-3.2-14.3-3.2h-41.4c-0.6,0-1.2,0.2-1.7,0.7c-0.5,0.5-0.7,1-0.7,1.7
		v49.9l-3.5,6.1l4.2,4.2c0.5,0.5,1,0.7,1.7,0.7H211c0.7,0,1.3-0.2,1.8-0.7c0.5-0.5,0.7-1,0.7-1.7v-18.1h2.5c2.9,0,4.5,0.2,4.9,0.5
		c0.3,0.2,0.5,0.4,0.8,0.6c0.2,0.3,0.5,0.5,0.7,0.8l0.1,0l6.1,12.3l-1.6,1l4.9,4.9l0,0c0,0,0.1,0,0.1,0.1c0.4,0.3,0.8,0.4,1.2,0.4
		H259c1,0,1.7-0.4,2.2-1.2C261.6,137.2,261.6,136.4,261,135.5z M226,99.7c-2.1,0.6-3.3,0.5-7.2,0.5h-5.5v-5.8h8.3
		c2.9,0,4.4,0.3,5.2,0.8c0.9,0.5,1.4,0.9,1.4,2.1C228.3,98.5,227.5,99.2,226,99.7z"/>
	<path fill="#6E6E6E" d="M209.3,114.4v18.1c0,0.6-0.2,1.2-0.7,1.7c-0.5,0.5-1.1,0.7-1.8,0.7h-21.5c-0.6,0-1.2-0.2-1.7-0.7
		c-0.5-0.5-0.7-1-0.7-1.7V74c0-0.6,0.2-1.2,0.7-1.7c0.5-0.5,1-0.7,1.7-0.7h41.4c6.9,0,12.3,1.5,16.5,4.5c4.5,3.3,6.7,7.6,6.7,13
		c0,6.1-1.4,10.5-5.6,13.6c-1.2,0.9-2.7,2.3-4.2,3.1c2,1,5,5.1,5.8,6.1l10.9,19.2c0.5,0.9,0.6,1.7,0.1,2.5c-0.5,0.8-1.2,1.2-2.2,1.2
		H229c-0.4,0-0.8-0.1-1.2-0.4c-0.4-0.3-0.7-0.6-0.9-1l-8.6-17.3l-0.1,0c-0.2-0.3-0.4-0.5-0.7-0.8c-0.2-0.3-0.5-0.5-0.8-0.6
		c-0.4-0.3-2.1-0.5-4.9-0.5H209.3z M209.1,90.1v5.8h5.5c3.9,0,5.1,0.2,7.2-0.5c1.5-0.5,2.3-1.2,2.3-2.5c0-1.1-0.5-1.6-1.4-2.1
		c-0.8-0.5-2.3-0.8-5.2-0.8H209.1z"/>
	<path fill="#2C2C2C" d="M207.6,111.2v18.6c0,0.6-0.2,1.1-0.7,1.6c-0.5,0.5-2,2.4-2.6,2.4l-15.8-1.7c-0.6,0-1.1-0.2-1.6-0.7
		c-0.5-0.5-0.7-1-0.7-1.6L184.8,76c0-0.6,3.2-3,3.8-3h37.8c6.5,0,11.7,1.4,15.6,4.3c4.2,3.1,6.3,7.2,6.3,12.3
		c0,5.7-1.7,9.9-5.2,12.4c-0.9,0.7-1.8,1.3-3,1.8c-1.1,0.6-2.4,1.1-3.7,1.5c1.6,0.9,3,1.8,4.1,2.8c1.1,1,2.1,2,2.8,3l10.3,17.4
		c0.5,0.9,0.5,1.6,0.1,2.4c-0.4,0.7-2.1,2.8-3,2.8l-18.2-1.7c-0.4,0-0.8-0.1-1.2-0.4c-0.4-0.3-0.7-0.6-0.9-0.9l-9.6-17.9l0.1,0.2
		c-0.2-0.3-0.4-0.5-0.6-0.8c-0.2-0.3-0.5-0.5-0.7-0.6c-0.4-0.3-2-0.5-4.7-0.5H207.6z M207.1,86.5v11.2h9c3.7,0,6.5-0.4,8.4-1.3
		c1.9-0.9,2.9-2.4,2.9-4.6c0-1.9-0.7-3.2-2.2-4.1c-1.5-0.9-3.6-1.3-6.3-1.3H207.1z"/>
	<pattern  id="SVGID_9_" xlink:href="#New_Pattern_Swatch_4" patternTransform="matrix(0.1409 0 0 0.1409 -6467.251 -6451.9146)">
	</pattern>
	<path fill="url(#SVGID_9_)" d="M505.3,149.1c-0.6,0-1-0.2-1.4-0.7c-0.4-0.5-0.6-1-0.6-1.6V87.8c0-0.6,0.2-1.1,0.6-1.6
		c0.4-0.5,0.8-0.7,1.4-0.7h18.9c0.6,0,1,0.2,1.4,0.7c0.4,0.5,0.6,1,0.6,1.6v59.1c0,0.6-0.2,1.1-0.6,1.6c-0.4,0.5-0.8,0.7-1.4,0.7
		H505.3z"/>
	<pattern  id="SVGID_10_" xlink:href="#New_Pattern_Swatch_3" patternTransform="matrix(0.1409 0 0 0.1409 -6431.5229 -6486.5688)">
	</pattern>
	<path fill="url(#SVGID_10_)" d="M513.7,139.3c-0.6,0-1-0.2-1.4-0.7c-0.4-0.5-4.7-4.1-4.7-4.7l4.1-55.9c0-0.6,0.2-1.1,0.6-1.6
		c0.4-0.5,0.8-0.7,1.4-0.7l15.2-4.1c0.6,0,4.8,4.3,5.2,4.8c0.4,0.5,0.6,1,0.6,1.6V137c0,0.6-0.2,1.1-0.6,1.6
		c-0.4,0.5-0.8,0.7-1.4,0.7H513.7z"/>
	<path fill="#6E6E6E" d="M509.5,135.2c-0.6,0-1-0.2-1.4-0.7c-0.4-0.5-0.6-1-0.6-1.6V73.9c0-0.6,0.2-1.1,0.6-1.6
		c0.4-0.5,0.8-0.7,1.4-0.7h18.9c0.6,0,1,0.2,1.4,0.7c0.4,0.5,0.6,1,0.6,1.6v59.1c0,0.6-0.2,1.1-0.6,1.6c-0.4,0.5-0.8,0.7-1.4,0.7
		H509.5z"/>
	<path fill="#2C2C2C" d="M512.7,132c-0.6,0-1-0.2-1.4-0.7c-0.4-0.5-0.6-1-0.6-1.6l-1.5-53.6c0-0.6,1.7-2.1,2.1-2.6
		c0.4-0.5,0.8-0.7,1.4-0.7h14c0.6,0,1,0.2,1.4,0.7c0.4,0.5,0.6,1,0.6,1.6v54.6c0,0.6-0.2,1.1-0.6,1.6c-0.4,0.5-2.4,2.6-2.9,2.6
		L512.7,132z"/>
	<path fill="#BBBBBB" d="M511,133.8c-0.6,0-1-0.2-1.4-0.7c-0.4-0.5-0.6-1-0.6-1.6V77c0-0.6,0.2-1.1,0.6-1.6c0.4-0.5,0.8-0.7,1.4-0.7
		h14c0.6,0,1,0.2,1.4,0.7c0.4,0.5,0.6,1,0.6,1.6v54.6c0,0.6-0.2,1.1-0.6,1.6c-0.4,0.5-0.8,0.7-1.4,0.7H511z"/>
	
		<pattern  id="SVGID_11_" xlink:href="#New_Pattern_Swatch_2" patternTransform="matrix(0.1168 -7.876413e-02 7.876413e-02 0.1168 -5977.7314 -7333.2144)">
	</pattern>
	<path opacity="0.6" fill="url(#SVGID_11_)" d="M511,133.8c-0.6,0-1-0.2-1.4-0.7c-0.4-0.5-0.6-1-0.6-1.6V77c0-0.6,0.2-1.1,0.6-1.6
		c0.4-0.5,0.8-0.7,1.4-0.7h14c0.6,0,1,0.2,1.4,0.7c0.4,0.5,0.6,1,0.6,1.6v54.6c0,0.6-0.2,1.1-0.6,1.6c-0.4,0.5-0.8,0.7-1.4,0.7H511z
		"/>
	<pattern  id="SVGID_12_" xlink:href="#New_Pattern_Swatch_4" patternTransform="matrix(0.1409 0 0 0.1409 -6467.251 -6451.9146)">
	</pattern>
	<path fill="url(#SVGID_12_)" d="M619.6,85.3c0.7,0,1.2,0.2,1.7,0.7c0.5,0.5,0.7,1,0.7,1.6v59.2c0,0.6-0.2,1.1-0.7,1.6
		c-0.5,0.5-1,0.7-1.7,0.7h-15.1c-0.7,0-1.2-0.2-1.7-0.7c-0.5-0.5-0.7-1-0.7-1.6v-34.1l-17.9,35.1c-0.2,0.4-0.5,0.7-0.9,0.9
		c-0.4,0.3-0.8,0.4-1.1,0.4h-10.7c-0.4,0-0.7-0.1-1.1-0.4c-0.4-0.3-0.7-0.6-0.9-0.9l-11.1-20.9v19.9c0,0.6-0.2,1.1-0.7,1.6
		c-0.5,0.5-1,0.7-1.7,0.7h-20.4c-0.7,0-1.2-0.2-1.7-0.7c-0.5-0.5-0.7-1-0.7-1.6V87.5c0-0.6,0.2-1.1,0.7-1.6c0.5-0.5,1-0.7,1.7-0.7
		h23c0.3,0,0.7,0.1,1.1,0.3c0.4,0.2,0.7,0.5,0.9,0.8l17.8,28.8l17.6-28.8c0.2-0.3,0.5-0.6,0.9-0.8c0.4-0.2,0.8-0.3,1.1-0.3H619.6z"
		/>
	<pattern  id="SVGID_13_" xlink:href="#New_Pattern_Swatch_3" patternTransform="matrix(0.1409 0 0 0.1409 -6431.5229 -6486.5688)">
	</pattern>
	<path fill="url(#SVGID_13_)" d="M624.7,71.8c0.7,0,4.5,4.3,5,4.7c0.5,0.5,0.7,1,0.7,1.6v59.2c0,0.6-0.2,1.1-0.7,1.6
		c-0.5,0.5-1,0.7-1.7,0.7h-19.3c-0.7,0-1.2-0.2-1.7-0.7c-0.5-0.5-5.9-4.1-5.9-4.7l5.2-22.5l-13.7,26.6c-0.2,0.4-0.5,0.7-0.9,0.9
		c-0.4,0.3-0.8,0.4-1.1,0.4H580c-0.4,0-0.7-0.1-1.1-0.4c-0.4-0.3-4.5-4.2-4.7-4.6l-7.2-17.3v19.9c0,0.6-0.2,1.1-0.7,1.6
		c-0.5,0.5-1,0.7-1.7,0.7h-20.4c-0.7,0-1.2-0.2-1.7-0.7c-0.5-0.5-4.5-3.9-4.5-4.6l3.8-56.2c0-0.6,0.2-1.1,0.7-1.6
		c0.5-0.5,1-0.7,1.7-0.7l19.8-4c0.3,0,3.9,3.8,4.2,4.4c0.3,0.4,0.5,0.4,0.9,0.8l17.8,28.8L604.5,77c0.2-0.3,0.5-0.6,0.9-0.8
		c0.4-0.2,0.8-0.3,1.1-0.3L624.7,71.8z"/>
	<path fill="#6E6E6E" d="M623.8,71.6c0.7,0,1.2,0.2,1.7,0.7c0.5,0.5,0.7,1,0.7,1.6v59.2c0,0.6-0.2,1.1-0.7,1.6
		c-0.5,0.5-1,0.7-1.7,0.7h-20.6c-0.7,0-1.2-0.2-1.7-0.7c-0.5-0.5-0.7-1-0.7-1.6v-22.7l-12.4,23.7c-0.2,0.4-0.5,0.7-0.9,0.9
		c-0.4,0.3-0.8,0.4-1.1,0.4h-10.7c-0.4,0-0.7-0.1-1.1-0.4c-0.4-0.3-0.7-0.6-0.9-0.9l-11.1-20.9v19.9c0,0.6-0.2,1.1-0.7,1.6
		c-0.5,0.5-1,0.7-1.7,0.7h-20.4c-0.7,0-1.2-0.2-1.7-0.7c-0.5-0.5-0.7-1-0.7-1.6V73.9c0-0.6,0.2-1.1,0.7-1.6c0.5-0.5,1-0.7,1.7-0.7
		h23c0.3,0,0.7,0.1,1.1,0.3c0.4,0.2,0.7,0.5,0.9,0.8l17.8,28.8l17.6-28.8c0.2-0.3,0.5-0.6,0.9-0.8c0.4-0.2,0.8-0.3,1.1-0.3H623.8z"
		/>
	<path fill="#2C2C2C" d="M622,72.9c0.7,0,1.2,0.2,1.7,0.7c0.5,0.5,0.7,1,0.7,1.6v54.6c0,0.6-2.6,4-3.3,4l-14.1-1.7
		c-0.7,0-1.2-0.2-1.7-0.7c-0.5-0.5-0.7-1-0.7-1.6v-29.5l-16.3,30.4c-0.2,0.4-2.6,2.8-3,2.8l-6.2-1.6c-0.4,0-0.7-0.1-1.1-0.4
		c-0.4-0.3-0.7-0.6-0.9-0.9l-16.3-30.4v29.4c0,0.6-0.2,1.1-0.7,1.6c-0.5,0.5-2,2.4-2.6,2.4l-14.1-1.7c-0.7,0-1.2-0.2-1.7-0.7
		c-0.5-0.5-0.7-1-0.7-1.6l-1.7-53.4c0-0.6,1.9-2.2,2.4-2.7c0.5-0.5,1-0.7,1.7-0.7H561c0.3,0,0.7,0.1,1.1,0.3
		c0.4,0.2,0.7,0.5,0.9,0.8l19.7,32l17.7-30.3c0.2-0.3,2.3-2.2,2.7-2.5c0.4-0.2,0.8-0.3,1.1-0.3H622z"/>
	<path fill="#BBBBBB" d="M620.2,74.7c0.7,0,1.2,0.2,1.7,0.7c0.5,0.5,0.7,1,0.7,1.6v54.6c0,0.6-0.2,1.1-0.7,1.6
		c-0.5,0.5-1,0.7-1.7,0.7h-15.1c-0.7,0-1.2-0.2-1.7-0.7c-0.5-0.5-0.7-1-0.7-1.6v-29.5l-16.3,30.4c-0.2,0.4-0.5,0.7-0.9,0.9
		c-0.4,0.3-0.8,0.4-1.1,0.4h-7.1c-0.4,0-0.7-0.1-1.1-0.4c-0.4-0.3-0.7-0.6-0.9-0.9L559,102.1v29.4c0,0.6-0.2,1.1-0.7,1.6
		c-0.5,0.5-1,0.7-1.7,0.7h-15.1c-0.7,0-1.2-0.2-1.7-0.7c-0.5-0.5-0.7-1-0.7-1.6V77c0-0.6,0.2-1.1,0.7-1.6c0.5-0.5,1-0.7,1.7-0.7
		h17.6c0.3,0,0.7,0.1,1.1,0.3c0.4,0.2,0.7,0.5,0.9,0.8l19.7,32l19.5-32c0.2-0.3,0.5-0.6,0.9-0.8c0.4-0.2,0.8-0.3,1.1-0.3H620.2z"/>
	
		<pattern  id="SVGID_14_" xlink:href="#New_Pattern_Swatch_2" patternTransform="matrix(0.1168 -7.876413e-02 7.876413e-02 0.1168 -5977.7314 -7333.2144)">
	</pattern>
	<path opacity="0.6" fill="url(#SVGID_14_)" d="M620.2,74.7c0.7,0,1.2,0.2,1.7,0.7c0.5,0.5,0.7,1,0.7,1.6v54.6
		c0,0.6-0.2,1.1-0.7,1.6c-0.5,0.5-1,0.7-1.7,0.7h-15.1c-0.7,0-1.2-0.2-1.7-0.7c-0.5-0.5-0.7-1-0.7-1.6v-29.5l-16.3,30.4
		c-0.2,0.4-0.5,0.7-0.9,0.9c-0.4,0.3-0.8,0.4-1.1,0.4h-7.1c-0.4,0-0.7-0.1-1.1-0.4c-0.4-0.3-0.7-0.6-0.9-0.9L559,102.1v29.4
		c0,0.6-0.2,1.1-0.7,1.6c-0.5,0.5-1,0.7-1.7,0.7h-15.1c-0.7,0-1.2-0.2-1.7-0.7c-0.5-0.5-0.7-1-0.7-1.6V77c0-0.6,0.2-1.1,0.7-1.6
		c0.5-0.5,1-0.7,1.7-0.7h17.6c0.3,0,0.7,0.1,1.1,0.3c0.4,0.2,0.7,0.5,0.9,0.8l19.7,32l19.5-32c0.2-0.3,0.5-0.6,0.9-0.8
		c0.4-0.2,0.8-0.3,1.1-0.3H620.2z"/>
	<pattern  id="SVGID_15_" xlink:href="#New_Pattern_Swatch_4" patternTransform="matrix(0.1409 0 0 0.1409 -6467.251 -6451.9146)">
	</pattern>
	<path fill="url(#SVGID_15_)" d="M631.1,149c-0.6,0-1.1-0.2-1.6-0.7c-0.5-0.5-0.7-1-0.7-1.6V87.7c0-0.6,0.2-1.1,0.7-1.6
		c0.5-0.5,1-0.7,1.6-0.7h48.9c0.6,0,1.1,0.2,1.6,0.7c0.5,0.5,0.7,1,0.7,1.6v15.5c0,0.7-0.2,1.2-0.7,1.7c-0.5,0.5-1,0.7-1.6,0.7
		h-25.3v1.5h21.6c0.6,0,1.1,0.2,1.6,0.7c0.5,0.5,0.7,1,0.7,1.6v15.4c0,0.7-0.2,1.2-0.7,1.7c-0.5,0.5-1,0.7-1.6,0.7l-21.6,0.1v1.8
		H682c0.7,0,1.2,0.2,1.6,0.7c0.4,0.5,0.6,1,0.6,1.7v15.5c0,0.6-0.2,1.1-0.6,1.6c-0.4,0.5-1,0.7-1.6,0.7H631.1z"/>
	<pattern  id="SVGID_16_" xlink:href="#New_Pattern_Swatch_3" patternTransform="matrix(0.1409 0 0 0.1409 -6431.5229 -6486.5688)">
	</pattern>
	<path fill="url(#SVGID_16_)" d="M639.5,139.6c-0.6,0-1.1-0.2-1.6-0.7c-0.5-0.5-4.3-3.9-4.3-4.6l3.6-56.1c0-0.6,0.2-1.1,0.7-1.6
		c0.5-0.5,1-0.7,1.6-0.7h48.9c0.6,0,1.1,0.2,1.6,0.7c0.5,0.5,0.7,1,0.7,1.6v15.5c0,0.7-0.2,1.2-0.7,1.7c-0.5,0.5-1,0.7-1.6,0.7
		h-25.3v1.5l18.6-4c0.6,0,4.2,4.3,4.6,4.7c0.5,0.5,0.7,1,0.7,1.6v15.4c0,0.7-0.2,1.2-0.7,1.7c-0.5,0.5-1,0.7-1.6,0.7l-21.6,0.1v1.8
		l24.3-4c0.7,0,4.2,4.2,4.7,4.7c0.4,0.5,0.6,1,0.6,1.7v15.5c0,0.6-0.2,1.1-0.6,1.6c-0.4,0.5-1,0.7-1.6,0.7H639.5z"/>
	<path fill="#6E6E6E" d="M635.3,135.2c-0.6,0-1.1-0.2-1.6-0.7c-0.5-0.5-0.7-1-0.7-1.6V73.9c0-0.6,0.2-1.1,0.7-1.6
		c0.5-0.5,1-0.7,1.6-0.7h48.9c0.6,0,1.1,0.2,1.6,0.7c0.5,0.5,0.7,1,0.7,1.6v15.5c0,0.7-0.2,1.2-0.7,1.7c-0.5,0.5-1,0.7-1.6,0.7
		h-25.3v1.5h21.6c0.6,0,1.1,0.2,1.6,0.7c0.5,0.5,0.7,1,0.7,1.6v15.4c0,0.7-0.2,1.2-0.7,1.7c-0.5,0.5-1,0.7-1.6,0.7l-21.6,0.1v1.8
		h27.4c0.7,0,1.2,0.2,1.6,0.7c0.4,0.5,0.6,1,0.6,1.7v15.5c0,0.6-0.2,1.1-0.6,1.6c-0.4,0.5-1,0.7-1.6,0.7H635.3z"/>
	<path fill="#2C2C2C" d="M638.8,132c-0.6,0-1.1-0.2-1.6-0.7c-0.5-0.5-0.7-1-0.7-1.6l-1.7-53.5c0-0.6,1.9-2.2,2.4-2.6
		c0.5-0.5,1-0.7,1.6-0.7h43.9c0.6,0,1.1,0.2,1.6,0.7c0.5,0.5,0.7,1,0.7,1.6v11c0,0.7-0.2,1.2-0.7,1.7c-0.5,0.5-2.2,2.5-2.8,2.5
		l-24.1-1.8v6H679c0.6,0,1.1,0.2,1.6,0.7c0.5,0.5,0.7,1,0.7,1.6v10.9c0,0.7-0.2,1.2-0.7,1.7c-0.5,0.5-2.3,2.5-2.9,2.5l-20.3-1.7v6.3
		h27.4c0.7,0,1.2,0.2,1.6,0.7c0.4,0.5,0.6,1,0.6,1.7v11c0,0.6-0.2,1.1-0.6,1.6c-0.4,0.5-2.3,2.4-2.9,2.4L638.8,132z"/>
	<path fill="#BBBBBB" d="M637,133.8c-0.6,0-1.1-0.2-1.6-0.7c-0.5-0.5-0.7-1-0.7-1.6V77c0-0.6,0.2-1.1,0.7-1.6c0.5-0.5,1-0.7,1.6-0.7
		h43.9c0.6,0,1.1,0.2,1.6,0.7c0.5,0.5,0.7,1,0.7,1.6v11c0,0.7-0.2,1.2-0.7,1.7c-0.5,0.5-1,0.7-1.6,0.7h-25.3v6h21.6
		c0.6,0,1.1,0.2,1.6,0.7c0.5,0.5,0.7,1,0.7,1.6v10.9c0,0.7-0.2,1.2-0.7,1.7c-0.5,0.5-1,0.7-1.6,0.7l-21.6,0.1v6.3h27.4
		c0.7,0,1.2,0.2,1.6,0.7c0.4,0.5,0.6,1,0.6,1.7v11c0,0.6-0.2,1.1-0.6,1.6c-0.4,0.5-1,0.7-1.6,0.7H637z"/>
	
		<pattern  id="SVGID_17_" xlink:href="#New_Pattern_Swatch_2" patternTransform="matrix(0.1168 -7.876413e-02 7.876413e-02 0.1168 -5977.7314 -7333.2144)">
	</pattern>
	<path opacity="0.6" fill="url(#SVGID_17_)" d="M637,133.8c-0.6,0-1.1-0.2-1.6-0.7c-0.5-0.5-0.7-1-0.7-1.6V77c0-0.6,0.2-1.1,0.7-1.6
		c0.5-0.5,1-0.7,1.6-0.7h43.9c0.6,0,1.1,0.2,1.6,0.7c0.5,0.5,0.7,1,0.7,1.6v11c0,0.7-0.2,1.2-0.7,1.7c-0.5,0.5-1,0.7-1.6,0.7h-25.3
		v6h21.6c0.6,0,1.1,0.2,1.6,0.7c0.5,0.5,0.7,1,0.7,1.6v10.9c0,0.7-0.2,1.2-0.7,1.7c-0.5,0.5-1,0.7-1.6,0.7l-21.6,0.1v6.3h27.4
		c0.7,0,1.2,0.2,1.6,0.7c0.4,0.5,0.6,1,0.6,1.7v11c0,0.6-0.2,1.1-0.6,1.6c-0.4,0.5-1,0.7-1.6,0.7H637z"/>
	<path fill="#BBBBBB" d="M65.5,112.2v18.8c0,0.6-0.2,1.1-0.7,1.6c-0.5,0.5-1,0.7-1.7,0.7h-16c-0.6,0-1.1-0.2-1.6-0.7
		c-0.5-0.5-0.7-1-0.7-1.6V76.5c0-0.6,0.2-1.1,0.7-1.6c0.5-0.5,1-0.7,1.6-0.7h22.2c4.8,0,9,0.3,12.6,1c3.6,0.7,6.6,1.8,9,3.3
		c2.4,1.5,4.2,3.5,5.5,5.8c1.2,2.4,1.8,5.3,1.8,8.6c0,6.7-2.1,11.6-6.3,14.7c-4.2,3.1-10.4,4.7-18.7,4.6L65.5,112.2z M65.4,88v10.7
		l3.8,0.2c6.1,0.3,9.1-1.6,9.1-5.5c0-1.9-0.8-3.4-2.3-4.4c-1.5-1-3.6-1.4-6.3-1.2L65.4,88z"/>
	<g opacity="0.6">
		<defs>
			<path id="SVGID_18_" opacity="0.6" d="M65.5,112.2v18.8c0,0.6-0.2,1.1-0.7,1.6c-0.5,0.5-1,0.7-1.7,0.7h-16
				c-0.6,0-1.1-0.2-1.6-0.7c-0.5-0.5-0.7-1-0.7-1.6V76.5c0-0.6,0.2-1.1,0.7-1.6c0.5-0.5,1-0.7,1.6-0.7h22.2c4.8,0,9,0.3,12.6,1
				c3.6,0.7,6.6,1.8,9,3.3c2.4,1.5,4.2,3.5,5.5,5.8c1.2,2.4,1.8,5.3,1.8,8.6c0,6.7-2.1,11.6-6.3,14.7c-4.2,3.1-10.4,4.7-18.7,4.6
				L65.5,112.2z M65.4,88v10.7l3.8,0.2c6.1,0.3,9.1-1.6,9.1-5.5c0-1.9-0.8-3.4-2.3-4.4c-1.5-1-3.6-1.4-6.3-1.2L65.4,88z"/>
		</defs>
		
			<pattern  id="SVGID_19_" xlink:href="#New_Pattern_Swatch_2" patternTransform="matrix(0.1168 -7.876413e-02 7.876413e-02 0.1168 -6159.1504 -7333.2144)"  opacity="0.6">
		</pattern>
		<use xlink:href="#SVGID_18_"  overflow="visible" fill="url(#SVGID_19_)"/>
		<clipPath id="SVGID_20_">
			<use xlink:href="#SVGID_18_"  overflow="visible"/>
		</clipPath>
		
			<pattern  id="SVGID_21_" xlink:href="#New_Pattern_Swatch_2" patternTransform="matrix(0.1168 -7.876413e-02 7.876413e-02 0.1168 -6159.1504 -7333.2144)"  opacity="0.6">
		</pattern>
		<polygon clip-path="url(#SVGID_20_)" fill="url(#SVGID_21_)" points="120.5,119.8 54.9,151.5 21.2,81.7 86.8,50 		"/>
	</g>
	<path fill="#BBBBBB" d="M205.9,112.9v18.6c0,0.6-0.2,1.1-0.7,1.6c-0.5,0.5-1,0.7-1.7,0.7h-16.7c-0.6,0-1.1-0.2-1.6-0.7
		c-0.5-0.5-0.7-1-0.7-1.6V77c0-0.6,0.2-1.1,0.7-1.6c0.5-0.5,1-0.7,1.6-0.7h37.8c6.5,0,11.7,1.4,15.6,4.3c4.2,3.1,6.3,7.2,6.3,12.3
		c0,5.7-1.7,9.9-5.2,12.4c-0.9,0.7-1.8,1.3-3,1.8c-1.1,0.6-2.4,1.1-3.7,1.5c1.6,0.9,3,1.8,4.1,2.8c1.1,1,2.1,2,2.8,3l10.3,17.4
		c0.5,0.9,0.5,1.6,0.1,2.4c-0.4,0.7-1.1,1.1-2.1,1.1h-19.1c-0.4,0-0.8-0.1-1.2-0.4c-0.4-0.3-0.7-0.6-0.9-0.9l-9.6-17.9l0.1,0.2
		c-0.2-0.3-0.4-0.5-0.6-0.8c-0.2-0.3-0.5-0.5-0.7-0.6c-0.4-0.3-2-0.5-4.7-0.5H205.9z M205.5,88.2v11.2h9c3.7,0,6.5-0.4,8.4-1.3
		c1.9-0.9,2.9-2.4,2.9-4.6c0-1.9-0.7-3.2-2.2-4.1c-1.5-0.9-3.6-1.3-6.3-1.3H205.5z"/>
	
		<pattern  id="SVGID_22_" xlink:href="#New_Pattern_Swatch_2" patternTransform="matrix(0.1168 -7.876413e-02 7.876413e-02 0.1168 -6159.1504 -7333.2144)">
	</pattern>
	<path opacity="0.6" fill="url(#SVGID_22_)" d="M205.9,112.9v18.6c0,0.6-0.2,1.1-0.7,1.6c-0.5,0.5-1,0.7-1.7,0.7h-16.7
		c-0.6,0-1.1-0.2-1.6-0.7c-0.5-0.5-0.7-1-0.7-1.6V77c0-0.6,0.2-1.1,0.7-1.6c0.5-0.5,1-0.7,1.6-0.7h37.8c6.5,0,11.7,1.4,15.6,4.3
		c4.2,3.1,6.3,7.2,6.3,12.3c0,5.7-1.7,9.9-5.2,12.4c-0.9,0.7-1.8,1.3-3,1.8c-1.1,0.6-2.4,1.1-3.7,1.5c1.6,0.9,3,1.8,4.1,2.8
		c1.1,1,2.1,2,2.8,3l10.3,17.4c0.5,0.9,0.5,1.6,0.1,2.4c-0.4,0.7-1.1,1.1-2.1,1.1h-19.1c-0.4,0-0.8-0.1-1.2-0.4
		c-0.4-0.3-0.7-0.6-0.9-0.9l-9.6-17.9l0.1,0.2c-0.2-0.3-0.4-0.5-0.6-0.8c-0.2-0.3-0.5-0.5-0.7-0.6c-0.4-0.3-2-0.5-4.7-0.5H205.9z
		 M205.5,88.2v11.2h9c3.7,0,6.5-0.4,8.4-1.3c1.9-0.9,2.9-2.4,2.9-4.6c0-1.9-0.7-3.2-2.2-4.1c-1.5-0.9-3.6-1.3-6.3-1.3H205.5z"/>
	<pattern  id="SVGID_23_" xlink:href="#New_Pattern_Swatch_3" patternTransform="matrix(0.1409 0 0 0.1409 -6612.9419 -6486.5688)">
	</pattern>
	<path fill="url(#SVGID_23_)" d="M322.7,76.7L322.7,76.7l-0.2-0.2c0,0-0.1-0.1-0.1-0.1c-0.1-0.1-0.1-0.1-0.2-0.2l-4-3.9l-0.9,3.4
		h-53.9c-0.7,0-1.2,0.2-1.6,0.7c-0.4,0.5-0.6,1-0.6,1.6v11.5l-3.6,1.3L262,95l0,0c0.4,0.3,0.8,0.5,1.4,0.5H279v36.1l-3.5,2.6
		l4.2,4.1c0.5,0.5,1,0.7,1.6,0.7h22c0.7,0,1.2-0.2,1.6-0.7c0.4-0.5,0.6-1,0.6-1.6V95.5h15.2c0.7,0,1.2-0.2,1.7-0.7
		c0.5-0.5,0.7-1,0.7-1.7V78C323.1,77.5,322.9,77.1,322.7,76.7z"/>
	<path fill="#6E6E6E" d="M277,134.9c-0.6,0-1.1-0.2-1.6-0.7c-0.5-0.5-0.7-1-0.7-1.6V91.4h-15.6c-0.7,0-1.2-0.2-1.6-0.7
		c-0.4-0.5-0.6-1-0.6-1.7V73.9c0-0.6,0.2-1.1,0.6-1.6c0.4-0.5,1-0.7,1.6-0.7h57.4c0.7,0,1.2,0.2,1.7,0.7c0.5,0.5,0.7,1,0.7,1.6v15.2
		c0,0.7-0.2,1.2-0.7,1.7c-0.5,0.5-1,0.7-1.7,0.7h-15.2v41.3c0,0.6-0.2,1.1-0.6,1.6c-0.4,0.5-1,0.7-1.6,0.7H277z"/>
	<path fill="#2C2C2C" d="M280.5,132.1c-0.6,0-1.1-0.2-1.6-0.7c-0.5-0.5-0.7-1-0.7-1.6v-42h-15.6c-0.7,0-1.2-0.2-1.6-0.7
		c-0.4-0.5-0.6-1-0.6-1.7l-1.6-9.3c0-0.6,3.2-3.2,3.8-3.2h52.1c0.7,0,1.2,0.2,1.7,0.7c0.5,0.5,0.7,1,0.7,1.6v10.2c0,0.7-2.8,4-3.5,4
		l-14.4-1.7v42c0,0.6-2.6,3.9-3.3,3.9L280.5,132.1z"/>
	<path fill="#BBBBBB" d="M278.9,133.8c-0.6,0-1.1-0.2-1.6-0.7c-0.5-0.5-0.7-1-0.7-1.6v-42H261c-0.7,0-1.2-0.2-1.6-0.7
		c-0.4-0.5-0.6-1-0.6-1.7V77c0-0.6,0.2-1.1,0.6-1.6c0.4-0.5,1-0.7,1.6-0.7h52.1c0.7,0,1.2,0.2,1.7,0.7c0.5,0.5,0.7,1,0.7,1.6v10.2
		c0,0.7-0.2,1.2-0.7,1.7c-0.5,0.5-1,0.7-1.7,0.7h-15.5v42c0,0.6-0.2,1.1-0.6,1.6c-0.4,0.5-1,0.7-1.6,0.7H278.9z"/>
	
		<pattern  id="SVGID_24_" xlink:href="#New_Pattern_Swatch_2" patternTransform="matrix(0.1168 -7.876413e-02 7.876413e-02 0.1168 -6159.1504 -7331.8057)">
	</pattern>
	<path opacity="0.6" fill="url(#SVGID_24_)" d="M278.9,135.2c-0.6,0-1.1-0.2-1.6-0.7c-0.5-0.5-0.7-1-0.7-1.6V91H261
		c-0.7,0-1.2-0.2-1.6-0.7c-0.4-0.5-0.6-1-0.6-1.7V78.4c0-0.6,0.2-1.1,0.6-1.6c0.4-0.5,1-0.7,1.6-0.7h52.1c0.7,0,1.2,0.2,1.7,0.7
		c0.5,0.5,0.7,1,0.7,1.6v10.2c0,0.7-0.2,1.2-0.7,1.7c-0.5,0.5-1,0.7-1.7,0.7h-15.5v42c0,0.6-0.2,1.1-0.6,1.6c-0.4,0.5-1,0.7-1.6,0.7
		H278.9z"/>
	<pattern  id="SVGID_25_" xlink:href="#New_Pattern_Swatch_4" patternTransform="matrix(0.1409 0 0 0.1409 -6467.251 -6451.9146)">
	</pattern>
	<path fill="url(#SVGID_25_)" d="M454.2,148.9c-0.6,0-1.1-0.2-1.6-0.7c-0.5-0.5-0.7-1-0.7-1.6v-41.3h-15.6c-0.7,0-1.2-0.2-1.6-0.7
		c-0.4-0.5-0.6-1-0.6-1.7V87.8c0-0.6,0.2-1.1,0.6-1.6c0.4-0.5,1-0.7,1.6-0.7h57.4c0.7,0,1.2,0.2,1.7,0.7c0.5,0.5,0.7,1,0.7,1.6V103
		c0,0.7-0.2,1.2-0.7,1.7c-0.5,0.5-1,0.7-1.7,0.7h-15.2v41.3c0,0.6-0.2,1.1-0.6,1.6c-0.4,0.5-1,0.7-1.6,0.7H454.2z"/>
	<pattern  id="SVGID_26_" xlink:href="#New_Pattern_Swatch_3" patternTransform="matrix(0.1409 0 0 0.1409 -6431.5229 -6486.5688)">
	</pattern>
	<path fill="url(#SVGID_26_)" d="M504.1,76.7L504.1,76.7l-0.2-0.2c0,0-0.1-0.1-0.1-0.1c-0.1-0.1-0.1-0.1-0.2-0.2l-4-3.9l-0.9,3.4
		h-53.9c-0.7,0-1.2,0.2-1.6,0.7c-0.4,0.5-0.6,1-0.6,1.6v11.5l-3.6,1.3l4.4,4.3l0,0c0.4,0.3,0.8,0.5,1.4,0.5h15.6v36.1l-3.5,2.6
		l4.2,4.1c0.5,0.5,1,0.7,1.6,0.7h22c0.7,0,1.2-0.2,1.6-0.7c0.4-0.5,0.6-1,0.6-1.6V95.5h15.2c0.7,0,1.2-0.2,1.7-0.7
		c0.5-0.5,0.7-1,0.7-1.7V78C504.5,77.5,504.4,77.1,504.1,76.7z"/>
	<path fill="#6E6E6E" d="M458.4,134.9c-0.6,0-1.1-0.2-1.6-0.7c-0.5-0.5-0.7-1-0.7-1.6V91.4h-15.6c-0.7,0-1.2-0.2-1.6-0.7
		c-0.4-0.5-0.6-1-0.6-1.7V73.9c0-0.6,0.2-1.1,0.6-1.6c0.4-0.5,1-0.7,1.6-0.7h57.4c0.7,0,1.2,0.2,1.7,0.7c0.5,0.5,0.7,1,0.7,1.6v15.2
		c0,0.7-0.2,1.2-0.7,1.7c-0.5,0.5-1,0.7-1.7,0.7h-15.2v41.3c0,0.6-0.2,1.1-0.6,1.6c-0.4,0.5-1,0.7-1.6,0.7H458.4z"/>
	<path fill="#2C2C2C" d="M462,132.1c-0.6,0-1.1-0.2-1.6-0.7c-0.5-0.5-0.7-1-0.7-1.6v-42h-15.6c-0.7,0-1.2-0.2-1.6-0.7
		c-0.4-0.5-0.6-1-0.6-1.7l-1.6-9.3c0-0.6,1.8-2,2.2-2.5c0.4-0.5,1-0.7,1.6-0.7h52.1c0.7,0,1.2,0.2,1.7,0.7c0.5,0.5,0.7,1,0.7,1.6
		v10.2c0,0.7-0.2,1.2-0.7,1.7c-0.5,0.5-1.9,2.2-2.6,2.2l-14.6-1.6v42c0,0.6-0.2,1.1-0.6,1.6c-0.4,0.5-2.2,2.4-2.8,2.4L462,132.1z"/>
	<path fill="#BBBBBB" d="M460.3,133.8c-0.6,0-1.1-0.2-1.6-0.7c-0.5-0.5-0.7-1-0.7-1.6v-42h-15.6c-0.7,0-1.2-0.2-1.6-0.7
		c-0.4-0.5-0.6-1-0.6-1.7V77c0-0.6,0.2-1.1,0.6-1.6c0.4-0.5,1-0.7,1.6-0.7h52.1c0.7,0,1.2,0.2,1.7,0.7c0.5,0.5,0.7,1,0.7,1.6v10.2
		c0,0.7-0.2,1.2-0.7,1.7c-0.5,0.5-1,0.7-1.7,0.7H479v42c0,0.6-0.2,1.1-0.6,1.6c-0.4,0.5-1,0.7-1.6,0.7H460.3z"/>
	
		<pattern  id="SVGID_27_" xlink:href="#New_Pattern_Swatch_2" patternTransform="matrix(0.1168 -7.876413e-02 7.876413e-02 0.1168 -5977.7314 -7333.2144)">
	</pattern>
	<path opacity="0.6" fill="url(#SVGID_27_)" d="M460.3,133.8c-0.6,0-1.1-0.2-1.6-0.7c-0.5-0.5-0.7-1-0.7-1.6v-42h-15.6
		c-0.7,0-1.2-0.2-1.6-0.7c-0.4-0.5-0.6-1-0.6-1.7V77c0-0.6,0.2-1.1,0.6-1.6c0.4-0.5,1-0.7,1.6-0.7h52.1c0.7,0,1.2,0.2,1.7,0.7
		c0.5,0.5,0.7,1,0.7,1.6v10.2c0,0.7-0.2,1.2-0.7,1.7c-0.5,0.5-1,0.7-1.7,0.7H479v42c0,0.6-0.2,1.1-0.6,1.6c-0.4,0.5-1,0.7-1.6,0.7
		H460.3z"/>
	<pattern  id="SVGID_28_" xlink:href="#New_Pattern_Swatch_4" patternTransform="matrix(0.1409 0 0 0.1409 -6654.6982 -6451.9146)">
	</pattern>
	<path fill="url(#SVGID_28_)" d="M397.7,85.8c1.1,0,3,1,3.2,2c0.6,1.8-0.3,4-1,4.8L374,124.8v22c0,0.6-0.2,1.1-0.7,1.6
		c-0.5,0.5-1,0.7-1.7,0.7h-22.1c-0.6,0-1.1-0.2-1.6-0.7c-0.5-0.5-0.7-1-0.7-1.6v-22L320.6,92c-0.7-0.8-0.5-3.4,0-4.2
		c1-1.5,2.7-2,3.8-2h23.2c0.3,0,0.6,0.1,1,0.3c0.4,0.2,0.7,0.4,0.8,0.6l13.3,16.5l11.9-16.3c0.1-0.3,0.4-0.5,0.8-0.7
		c0.5-0.2,0.8-0.3,1.1-0.3H397.7z"/>
	<pattern  id="SVGID_29_" xlink:href="#New_Pattern_Swatch_3" patternTransform="matrix(0.1409 0 0 0.1409 -6613.5054 -6500.0908)">
	</pattern>
	<path fill="url(#SVGID_29_)" d="M401.9,71.8c1.1,0,7.1,5.3,7.4,6.2c0.6,1.8-0.3,4-1,4.8l-25.9,32.2v22c0,0.6-0.2,1.1-0.7,1.6
		c-0.5,0.5-1,0.7-1.7,0.7H358c-0.6,0-1.1-0.2-1.6-0.7c-0.5-0.5-4.7-4.4-4.7-5l4-18.5l-26.7-32.7c-0.7-0.8-0.5-3.4,0-4.2
		c1-1.5,2.7-2,3.8-2l16.9-1.3c0.3,0,2.2-2.7,2.6-2.5c0.4,0.2,5.3,4.5,5.4,4.7l13.3,16.5L383.1,77c0.1-0.3,0.4-0.5,0.8-0.7
		c0.5-0.2,0.8-0.3,1.1-0.3h16.8L401.9,71.8z"/>
	<path fill="#6E6E6E" d="M401.9,71.9c1.1,0,3,1,3.2,2c0.6,1.8-0.3,4-1,4.8l-25.9,32.2v22c0,0.6-0.2,1.1-0.7,1.6
		c-0.5,0.5-1,0.7-1.7,0.7h-22.1c-0.6,0-1.1-0.2-1.6-0.7c-0.5-0.5-0.7-1-0.7-1.6v-22l-26.7-32.7c-0.7-0.8-0.5-3.4,0-4.2
		c1-1.5,2.7-2,3.8-2h23.2c0.3,0,0.6,0.1,1,0.3c0.4,0.2,0.7,0.4,0.8,0.6L367,89.2l11.9-16.3c0.1-0.3,0.4-0.5,0.8-0.7
		c0.5-0.2,0.8-0.3,1.1-0.3H401.9z"/>
	<path fill="#2C2C2C" d="M400.8,73.3c1.1,0,1.8,0.4,2.2,1.3c0.4,0.9,0.3,1.7-0.3,2.5l-26.2,31.6v21.4c0,0.6-0.2,1.1-0.7,1.6
		c-0.5,0.5-1.9,2.1-2.5,2.1l-16-1.4c-0.6,0-1.1-0.2-1.6-0.7c-0.5-0.5-0.7-1-0.7-1.6v-21.4l-26.3-31.6c-0.7-0.8-2.3-0.2-1.8-1.1
		c0.4-0.9,2.6-2.7,3.6-2.7H350c0.3,0,0.6,0.1,1,0.3c0.4,0.2,0.7,0.4,0.8,0.6l15.3,18.9l12.8-17.6c0.1-0.3,1.5-1.6,2-1.8
		c0.5-0.2,0.8-0.3,1.1-0.3H400.8z"/>
	<path fill="#BBBBBB" d="M399.3,74.7c1.1,0,1.8,0.4,2.2,1.3c0.4,0.9,0.3,1.7-0.3,2.5L375,110.1v21.4c0,0.6-0.2,1.1-0.7,1.6
		c-0.5,0.5-1,0.7-1.7,0.7h-16.9c-0.6,0-1.1-0.2-1.6-0.7c-0.5-0.5-0.7-1-0.7-1.6v-21.4l-26.3-31.6c-0.7-0.8-0.8-1.6-0.4-2.5
		c0.4-0.9,1.2-1.3,2.2-1.3h19.5c0.3,0,0.6,0.1,1,0.3c0.4,0.2,0.7,0.4,0.8,0.6l15.3,18.9l13.9-18.8c0.1-0.3,0.4-0.5,0.8-0.7
		c0.5-0.2,0.8-0.3,1.1-0.3H399.3z"/>
	
		<pattern  id="SVGID_30_" xlink:href="#New_Pattern_Swatch_2" patternTransform="matrix(0.1168 -7.876413e-02 7.876413e-02 0.1168 -6151.3062 -7338.8853)">
	</pattern>
	<path opacity="0.6" fill="url(#SVGID_30_)" d="M399.3,74.7c1.1,0,1.8,0.4,2.2,1.3c0.4,0.9,0.3,1.7-0.3,2.5L375,110.1v21.4
		c0,0.6-0.2,1.1-0.7,1.6c-0.5,0.5-1,0.7-1.7,0.7h-16.9c-0.6,0-1.1-0.2-1.6-0.7c-0.5-0.5-0.7-1-0.7-1.6v-21.4l-26.3-31.6
		c-0.7-0.8-0.8-1.6-0.4-2.5c0.4-0.9,1.2-1.3,2.2-1.3h19.5c0.3,0,0.6,0.1,1,0.3c0.4,0.2,0.7,0.4,0.8,0.6l15.3,18.9l13.9-18.8
		c0.1-0.3,0.4-0.5,0.8-0.7c0.5-0.2,0.8-0.3,1.1-0.3H399.3z"/>
	<g>
		<path fill="#6E6E6E" d="M45.6,22.9c-3.9,6.8-4.8,17.9-6.2,28.3c7.9-1,13.1-9.9,13.1-18.6c0-8.5-5.1-16.8-18-16.8
			c-13.2,0-19.4,10.1-19.4,18.7c0,6.5,3.5,12.3,10.1,12.3c0.9,0,1.7-0.1,2.4-0.3l0.9,5c-1.1,0.4-2.3,0.6-3.6,0.6
			c-9.5,0-14.6-7.7-14.6-16.4C10.4,25,18.3,13,35.2,13c15.8,0,22.6,9.8,22.6,19.8c0,10.4-7.2,21.1-18.9,21.5
			C37.1,67,34,78.1,23.4,78.1c-6.7,0-10.4-3.9-10.4-9.8c0-4.7,3.2-9.3,9.1-9.5v4.7c-3,0.3-4.9,3.2-4.9,5.9c0,3.8,2.8,5.8,6.1,5.8
			c14.9,0,7.5-36.5,17.1-54.1L45.6,22.9z"/>
		<path fill="#6E6E6E" d="M76.6,51.6c-1.3,3.5-3.9,5.9-6.7,6.9c-2,4.2-4.9,6.7-8.6,6.7c-4,0-5.7-4.2-5.7-9.4c0-3.2,0.6-6.9,1.8-10.3
			l2.1,0.5c0.6-4.5,3.1-8.3,7.2-8.3c3.9,0,5.9,4.5,5.9,9.7c0,2.8-0.7,5.8-1.4,8.3c1.5-0.7,2.9-2.1,3.9-4.9
			C75.4,50.8,76.6,51.3,76.6,51.6z M64.7,58.6c-2.4-0.9-4-3.2-4.8-6c-0.1,0.9-0.2,1.7-0.2,2.5c0,3.4,0.9,5.8,2.4,5.8
			c0.2,0,0.3,0,0.5-0.1C63.3,60.5,64,59.7,64.7,58.6z M62.3,49.3c0,3.1,0.9,6.1,3.5,6.9C67.1,53.1,68,49,68,46
			c0-2.6-0.6-4.6-2.3-4.6c-0.1,0-0.3,0.1-0.4,0.1C63.7,41.8,62.3,45.6,62.3,49.3z"/>
		<path fill="#6E6E6E" d="M88.1,50.8c0.3,0,1.4,0.5,1.4,0.8c0,0.1,0,0.1,0,0.1c-3.4,9.3-6.1,13.6-9.8,13.6c-3.5,0-4.9-3.4-4.9-9.4
			c0-4.2,0.7-9.8,1.8-16.4c2.6-14.5,6.2-21.1,9.6-21.1c3,0,3.9,2.4,3.9,5.4c0,3.4-1.2,7.5-1.7,9.3c-2.4,7.6-6.2,13.2-8.6,16.1
			c-0.3,2.5-0.5,4.7-0.5,6.6c0,3.9,0.9,5.1,2.2,5.1C83.4,60.8,85.6,57.2,88.1,50.8z M87,22.2c-1.6,0-5,12.5-6.7,23.3
			c2.9-5.3,7.2-14.9,7.2-22C87.6,22.7,87.3,22.2,87,22.2z"/>
		<path fill="#6E6E6E" d="M95.7,38.3c-2,9-3.7,15.7-3.7,20.5c0,1.7,0.6,2,1.2,2c1.5,0,3.4-3.2,6-9.9c0.3,0,1.6,0.4,1.6,0.8v0.1
			c-2.5,6.6-4.6,13.3-9.3,13.3c-3.1,0-4.2-2.9-4.2-6.9c0-6.4,2.5-15.6,3.5-19.8H95.7z M91.5,32c0-2.1,1.5-4.6,4-4.6
			c1.9,0,2.7,1.4,2.7,3c0,2.1-1.5,4.5-4,4.5C92.4,34.9,91.5,33.5,91.5,32z"/>
		<path fill="#6E6E6E" d="M108.1,24.6c-0.3,4.7-0.9,9.1-1.9,13.8c0.9,0,1.7-0.1,2.3-0.1L108,41c-0.2,0.1-1.3,0.1-2.4,0.1
			c-0.5,2.2-1.1,4.5-1.8,6.8c-0.6,4-0.9,7-0.9,9.1c0,2.4,0.4,3.7,1.2,3.7c1.6,0,3.8-5.4,5.6-9.9c0.3,0,1.6,0.5,1.6,0.8
			c-3.4,9.3-5.2,13.3-9,13.3c-2.5,0-3.6-3.1-3.6-8c0-4.2,0.6-9.9,2-15.8c-1.3,0-2.3,0-2.5-0.1l0.4-2.7c0.4,0,1.4,0.1,2.6,0.1
			c0.8-4,1.5-7.9,2.8-13.7H108.1z"/>
		<path fill="#6E6E6E" d="M117.3,38.3c-2,9-3.7,15.7-3.7,20.5c0,1.7,0.6,2,1.2,2c1.5,0,3.4-3.2,6-9.9c0.3,0,1.6,0.4,1.6,0.8v0.1
			c-2.5,6.6-4.6,13.3-9.3,13.3c-3.1,0-4.2-2.9-4.2-6.9c0-6.4,2.5-15.6,3.5-19.8H117.3z M113.1,32c0-2.1,1.5-4.6,4-4.6
			c1.9,0,2.7,1.4,2.7,3c0,2.1-1.5,4.5-4,4.5C113.9,34.9,113.1,33.5,113.1,32z"/>
		<path fill="#6E6E6E" d="M129.8,49.5c1.2-2,1.9-4.5,1.9-6.2c0-1.2-0.3-2-1.2-2c-3,0-5.6,6.9-5.6,12.4c0,3.6,1.2,6.7,4.1,6.7
			c2.8,0,5.9-3.1,8.4-9.5c0.3,0,1.6,0.5,1.6,0.8c-1.7,4.6-6.2,13.6-12.3,13.6c-4.5,0-6.5-4.6-6.5-10.1c0-7.9,4-17.4,10.5-17.4
			c3.3,0,4.6,2.7,4.6,6c0,2.5-0.8,5.3-1.9,7.8L129.8,49.5z"/>
		<path fill="#6E6E6E" d="M151,38.3h4.1c-1.7,7.7-2.8,13.9-3.6,19.7c-0.1,0.6-0.1,1.1-0.1,1.5c0,0.9,0.2,1.3,0.5,1.3
			c0.6,0,3.1-2.8,5.8-9.9c0.3,0,1.6,0.5,1.6,0.8c-3.5,9.3-6.4,13.3-9,13.3c-1.8,0-2.9-1.7-2.9-5.7c0-0.2,0-0.4,0-0.6
			c-1.3,3.5-3.4,6.6-6.7,6.6c-2.8,0-4-3.1-4-7.3c0-8.2,4.5-20.2,9.9-20.2c2.1,0,3.4,1.3,3.8,3.9L151,38.3z M141.5,57.3
			c0,1.8,0.3,3,1.2,3c2.7,0,6-9.4,6-14.8c0-2.1-0.5-3.6-1.8-3.6C144.4,41.9,141.5,52,141.5,57.3z"/>
		<path fill="#6E6E6E" d="M170.7,50.8c0.3,0,1.4,0.5,1.4,0.8c0,0.1,0,0.1,0,0.1c-3.4,9.3-6.1,13.6-9.8,13.6c-3.5,0-4.9-3.4-4.9-9.4
			c0-4.2,0.7-9.8,1.9-16.4c2.6-14.5,6.2-21.1,9.6-21.1c3,0,3.9,2.4,3.9,5.4c0,3.4-1.2,7.5-1.7,9.3c-2.4,7.6-6.2,13.2-8.6,16.1
			c-0.3,2.5-0.5,4.7-0.5,6.6c0,3.9,0.9,5.1,2.2,5.1C166,60.8,168.2,57.2,170.7,50.8z M169.6,22.2c-1.6,0-5,12.5-6.7,23.3
			c2.9-5.3,7.2-14.9,7.2-22C170.2,22.7,169.9,22.2,169.6,22.2z"/>
	</g>
	<g>
		<path fill="#6E6E6E" d="M188.3,30.8c0.1,0.6,0.2,1.2,0.3,1.7l0.2,1.4c0.2,1.1,1,2,2.2,2.2c0.6,0.1,1.8,0.3,3.1,0.5
			c-1.3,0.6-2.4,1.2-2.8,1.4c-1,0.5-1.6,1.6-1.4,2.8c0.1,0.6,0.3,1.8,0.5,3.1c-0.9-0.9-1.7-1.7-2.2-2.2c-0.5-0.5-1.2-0.8-1.8-0.8
			c-0.4,0-0.8,0.1-1.2,0.3l-0.3,0.1c-0.6,0.3-1.5,0.8-2.5,1.3c0.6-1.2,1.2-2.4,1.5-2.9c0.5-1,0.3-2.1-0.5-2.9
			c-0.4-0.4-1.3-1.4-2.3-2.3c1.3,0.2,2.5,0.4,3.2,0.5c0.1,0,0.3,0,0.4,0c0.9,0,1.8-0.5,2.2-1.4l0.9-1.8
			C187.9,31.6,188.1,31.2,188.3,30.8 M189.1,25.4c-0.1,0-0.3,0.1-0.4,0.3c-0.2,0.4-2.9,5.6-3.6,7.1c-0.1,0.2-0.3,0.3-0.5,0.3
			c0,0-0.1,0-0.1,0c-1.5-0.2-6.9-1.1-8-1.3c-0.1,0-0.1,0-0.2,0c-0.5,0-0.5,0.4-0.2,0.7c0.3,0.3,4.5,4.6,5.7,5.7
			c0.2,0.2,0.2,0.4,0.1,0.6c-0.7,1.4-3.5,6.7-3.7,7.2c-0.2,0.4-0.1,0.6,0.2,0.6c0.1,0,0.2,0,0.3-0.1c1-0.5,5.7-2.9,7.1-3.6
			c0.1-0.1,0.2-0.1,0.3-0.1c0.2,0,0.3,0.1,0.4,0.2c1.1,1.1,4.8,4.8,5.6,5.6c0.1,0.1,0.3,0.2,0.4,0.2c0.2,0,0.4-0.2,0.3-0.7
			c-0.1-0.5-0.9-6.1-1.2-7.7c0-0.3,0.1-0.6,0.3-0.7c1.5-0.8,6.6-3.4,7.1-3.6c0.6-0.3,0.5-0.7-0.1-0.8c-0.5-0.1-6.2-1-7.8-1.3
			c-0.3,0-0.5-0.2-0.5-0.5c-0.2-1.5-1-6.6-1.2-7.9C189.4,25.6,189.3,25.4,189.1,25.4L189.1,25.4z"/>
	</g>
	<path fill="none" stroke="#6E6E6E" stroke-width="1.1333" stroke-miterlimit="10" d="M250.4,40.2c-0.3-0.2-3.6-2.4-4.6-3.1
		c-0.2-0.1-0.2-0.3-0.2-0.5c0.3-1.1,1.2-4.5,1.5-5.3c0.1-0.4-0.2-0.5-0.5-0.3c-0.3,0.2-3.5,2.7-4.4,3.5c-0.1,0.1-0.3,0.1-0.5,0
		c-0.9-0.6-4-2.7-4.7-3.1c-0.4-0.2-0.5,0-0.4,0.3c0.1,0.3,1.6,4.2,2,5.3c0.1,0.2,0,0.3-0.1,0.4c-0.9,0.7-4.1,3.3-4.4,3.5
		c-0.3,0.3-0.2,0.5,0.2,0.5c0.8,0,4.4-0.2,5.6-0.2c0.2,0,0.4,0.1,0.5,0.3c0.4,1,1.6,4.4,1.9,5.2c0.1,0.4,0.5,0.4,0.6-0.1
		c0.1-0.4,1.2-4.1,1.5-5.3c0.1-0.2,0.2-0.3,0.4-0.3c1.2-0.1,5.2-0.2,5.5-0.2C250.6,40.7,250.7,40.4,250.4,40.2z"/>
	<polygon fill="none" stroke="#6E6E6E" stroke-width="1.69" stroke-miterlimit="10" points="224.1,13.8 223.8,5.5 216.3,8.9 
		208.3,6.6 209.2,14.9 204.6,21.8 212.7,23.4 217.8,29.9 221.9,22.7 229.7,19.9 	"/>
	<g>
		<path fill="#6E6E6E" d="M210.7,36.3l7.3,4.2l8.4-0.3l-1.7,8.3l2.9,7.9l-8.4,1l-6.6,5.2l-3.5-7.7l-7-4.7l6.2-5.7L210.7,36.3
			 M209.7,33.8l-0.6,2.1l-2.2,7.7l-5.9,5.4l-1.6,1.5l1.8,1.2l6.6,4.4l3.3,7.2l0.9,2l1.7-1.3l6.2-4.9L228,58l2.1-0.2l-0.7-2l-2.8-7.5
			l1.6-7.8l0.4-2.1l-2.2,0.1l-8,0.3l-6.9-3.9L209.7,33.8L209.7,33.8z"/>
	</g>
	<path fill="#2C2C2C" stroke="#6E6E6E" stroke-width="0.1409" stroke-miterlimit="10" d="M217.4,44.4l0.1,0.8c0,0.2,0,0.3-0.2,0.4
		l-1.8,0.9c-0.2,0.1-0.3,0-0.3-0.2l-0.2-1.4c0-0.1-0.1-0.3-0.2-0.3c-0.1-0.1-0.2-0.1-0.4-0.1l-0.2,0c-0.1,0-0.3,0.1-0.3,0.2
		c-0.1,0.1-0.1,0.2-0.1,0.4l0.2,1.2c0,0.2,0.1,0.3,0.2,0.4c0.1,0.1,0.2,0.2,0.3,0.3l3.1,1.6c0.3,0.2,0.4,0.3,0.5,0.5
		c0.1,0.2,0.2,0.4,0.3,0.7l0.5,2.8c0.1,0.7,0,1.3-0.3,1.8c-0.3,0.6-0.8,1-1.4,1.2l0.1,0.8c0,0.2,0,0.3-0.2,0.3l-1.1,0.2
		c-0.2,0-0.3,0-0.3-0.2l-0.1-0.8c-0.7,0-1.2-0.2-1.7-0.6c-0.5-0.4-0.8-0.9-0.9-1.6l-0.2-1.2c0-0.2,0-0.3,0.2-0.4l1.8-0.8
		c0.2-0.1,0.3,0,0.3,0.2l0.3,1.8c0,0.1,0.1,0.3,0.2,0.3c0.1,0.1,0.2,0.1,0.4,0.1l0.2,0c0.1,0,0.3-0.1,0.3-0.2
		c0.1-0.1,0.1-0.2,0.1-0.4l-0.4-2c0-0.2-0.1-0.3-0.2-0.5c-0.1-0.1-0.2-0.2-0.3-0.3l-3.1-1.6c-0.2-0.2-0.4-0.3-0.6-0.5
		c-0.1-0.2-0.2-0.4-0.3-0.8l-0.3-1.8c-0.1-0.7,0-1.3,0.3-1.8c0.3-0.6,0.8-1,1.4-1.2l-0.1-0.8c0-0.2,0-0.3,0.2-0.4l1.1-0.2
		c0.2,0,0.3,0,0.3,0.2l0.1,0.8c0.7,0,1.2,0.2,1.7,0.6C216.9,43.2,217.2,43.8,217.4,44.4z"/>
</g>
</svg>
