<?xml version="1.0" encoding="utf-8"?>
<!-- Generator: Adobe Illustrator 17.1.0, SVG Export Plug-In . SVG Version: 6.00 Build 0)  -->
<!DOCTYPE svg PUBLIC "-//W3C//DTD SVG 1.1//EN" "http://www.w3.org/Graphics/SVG/1.1/DTD/svg11.dtd">
<svg version="1.1" id="OpeningParliament_copy" xmlns="http://www.w3.org/2000/svg" xmlns:xlink="http://www.w3.org/1999/xlink"
	 x="0px" y="0px" viewBox="0 0 500 150" enable-background="new 0 0 500 150" xml:space="preserve">
<g>
	<path fill="#FFFFFF" d="M45.508,70.95c0-9.314,7.02-15.66,15.659-15.66s15.66,6.345,15.66,15.66s-7.02,15.659-15.66,15.659
		S45.508,80.265,45.508,70.95z M74.937,70.95c0-8.01-5.895-13.995-13.77-13.995c-7.875,0-13.77,5.985-13.77,13.995
		s5.895,13.994,13.77,13.994C69.042,84.944,74.937,78.96,74.937,70.95z"/>
	<path fill="#FFFFFF" d="M82.768,67.89h1.755l-0.09,4.5c1.35-2.835,4.14-4.905,7.875-4.905c5.265,0,9.09,4.14,9.09,9.54
		s-3.825,9.584-9.09,9.584c-3.555,0-6.479-2.114-7.785-4.814V95.79h-1.755V67.89z M99.552,77.025c0-4.545-2.925-7.965-7.47-7.965
		c-4.635,0-7.695,3.42-7.695,7.965s3.06,8.01,7.695,8.01C96.627,85.035,99.552,81.57,99.552,77.025z"/>
	<path fill="#FFFFFF" d="M115.662,85.035c3.06,0,5.085-1.215,6.435-2.88l1.17,1.035c-1.62,2.025-4.185,3.42-7.605,3.42
		c-5.805,0-9.584-4.275-9.584-9.54s4.005-9.584,9.225-9.584c5.58,0,9.09,4.365,9,9.944h-16.424
		C108.013,81.885,110.938,85.035,115.662,85.035z M122.502,75.99c-0.27-3.78-2.61-6.975-7.2-6.975c-4.185,0-6.93,2.97-7.379,6.975
		H122.502z"/>
	<path fill="#FFFFFF" d="M130.288,67.89h1.755l-0.045,4.095c1.215-2.79,3.78-4.5,7.02-4.5c4.095,0,6.84,2.745,6.84,7.29V86.25
		h-1.755V75.09c0-3.78-1.755-5.985-5.31-5.985c-3.96,0-6.75,2.61-6.75,6.885v10.26h-1.755V67.89z"/>
	<path fill="#FFFFFF" d="M152.607,59.971c0-0.855,0.72-1.485,1.485-1.485c0.765,0,1.485,0.63,1.485,1.485
		c0,0.9-0.72,1.485-1.485,1.485C153.327,61.456,152.607,60.871,152.607,59.971z M153.237,67.89h1.755v18.36h-1.755V67.89z"/>
	<path fill="#FFFFFF" d="M162.552,67.89h1.755l-0.045,4.095c1.215-2.79,3.78-4.5,7.02-4.5c4.095,0,6.84,2.745,6.84,7.29V86.25
		h-1.755V75.09c0-3.78-1.756-5.985-5.311-5.985c-3.959,0-6.75,2.61-6.75,6.885v10.26h-1.755V67.89z"/>
	<path fill="#FFFFFF" d="M201.071,67.89v1.485h-4.141c1.261,1.125,1.98,2.655,1.98,4.5c0,3.735-2.835,6.435-6.885,6.435
		c-1.395,0-2.61-0.27-3.645-0.855c-1.44,0.225-2.16,1.125-2.16,2.205c0,1.395,0.99,2.07,2.655,2.205l4.77,0.45
		c5.31,0.495,7.694,2.115,7.694,5.58c0,4.05-4.095,6.39-9.585,6.39c-5.534,0-9.179-2.204-9.179-6.029c0-2.79,1.979-4.32,4.77-5.13
		c-1.8-0.495-2.7-1.755-2.7-3.285c0-1.53,1.035-2.79,2.521-3.24c-1.351-1.125-2.16-2.79-2.16-4.725c0-3.735,2.97-6.39,7.02-6.39
		c0.854,0,1.755,0.135,2.52,0.405H201.071z M184.376,90.21c0,2.925,2.564,4.545,7.379,4.545c4.455,0,7.83-1.665,7.83-4.86
		c0-2.52-1.395-3.645-6.165-4.005l-3.869-0.27C186.582,86.205,184.376,87.6,184.376,90.21z M197.201,73.875
		c0-2.97-1.979-4.905-5.175-4.905c-3.285,0-5.265,1.935-5.265,4.905s1.979,4.95,5.265,4.95
		C195.221,78.825,197.201,76.845,197.201,73.875z"/>
	<path fill="#FFFFFF" d="M214.391,74.325c0,2.115,0.045,8.234,0.09,8.864c0.09,0.99,0.54,1.44,1.484,1.44h2.88
		c0.315,0,0.36,0.135,0.36,0.314v1.08c0,0.226-0.045,0.36-0.405,0.36c-0.63,0-2.024-0.135-6.255-0.135
		c-3.96,0-5.715,0.135-6.209,0.135c-0.315,0-0.36-0.135-0.36-0.315v-1.125c0-0.225,0.045-0.314,0.27-0.314h1.936
		c1.529,0,1.845-0.225,1.979-1.44c0.045-0.45,0.181-7.47,0.181-12.689v-5.175c0-2.97-0.046-7.875-0.091-8.325
		c-0.09-0.9-0.54-0.99-1.755-0.99h-2.564c-0.225,0-0.271-0.09-0.271-0.36v-1.08c0-0.225,0.046-0.315,0.271-0.315
		c0.495,0,2.115,0.135,6.39,0.135c0.81,0,3.465-0.135,4.95-0.135c5.084,0,7.47,0.495,10.034,2.25c2.115,1.44,3.42,3.959,3.42,6.524
		c0,5.67-4.274,9.18-11.43,9.18c-1.665,0-3.465-0.045-4.904-0.225V74.325z M214.391,70.365c0.899,0.27,2.385,0.405,4.14,0.405
		c2.745,0,5.175-1.485,6.345-3.06c0.989-1.305,1.17-2.97,1.17-4.545c0-5.895-5.49-7.47-8.145-7.47c-0.766,0-2.61,0-3.51,0.315
		V70.365z"/>
	<path fill="#FFFFFF" d="M245.71,84.27c0.72,0,1.35-0.359,1.574-0.675c0.181-0.225,0.271-0.315,0.45-0.18l0.45,0.36
		c0.135,0.136,0.225,0.36-0.045,0.811c-0.36,0.675-1.215,2.205-3.51,2.205c-1.62,0-2.79-1.17-3.195-3.016h-0.09
		c-0.945,1.125-2.43,2.07-4.455,2.745c-0.854,0.271-1.665,0.271-2.654,0.271c-1.08,0-2.7-0.9-2.7-3.735c0-2.07,0.945-3.87,4.5-5.445
		c2.024-0.9,4.364-1.98,5.085-2.61v-2.88c-0.091-0.765-0.136-1.935-0.63-2.52c-0.495-0.585-1.396-0.99-2.7-0.99
		c-0.9,0-2.295,0.36-2.925,0.945s-0.226,1.26-0.226,2.07c0,1.575-0.54,2.565-2.385,2.565c-0.72,0-1.08-0.405-1.08-1.44
		c0-1.44,1.261-3.15,3.105-4.23c1.89-1.125,3.465-1.575,5.489-1.575c2.115,0,2.97,0.63,3.601,1.215
		c0.944,0.945,0.989,1.98,0.989,3.195v9.54C244.36,83.459,244.9,84.27,245.71,84.27z M241.076,76.35
		c-1.62,1.215-6.03,2.115-6.03,5.85c0,1.665,0.99,2.475,2.34,2.475c1.305,0,3.69-1.575,3.69-2.79V76.35z"/>
	<path fill="#FFFFFF" d="M252.819,74.28c0-2.295-0.36-2.745-1.62-3.419l-0.855-0.45c-0.27-0.09-0.359-0.135-0.359-0.315v-0.27
		c0-0.18,0.09-0.27,0.359-0.405l4.455-2.295c0.27-0.135,0.45-0.18,0.63-0.18c0.271,0,0.315,0.27,0.315,0.54l0.225,3.195h0.18
		c1.351-2.07,3.465-3.915,5.4-3.915c1.529,0,2.295,0.945,2.295,1.98c0,1.305-1.08,2.205-1.891,2.205c-0.494,0-0.944-0.18-1.305-0.36
		c-0.359-0.225-0.899-0.36-1.484-0.36c-0.721,0-1.891,0.45-2.655,1.89c-0.27,0.495-0.45,1.305-0.45,1.44v9.359
		c0,1.395,0.315,1.845,1.26,1.845h2.115c0.271,0,0.315,0.135,0.315,0.405v0.81c0,0.271-0.045,0.405-0.226,0.405
		c-0.27,0-2.34-0.135-4.77-0.135c-2.79,0-4.679,0.135-4.95,0.135c-0.18,0-0.27-0.09-0.27-0.45V85.17c0-0.315,0.09-0.405,0.495-0.405
		h1.754c0.675,0,0.99-0.27,0.99-0.854c0.045-1.485,0.045-3.061,0.045-5.4V74.28z"/>
	<path fill="#FFFFFF" d="M272.258,72.84c0,2.34,0,9.135,0.045,10.53c0.045,0.765,0.226,1.395,1.17,1.395h2.025
		c0.404,0,0.495,0.135,0.495,0.405v0.765c0,0.271-0.091,0.45-0.271,0.45c-0.314,0-2.295-0.135-5.085-0.135
		c-2.88,0-4.68,0.135-5.085,0.135c-0.225,0-0.314-0.18-0.314-0.45V85.17c0-0.315,0.09-0.405,0.585-0.405h2.16
		c0.495,0,0.944-0.314,0.989-1.125c0.046-1.395,0.046-9.135,0.046-11.745V69.06c0-3.195-0.046-7.29-0.136-8.459
		c-0.09-1.53-0.81-2.25-2.25-2.7l-0.899-0.315c-0.226-0.09-0.271-0.135-0.271-0.225V57c0-0.135,0.136-0.225,0.405-0.315
		c1.575-0.72,3.6-1.53,5.265-2.61c0.405-0.27,0.675-0.36,0.945-0.36c0.314,0,0.405,0.225,0.359,0.81
		c-0.045,2.475-0.18,11.834-0.18,14.31V72.84z"/>
	<path fill="#FFFFFF" d="M280.808,73.155c0-1.53-0.27-2.34-2.52-2.7c-0.315-0.045-0.405-0.135-0.405-0.315v-0.405
		c0-0.135,0.09-0.225,0.314-0.315c1.44-0.54,3.15-1.26,4.86-2.205c0.359-0.18,0.585-0.27,0.854-0.27c0.226,0,0.271,0.225,0.226,0.54
		c-0.09,0.765-0.09,3.6-0.09,7.334v4.905c0,1.755,0,3.375,0.045,3.87c0.09,0.855,0.225,1.17,0.72,1.17h2.07
		c0.359,0,0.449,0.135,0.449,0.405v0.765c0,0.315-0.09,0.45-0.404,0.45c-0.36,0-2.431-0.135-4.32-0.135
		c-2.609,0-4.364,0.135-4.859,0.135c-0.226,0-0.36-0.09-0.36-0.36v-0.899c0-0.271,0.135-0.36,0.45-0.36h2.205
		c0.495,0,0.675-0.18,0.72-0.9c0.045-1.35,0.045-2.745,0.045-4.095V73.155z M278.692,59.341c0-1.17,0.99-2.52,2.835-2.52
		c1.665,0,2.43,1.35,2.43,2.385c0,1.215-0.81,2.655-2.699,2.655C280.223,61.86,278.692,60.826,278.692,59.341z"/>
	<path fill="#FFFFFF" d="M304.703,84.27c0.72,0,1.35-0.359,1.574-0.675c0.181-0.225,0.271-0.315,0.45-0.18l0.45,0.36
		c0.135,0.136,0.225,0.36-0.045,0.811c-0.36,0.675-1.215,2.205-3.51,2.205c-1.62,0-2.79-1.17-3.195-3.016h-0.09
		c-0.945,1.125-2.43,2.07-4.455,2.745c-0.854,0.271-1.665,0.271-2.654,0.271c-1.08,0-2.7-0.9-2.7-3.735c0-2.07,0.945-3.87,4.5-5.445
		c2.024-0.9,4.364-1.98,5.085-2.61v-2.88c-0.091-0.765-0.136-1.935-0.63-2.52c-0.495-0.585-1.396-0.99-2.7-0.99
		c-0.9,0-2.295,0.36-2.925,0.945s-0.226,1.26-0.226,2.07c0,1.575-0.54,2.565-2.385,2.565c-0.72,0-1.08-0.405-1.08-1.44
		c0-1.44,1.261-3.15,3.105-4.23c1.89-1.125,3.465-1.575,5.489-1.575c2.115,0,2.97,0.63,3.601,1.215
		c0.944,0.945,0.989,1.98,0.989,3.195v9.54C303.353,83.459,303.893,84.27,304.703,84.27z M300.068,76.35
		c-1.62,1.215-6.03,2.115-6.03,5.85c0,1.665,0.99,2.475,2.34,2.475c1.305,0,3.69-1.575,3.69-2.79V76.35z"/>
	<path fill="#FFFFFF" d="M324.276,74.73c0-3.33-0.63-4.185-1.35-4.86c-0.585-0.54-1.89-0.81-2.88-0.81c-1.17,0-3.06,0.585-4.32,2.61
		c-0.54,0.9-0.63,1.755-0.63,3.015v8.91c0,0.72,0.271,1.17,0.9,1.17h1.62c0.404,0,0.449,0.09,0.449,0.405v0.72
		c0,0.315-0.045,0.495-0.359,0.495c-0.405,0-1.62-0.135-4.095-0.135c-2.385,0-3.825,0.135-4.186,0.135
		c-0.27,0-0.359-0.09-0.359-0.405v-0.81c0-0.36,0.09-0.405,0.54-0.405h1.529c0.405,0,0.63-0.27,0.676-1.125
		c0.045-0.765,0.045-1.575,0.045-2.34v-8.01c0-0.9-0.181-1.71-1.261-2.295l-0.944-0.495c-0.226-0.135-0.315-0.225-0.315-0.36v-0.36
		c0-0.135,0.181-0.315,0.271-0.36l3.96-2.025c0.359-0.18,0.675-0.27,0.854-0.27c0.271,0,0.405,0.315,0.405,0.63l0.18,2.61h0.135
		c1.351-1.845,4.005-3.42,6.615-3.42c2.34,0,4.14,1.35,5.085,3.465h0.225c1.35-1.755,3.915-3.465,6.615-3.465
		c1.574,0,2.97,0.27,4.05,1.35c1.034,1.08,2.159,2.07,2.159,5.535v10.035c0,0.675,0.405,0.9,0.945,0.9h1.215
		c0.405,0,0.495,0.09,0.495,0.405v0.765c0,0.315-0.09,0.45-0.315,0.45c-0.314,0-1.574-0.135-3.734-0.135
		c-2.25,0-3.87,0.135-4.185,0.135c-0.271,0-0.36-0.135-0.36-0.45V85.17c0-0.315,0.09-0.405,0.585-0.405h1.125
		c0.495,0,0.854-0.225,0.9-0.854c0.09-1.036,0.09-2.655,0.09-3.646v-6.66c0-1.485-0.271-2.79-1.306-3.6
		c-0.81-0.63-1.979-0.945-3.329-0.945c-1.351,0-3.195,1.035-3.915,2.34c-0.675,1.305-0.63,2.52-0.63,4.545v7.785
		c0,0.585,0.225,1.035,0.899,1.035h1.53c0.405,0,0.495,0.09,0.495,0.405v0.72c0,0.36-0.09,0.495-0.315,0.495
		c-0.314,0-1.484-0.135-4.005-0.135c-2.43,0-3.96,0.135-4.229,0.135c-0.225,0-0.315-0.135-0.315-0.45v-0.72
		c0-0.36,0.046-0.45,0.45-0.45h1.305c0.721,0,0.99-0.18,0.99-0.765V74.73z"/>
	<path fill="#FFFFFF" d="M348.893,74.28c-0.09,0.405-0.135,1.125-0.135,2.16c0,4.41,2.79,7.74,6.39,7.74
		c2.745,0,4.68-1.575,5.444-3.06c0.09-0.18,0.271-0.27,0.405-0.225l0.585,0.315c0.135,0.045,0.225,0.18,0,0.675
		c-0.81,1.8-3.149,4.905-7.154,4.905c-2.565,0-5.4-0.766-7.065-3.195c-1.574-2.295-1.979-3.96-1.979-7.11
		c0-1.755,0.45-4.77,2.835-7.155c1.935-1.98,4.185-2.385,6.435-2.385c5.175,0,6.614,4.86,6.614,6.615c0,0.63-0.539,0.72-1.26,0.72
		H348.893z M356.047,72.93c0.855,0,1.216-0.225,1.216-0.63c0-1.035-0.54-4.005-3.465-4.005c-1.98,0-3.87,1.305-4.726,4.635H356.047z
		"/>
	<path fill="#FFFFFF" d="M383.047,83.82c0,0.72,0.405,0.945,0.99,0.945h1.439c0.405,0,0.495,0.135,0.495,0.405v0.72
		c0,0.315-0.09,0.495-0.36,0.495c-0.314,0-1.71-0.135-4.274-0.135c-2.295,0-3.734,0.135-4.05,0.135c-0.27,0-0.36-0.135-0.36-0.495
		v-0.72c0-0.315,0.136-0.405,0.585-0.405h1.306c0.495,0,0.854-0.225,0.899-1.035c0.045-1.17,0.09-2.61,0.09-3.78V74.01
		c0-1.8,0-3.105-1.305-4.05c-1.08-0.81-2.16-0.81-3.285-0.81c-0.72,0-2.295,0.315-3.645,1.755c-0.899,0.99-1.035,2.205-1.035,3.06
		v9.315c0,1.215,0.136,1.485,1.08,1.485h1.125c0.36,0,0.45,0.135,0.45,0.45v0.765c0,0.271-0.09,0.405-0.315,0.405
		c-0.314,0-1.529-0.135-3.914-0.135c-2.295,0-3.735,0.135-4.005,0.135c-0.226,0-0.315-0.135-0.315-0.405v-0.81
		c0-0.271,0.09-0.405,0.45-0.405h1.305c0.585,0,0.9-0.135,0.9-0.9v-10.53c0-1.35-0.721-2.115-1.846-2.655l-0.359-0.18
		c-0.315-0.135-0.36-0.27-0.36-0.405V69.87c0-0.225,0.181-0.36,0.405-0.45l3.87-2.16c0.359-0.18,0.63-0.315,0.81-0.315
		c0.225,0,0.315,0.18,0.36,0.54l0.314,2.745h0.09c1.306-1.62,3.915-3.285,6.165-3.285c1.35,0,2.745,0.27,3.825,0.99
		c1.35,0.9,2.475,3.15,2.475,4.275V83.82z"/>
	<path fill="#FFFFFF" d="M394.432,80.625c0,3.375,1.53,3.96,2.34,3.96c1.035,0,2.34-0.18,2.97-0.585
		c0.226-0.135,0.405-0.09,0.54,0.09l0.226,0.405c0.135,0.18,0.045,0.359-0.09,0.495c-0.45,0.449-2.295,1.8-4.995,1.8
		c-2.205,0-4.365-2.115-4.365-3.825c0-1.845,0.136-5.805,0.136-6.435v-0.99c0-0.81,0.045-3.87,0.09-5.76h-2.745
		c-0.405,0-0.675-0.18-0.675-0.54s0.27-0.495,0.81-0.81c1.08-0.63,4.545-4.095,5.13-5.625c0.135-0.36,0.36-0.45,0.63-0.45
		c0.36,0,0.45,0.315,0.45,0.675l-0.225,4.41h6.254c0.271,0,0.405,0.225,0.315,0.405l-0.45,1.575c-0.045,0.225-0.135,0.36-0.404,0.36
		h-5.806c-0.09,2.07-0.135,4.275-0.135,6.345V80.625z"/>
	<path fill="#FFFFFF" d="M403.432,84.765c0-1.035,0.899-1.8,1.8-1.8c0.945,0,1.8,0.765,1.8,1.8c0,0.99-0.854,1.8-1.8,1.8
		C404.331,86.564,403.432,85.755,403.432,84.765z"/>
	<path fill="#FFFFFF" d="M412.132,78.561c0-4.388,3.525-7.951,7.989-7.951c4.463,0,7.913,3.563,7.913,7.951s-3.45,7.989-7.913,7.989
		C415.657,86.55,412.132,82.949,412.132,78.561z M426.534,78.561c0-3.788-2.588-6.638-6.413-6.638c-3.826,0-6.489,2.85-6.489,6.638
		c0,3.789,2.663,6.677,6.489,6.677C423.946,85.237,426.534,82.349,426.534,78.561z"/>
	<path fill="#FFFFFF" d="M432.382,70.947h1.463l-0.037,3.076c0.862-2.213,2.513-3.375,4.463-3.375c1.2,0,2.025,0.225,2.775,0.788
		l-0.713,1.2c-0.45-0.337-1.125-0.638-2.25-0.638c-2.176,0-4.238,1.838-4.238,5.551v8.702h-1.463V70.947z"/>
	<path fill="#FFFFFF" d="M456.646,70.947v1.238h-3.45c1.05,0.938,1.65,2.213,1.65,3.751c0,3.113-2.363,5.363-5.739,5.363
		c-1.162,0-2.175-0.225-3.037-0.713c-1.2,0.188-1.801,0.938-1.801,1.838c0,1.163,0.825,1.726,2.213,1.838l3.976,0.375
		c4.426,0.413,6.414,1.763,6.414,4.651c0,3.375-3.413,5.326-7.989,5.326c-4.613,0-7.651-1.838-7.651-5.026
		c0-2.325,1.65-3.601,3.976-4.275c-1.5-0.413-2.25-1.463-2.25-2.739c0-1.275,0.862-2.325,2.101-2.7
		c-1.126-0.938-1.801-2.325-1.801-3.938c0-3.113,2.476-5.326,5.851-5.326c0.713,0,1.463,0.113,2.101,0.337H456.646z M442.731,89.551
		c0,2.438,2.139,3.788,6.151,3.788c3.713,0,6.526-1.388,6.526-4.051c0-2.101-1.163-3.038-5.139-3.338l-3.226-0.226
		C444.569,86.212,442.731,87.375,442.731,89.551z M453.421,75.936c0-2.476-1.65-4.088-4.313-4.088c-2.737,0-4.388,1.613-4.388,4.088
		c0,2.475,1.65,4.125,4.388,4.125C451.771,80.061,453.421,78.411,453.421,75.936z"/>
</g>
</svg>
