<?xml version="1.0" encoding="utf-8"?>
<!-- Generator: Adobe Illustrator 17.1.0, SVG Export Plug-In . SVG Version: 6.00 Build 0)  -->
<!DOCTYPE svg PUBLIC "-//W3C//DTD SVG 1.1//EN" "http://www.w3.org/Graphics/SVG/1.1/DTD/svg11.dtd">
<svg version="1.1" id="Layer_1" xmlns="http://www.w3.org/2000/svg" xmlns:xlink="http://www.w3.org/1999/xlink" x="0px" y="0px"
	 viewBox="0 0 300 82" style="enable-background:new 0 0 300 82;" xml:space="preserve">
<style type="text/css">
	.st0{fill:none;}
	.st1{fill:#747474;}
	.st2{fill:#7D7D7D;}
	.st3{fill:#D0D0D0;}
	.st4{fill:#AEAEAE;}
	.st5{opacity:0.15;}
	.st6{fill:#3C3C3C;}
</style>
<polygon class="st0" points="23.4,74.2 43.7,40.4 23.4,74.2 "/>
<polygon class="st0" points="23.9,6.6 43.7,40.4 23.9,6.6 "/>
<path class="st1" d="M71.7,40.5c0,0.1,0,0.2,0,0.3C71.7,56.4,59.1,69,43.5,69c-5.3,0-10.3-1.5-14.5-4l-5.5,9.2l0.1,0L23.1,75l11,5.8
	h19.4l17.2-9l11-16l1.8-15.2L71.7,40.5z"/>
<path class="st2" d="M23.4,74.2L29,65C20.8,60,15.3,51.1,15.3,40.8c0-10.5,5.8-19.7,14.3-24.5l-5.7-9.7l0,0l-0.2-0.3L10.3,18.2
	L3.4,36.4l2.3,19.3l11,16l6.2,3.3L23.4,74.2L23.4,74.2L23.4,74.2z"/>
<path class="st3" d="M77.1,18.2L62.6,5.4L43.7,0.7L24.9,5.4l-1.1,1l0.2,0.3l5.7,9.7c4.1-2.3,8.9-3.7,13.9-3.7
	c15.5,0,28,12.4,28.2,27.9l11.9,0l0.5-4.1L77.1,18.2z"/>
<circle class="st4" cx="43.5" cy="40.8" r="28.6"/>
<g class="st5">
	<circle class="st6" cx="33" cy="22.5" r="11"/>
</g>
<g class="st5">
	<circle class="st6" cx="43.5" cy="75.1" r="1.9"/>
</g>
<g class="st5">
	<circle class="st6" cx="59.5" cy="71.2" r="1.9"/>
</g>
<g class="st5">
	<circle class="st6" cx="71.9" cy="60.3" r="1.9"/>
</g>
<g class="st5">
	<circle class="st6" cx="77.8" cy="44.9" r="1.9"/>
</g>
<g class="st5">
	<circle class="st6" cx="75.8" cy="28.6" r="1.9"/>
</g>
<g class="st5">
	<circle class="st6" cx="66.5" cy="15" r="1.9"/>
</g>
<g class="st5">
	<circle class="st6" cx="51" cy="7.3" r="1.9"/>
</g>
<g class="st5">
	<circle class="st6" cx="34.5" cy="7.2" r="1.9"/>
</g>
<g class="st5">
	<path class="st6" d="M19.6,13.4c0.8-0.7,2-0.6,2.7,0.2c0.7,0.8,0.6,2-0.2,2.7c-0.8,0.7-2,0.6-2.7-0.2
		C18.8,15.3,18.8,14.1,19.6,13.4z"/>
</g>
<g class="st5">
	<path class="st6" d="M9.2,25.4c0.3-0.9,1.3-1.3,2.2-1c0.9,0.3,1.3,1.3,1,2.2c-0.3,0.9-1.3,1.3-2.2,1C9.3,27.3,8.8,26.3,9.2,25.4z"
		/>
</g>
<g class="st5">
	<path class="st6" d="M7.2,41.1c-0.1-0.9,0.6-1.8,1.5-1.9c0.9-0.1,1.8,0.6,1.9,1.5c0.1,0.9-0.6,1.8-1.5,1.9
		C8.2,42.8,7.3,42.1,7.2,41.1z"/>
</g>
<g class="st5">
	<circle class="st6" cx="14.2" cy="55" r="1.7"/>
</g>
<g class="st5">
	<path class="st6" d="M26.6,72.8c-0.9-0.5-1.3-1.6-0.8-2.6c0.5-0.9,1.6-1.3,2.6-0.8c0.9,0.5,1.3,1.6,0.8,2.6
		C28.7,72.9,27.5,73.3,26.6,72.8z"/>
</g>
<g class="st5">
	<circle class="st6" cx="59.8" cy="41.8" r="16.1"/>
</g>
<g>
	<path class="st6" d="M107.3,21.1c0.8,0,2,0.1,3.2,0.1c1,0,1.6,0,2-0.1c0.1,1.5,1.5,9.1,2,11.9c3-4.2,7.8-10.8,8.5-11.9
		c0.5,0,1.2,0.1,1.9,0.1c1.1,0,2.4-0.1,3.2-0.1l-0.2,0.7c-0.5,0-1.1,0.1-1.6,0.2c-0.4,0-0.6,0.2-0.7,0.6c-0.7,2.3-2.4,9.9-2.9,12.4
		c-0.1,0.7,0.1,0.8,0.9,0.9l1.4,0.1l-0.3,0.7c-0.8,0-2.4-0.1-3.9-0.1c-1.5,0-2.5,0-3.6,0.1l0.2-0.7c1.9-0.1,2.1-0.3,2.4-1.1
		c0.6-2.1,1.8-6.9,3.5-12.8h0c-4.4,6.2-8.4,12-10.1,14.6c-0.4,0-0.8,0.1-1.1,0.1c-0.3-2.7-1.4-9.8-1.9-14.1h0
		c-1.7,5.1-3.3,9.8-3.8,11.8c-0.3,1.2,0,1.4,2.3,1.5l-0.3,0.7c-0.8,0-1.9-0.1-3.1-0.1c-1.1,0-3,0.1-3.4,0.1l0.2-0.7
		c0.6-0.1,1.2-0.1,1.5-0.2c0.5-0.1,0.9-0.3,1.2-1c1-2.4,2.8-7.3,4.5-12.2c0.1-0.3,0-0.5-0.4-0.5l-2-0.2L107.3,21.1z"/>
	<path class="st6" d="M134.1,26.1c2.6,0,4.4,1.3,4.4,4c0,2.3-1.2,4.7-3.2,5.9c-1.1,0.7-2.4,1-4,1c-2.2,0-4.4-0.8-4.4-3.8
		c0-2.4,1.3-4.9,3.4-6.1C131.3,26.5,132.6,26.1,134.1,26.1L134.1,26.1z M134,26.9c-1,0-2,0.5-2.9,1.6c-1.1,1.3-1.8,3.6-1.8,5.3
		c0,1.8,1,2.5,2.1,2.5c0.9,0,1.8-0.3,2.5-1.1c1.4-1.4,2.1-3.9,2.1-5.8C136.1,28,135.6,26.9,134,26.9L134,26.9z"/>
	<path class="st6" d="M153.6,33.8c-1.1,2.1-2.7,3.3-4.4,3.3c-1.7,0-1.7-1.4-1-3.2c0.6-1.6,1.4-3.5,1.9-5c0.3-0.7,0.2-1.6-0.8-1.6
		c-2.5,0-5,3.9-6.1,6.5c-0.3,0.8-0.7,1.7-1.1,3c-0.9,0-1.7,0.1-2.4,0.2c1.1-2.8,2.5-7.3,2.8-9c0.1-0.4,0-0.5-0.3-0.5l-1.7,0l0.3-0.7
		c1.5-0.1,3-0.3,4.5-0.6c-0.5,1.7-1,3.3-1.4,4.5c1.6-2.3,3.7-4.5,6.5-4.5c0.7,0,1.2,0.2,1.5,0.5c0.8,0.7,0.5,2.1,0.2,2.8
		c-0.6,1.6-1.5,3.9-2,5.4c-0.2,0.5-0.1,0.9,0.2,0.9c0.8,0,1.9-1.1,2.6-2.5L153.6,33.8z"/>
	<path class="st6" d="M165.2,33.9c-1.3,2-3.8,3.1-6.1,3.1c-2.4,0-3.9-1.2-3.9-3.7c0-2.4,1.1-4.6,3.2-6.1c1.1-0.8,2.4-1.1,3.8-1.1
		c2.6,0,3.4,1.5,3.4,2.8c0,1.2-1.1,1.8-2.2,2.2c-1.4,0.6-4,0.9-5.6,1.1c-0.1,0.3-0.1,0.8-0.1,1.2c0,1.5,0.7,2.7,2.4,2.7
		c2.1,0,3.7-1.2,4.6-3.4h0.4L165.2,33.9z M162,26.9c-1.2,0-3,1-4,4.5c1.4-0.1,3.1-0.4,4-0.7c1-0.4,1.5-1.1,1.5-2.1
		C163.5,27.5,162.9,26.9,162,26.9L162,26.9z"/>
	<path class="st6" d="M171,26c0,1.3,0.6,7.1,0.8,8.8c0.9-1.7,1.9-3.4,2.9-5c1.4-2.3,2.8-3.8,4.8-3.9l0.1,0.6
		c-1.4,0.4-2.8,2.1-3.8,3.7c-1.7,2.5-3.6,5.6-5,8c-2.1,3.7-3.5,4.7-5.2,4.7c-1.4,0-2-1-1.9-1.8c0-1,0.7-1.4,1.2-1.4
		c0.5,0,0.7,0.3,0.8,0.7c0.2,0.6,0.5,0.9,0.9,0.9c1.2,0,2.2-1.3,3.5-3.8c-0.4-0.3-0.4-0.9-0.5-1.7c-0.2-2.3-0.8-6.7-1-7.9
		c-0.1-0.5-0.4-0.6-2.2-0.6l0.2-0.7C167.8,26.6,169.8,26.4,171,26z"/>
	<path class="st6" d="M176,38.9c1.4-0.3,2.6-1.1,3-2.5c0-0.1-0.1-0.1-0.2,0c-0.2,0.1-0.5,0.2-0.7,0.2c-0.6,0-1-0.5-1-1.2
		c0-1,0.8-1.7,1.7-1.7c0.9,0,1.5,0.7,1.5,1.9c0,2.3-2,3.8-4,4L176,38.9z"/>
	<path class="st6" d="M191.4,21.1c0.6,0,2.3,0.1,3.4,0.1c1,0,2.1-0.1,4-0.1c2.8,0,3.7,0.5,4.4,1.2c0.7,0.7,1,1.8,1,2.8
		c0,1.8-0.8,3.4-2.2,4.5c-1.4,1-3.2,1.3-4.5,1.3c-0.9,0-1.7-0.1-2.2-0.3l0.2-0.8c0.4,0.1,1,0.2,1.6,0.2c0.8,0,1.8-0.2,2.5-0.8
		c1.3-1,1.9-2.6,1.9-4.3c0-1-0.3-1.8-0.7-2.2c-0.4-0.5-1.2-0.9-2.9-0.9c-1,0-1.4,0.1-1.5,0.5c-0.3,0.7-1,3.1-2.1,6.9
		c-1.1,3.9-1.4,5.2-1.5,5.7c-0.1,0.5,0,0.7,0.8,0.8l1.9,0.1l-0.3,0.7c-0.9,0-2.4-0.1-4.2-0.1c-1.6,0-3.1,0.1-3.7,0.1l0.2-0.7
		l1.2-0.1c0.8-0.1,1.1-0.3,1.3-0.9c0.5-1.3,0.9-2.5,2-6.4c1.1-3.9,1.5-5.4,1.6-6c0.1-0.5,0-0.6-0.6-0.7l-1.8-0.2L191.4,21.1z"/>
	<path class="st6" d="M211.5,26.1c2.6,0,4.4,1.3,4.4,4c0,2.3-1.2,4.7-3.2,5.9c-1.1,0.7-2.4,1-4,1c-2.2,0-4.4-0.8-4.4-3.8
		c0-2.4,1.3-4.9,3.4-6.1C208.8,26.5,210.1,26.1,211.5,26.1L211.5,26.1z M211.5,26.9c-1,0-2,0.5-2.9,1.6c-1.1,1.3-1.8,3.6-1.8,5.3
		c0,1.8,1,2.5,2.1,2.5c0.9,0,1.8-0.3,2.5-1.1c1.4-1.4,2.1-3.9,2.1-5.8C213.6,28,213.1,26.9,211.5,26.9L211.5,26.9z"/>
	<path class="st6" d="M219.9,20.6c1.8,0,3.6-0.2,4.7-0.4c-0.6,1.3-1.4,3.9-2.6,7.7c-1,3.5-1.7,5.7-2,7c-0.1,0.6-0.1,1,0.3,1
		c0.7,0,2-1.1,2.7-2.6l0.5,0.5c-1.1,2.2-2.7,3.3-4.4,3.3c-1.7,0-1.7-1.4-1.2-3.2c0.5-1.6,1.1-3.4,1.8-5.9c1.1-3.6,1.5-5,1.8-6.3
		c0.1-0.4,0-0.5-0.4-0.5l-1.6,0L219.9,20.6z"/>
	<path class="st6" d="M225.4,26.7c1.5-0.1,3.3-0.3,4.5-0.6l0.1,0.1c-0.9,2.1-2.5,7.1-2.9,8.7c-0.1,0.6-0.2,0.9,0.2,0.9
		c0.9,0,2.2-1.4,2.7-2.6l0.5,0.5c-1.1,2-2.6,3.3-4.5,3.3c-1.6,0-1.6-1.1-1.1-2.8c0.6-1.7,1.5-4.5,2.1-6.4c0.1-0.3,0.1-0.5-0.3-0.4
		c-0.3,0-1.1,0-1.7,0L225.4,26.7z M229.6,21.2c0.8,0,1.1,0.5,1.1,1.3c0,0.9-0.8,1.5-1.5,1.5c-0.6,0-1.2-0.5-1.1-1.3
		C228.2,21.7,229,21.2,229.6,21.2L229.6,21.2z"/>
	<path class="st6" d="M238.6,33.8c-1.1,2.2-3.1,3.2-4.7,3.2c-2.2,0-2.1-1.4-1.7-2.8c0.6-2,1.6-5.2,2.1-6.7l-2-0.2l0.3-0.7h2
		c0.4-1.2,0.7-2.2,0.9-3c0.9-0.1,2.1-0.4,2.6-0.6c-0.2,0.6-0.8,2.4-1.2,3.6h3.1l-0.4,0.7l-3,0.2c-0.4,1.2-1.8,5.8-2.2,7.5
		c-0.1,0.5-0.1,1,0.6,1c1.2,0,2.7-1.5,3.2-2.9L238.6,33.8z"/>
	<path class="st6" d="M240.9,26.7c1.5-0.1,3.3-0.3,4.5-0.6l0.1,0.1c-0.9,2.1-2.5,7.1-2.9,8.7c-0.1,0.6-0.2,0.9,0.2,0.9
		c0.9,0,2.2-1.4,2.7-2.6l0.5,0.5c-1.1,2-2.6,3.3-4.5,3.3c-1.6,0-1.6-1.1-1.1-2.8c0.6-1.7,1.5-4.5,2.1-6.4c0.1-0.3,0.1-0.5-0.3-0.4
		c-0.3,0-1.1,0-1.7,0L240.9,26.7z M245.1,21.2c0.8,0,1.1,0.5,1.1,1.3c0,0.9-0.8,1.5-1.5,1.5c-0.6,0-1.2-0.5-1.1-1.3
		C243.7,21.7,244.5,21.2,245.1,21.2L245.1,21.2z"/>
	<path class="st6" d="M257.5,33.9c-0.8,1.3-2.9,3.1-5.8,3.1c-2.6,0-4.3-1.2-4.3-4c0-2.4,1.3-4.7,3.6-6c1.1-0.6,2.2-0.9,3.5-0.9
		c2.3,0,3.5,1.1,3.5,2.6c0,1.1-0.7,1.6-1.4,1.6c-0.4,0-0.7-0.1-0.8-0.4c-0.2-0.2-0.2-0.5,0-0.7c0.1-0.3,0.3-0.7,0.3-1
		c0-0.9-0.5-1.4-1.7-1.4c-1.3,0-2.3,0.6-3.3,2c-0.8,1.2-1.2,2.9-1.2,4.2c0,1.9,1,2.9,2.5,2.9c2,0,3.6-1.2,4.6-3.4h0.4L257.5,33.9z"
		/>
	<path class="st6" d="M269.1,26.3c-0.5,1-1,2.4-1.4,4.1l-0.6,0.1c0.4-2.2-0.3-3.6-2.3-3.6c-1.2,0-2,0.7-2,1.7c0,0.7,0.4,1.1,1,1.4
		c0.6,0.4,1.8,0.8,2.6,1.2c1,0.5,1.6,1.1,1.6,2.3c0,1.1-0.6,2-1.3,2.5c-0.8,0.7-2,1-3.7,1c-1.5,0-3-0.5-4-1.1
		c0.3-0.7,0.8-2.3,1.2-3.8l0.6-0.1c-0.1,0.4-0.2,1.3-0.2,1.7c0,1.6,1.1,2.5,2.9,2.5c1.3,0,2.4-0.6,2.4-1.8c0-0.7-0.3-1-1-1.3
		c-0.6-0.3-1.5-0.7-2.3-1.1c-1-0.5-1.7-1.2-1.7-2.5c0-1,0.5-1.9,1.3-2.6c0.7-0.5,1.6-0.8,2.9-0.8c1.3,0,2.4,0.5,2.8,1l0.7-1.1
		L269.1,26.3z"/>
	<path class="st6" d="M113.7,55.2c-0.5,1-1.6,2.7-3,2.7c-1.3,0-0.9-1.5-0.7-2.3c0.1-0.4,0.3-1,0.4-1.4h0c-1.1,1.6-3,3.8-5,3.8
		c-1.2,0-1.7-0.9-1.7-2.1c0-2.4,1.6-6.1,4-7.6c0.9-0.6,1.8-0.9,2.5-0.9c1,0,1.8,0.4,1.9,1.2l0.3-1h1.2c-0.9,2.6-1.9,6-2.5,8.7
		c-0.1,0.7,0,1,0.3,1c0.9,0,1.9-1.4,2.2-2.3L113.7,55.2z M104.9,55.8c0,0.6,0.2,1.5,1,1.5c1.4,0,2.8-1.3,4-3.4
		c0.7-1.2,1.6-3.8,1.6-4.6c0-1.1-0.4-1.6-1.4-1.6c-0.9,0-1.7,0.4-2.7,1.5C105.9,51,104.9,53.8,104.9,55.8L104.9,55.8z"/>
	<path class="st6" d="M124.5,55.3c-0.6,1.3-1.9,2.6-3.1,2.6c-1.1,0-1.1-1.1-0.6-2.4c0.6-1.9,1.5-4.1,2.1-6c0.2-0.7,0.3-1.7-0.6-1.7
		c-2.5,0-4.9,4-5.8,6.4c-0.3,1-0.6,1.7-1.1,3.4c-0.4,0-0.9,0.1-1.2,0.2c1.1-3.1,2.3-7.2,2.8-9.4c0-0.2,0.1-0.3-0.2-0.3h-1.3l0.1-0.2
		c1-0.1,2.1-0.3,3-0.5c-0.5,1.5-0.9,3-1.3,4.5c1.2-2,3.3-4.5,5.7-4.5c0.5,0,0.8,0.1,1,0.3c0.6,0.5,0.3,1.7,0,2.5
		c-0.6,1.8-1.6,4.3-2.2,6.1c-0.2,0.7,0,1,0.2,1c0.8,0,1.9-1.3,2.3-2.2L124.5,55.3z"/>
	<path class="st6" d="M135.9,55.2c-0.7,1.5-1.8,2.6-3,2.6c-1.1,0-0.9-1.4-0.5-2.6c0.1-0.3,0.2-0.7,0.3-1.1c-0.8,1.4-2.8,3.7-5.2,3.7
		c-1.3,0-1.8-1-1.8-2.3c0-2.5,1.5-5.5,3.5-7.2c0.8-0.7,1.8-1.1,3-1.1c1,0,1.8,0.4,2.1,1.2c1-3,1.7-5.5,1.9-6.5
		c0.1-0.2,0-0.4-0.2-0.4h-1.5l0.1-0.3c1,0,2.6-0.2,3.4-0.4c-0.6,1.7-2,6.2-3.3,10.6c-0.6,2-1,3.6-1.2,4.5c-0.1,0.5-0.3,1.2,0.1,1.2
		c0.8,0,1.8-1.3,2.2-2.2L135.9,55.2z M126.9,55.6c0,0.9,0.4,1.7,1.3,1.7c1.1,0,2.5-1,4-3.3c0.9-1.4,1.7-3.7,1.7-4.8
		c0-0.7-0.3-1.7-1.5-1.7c-1,0-1.8,0.5-2.7,1.4C128.1,50.6,126.9,53.1,126.9,55.6L126.9,55.6z"/>
	<path class="st6" d="M144.3,46.6c0.5-1.1,1.5-3.7,1.9-4.8c0.3,0.1,0.8,0.2,1.7,0.3c0.9,0,2.3,0.1,4.4,0.1h1.8c4.9,0,5.7,0,6.8-0.3
		c-0.2,0.5-1.1,2.8-1.6,4.8l-0.7,0.3c0.2-1.4,0.2-2.5,0.2-3c0-0.8-0.4-1-4.4-1c-0.6,1.6-1.2,3.9-1.9,6.4c-0.8,2.6-1.5,5.4-1.8,6.8
		c-0.1,0.5,0.1,0.6,0.6,0.7c0.9,0.1,1.5,0.1,2.1,0.2l-0.2,0.7c-0.9,0-2.9-0.1-4.3-0.1c-1.3,0-3,0-4.2,0.1l0.2-0.7
		c0.5,0,0.9,0,1.7-0.1c0.6-0.1,1-0.2,1.2-0.7c0.7-1.7,1.3-3.8,2.2-7c0.9-3.1,1.5-5.1,1.8-6.3c-3.8,0-4.1,0.2-5,1.2
		c-0.7,0.8-1.4,1.9-1.8,2.8L144.3,46.6z"/>
	<path class="st6" d="M159.4,47.6c1.3-0.1,3-0.3,4.2-0.6c-0.2,1.1-0.7,3-0.9,4.1h0.1c1.4-2.6,2.9-4.1,4.5-4.1c1,0,1.5,0.8,1.5,1.4
		c0,1-0.7,1.6-1.3,1.6c-0.4,0-0.6-0.2-0.7-0.6c-0.1-0.4-0.2-0.7-0.6-0.7c-1.3,0-3,3.1-3.7,4.8c-0.5,1.1-0.9,2.4-1.4,4.1
		c-1,0-1.8,0.1-2.5,0.2c1.2-3.2,2.5-7.7,2.5-9c0-0.3-0.1-0.4-0.3-0.5h-1.6L159.4,47.6z"/>
	<path class="st6" d="M182.2,54.6c-0.6,1.3-2,3.3-4.2,3.3c-1.5,0-1.6-1.3-1.2-2.6c0.1-0.3,0.1-0.5,0.2-0.8h-0.1
		c-1.2,1.7-3.2,3.3-5.8,3.3c-1.6,0-2.5-1.1-2.5-2.8c0-2.5,1.5-5.4,3.9-7c1.1-0.7,2.3-1.1,3.4-1.1c1.5,0,2.5,0.5,2.8,1.5l0.3-1.1h2.3
		c-0.8,2.2-2.1,6.5-2.5,8.3c-0.1,0.7-0.1,1,0.3,1c0.8,0,1.8-1.1,2.5-2.6L182.2,54.6z M171.1,55c0,1,0.4,1.7,1.3,1.7
		c1.4,0,3-1,4.2-3.1c0.7-1.1,1.5-2.9,1.5-3.8c0-1.4-0.9-1.9-1.8-1.9c-1,0-1.9,0.4-3,1.5C172,50.9,171.1,53.1,171.1,55L171.1,55z"/>
	<path class="st6" d="M196.7,54.7c-1.1,2.1-2.7,3.3-4.4,3.3c-1.7,0-1.7-1.4-1-3.2c0.6-1.6,1.4-3.5,1.9-5c0.3-0.7,0.2-1.6-0.8-1.6
		c-2.5,0-5,3.9-6.1,6.5c-0.3,0.8-0.7,1.7-1.1,3c-0.9,0-1.7,0.1-2.4,0.2c1.1-2.8,2.5-7.3,2.8-9c0.1-0.4,0-0.5-0.3-0.5l-1.7,0l0.3-0.7
		c1.5-0.1,3-0.3,4.5-0.6c-0.5,1.7-1,3.3-1.4,4.5c1.6-2.3,3.7-4.5,6.5-4.5c0.7,0,1.2,0.2,1.5,0.5c0.8,0.7,0.5,2.1,0.2,2.8
		c-0.6,1.6-1.5,3.9-2,5.4c-0.2,0.5-0.1,0.9,0.2,0.9c0.8,0,1.9-1.1,2.6-2.5L196.7,54.7z"/>
	<path class="st6" d="M207.8,47.2c-0.5,1-1,2.4-1.4,4.1l-0.6,0.1c0.4-2.2-0.3-3.6-2.3-3.6c-1.2,0-2,0.7-2,1.7c0,0.7,0.4,1.1,1,1.4
		c0.6,0.4,1.8,0.8,2.6,1.2c1,0.5,1.6,1.1,1.6,2.3c0,1.1-0.6,2-1.3,2.5c-0.8,0.7-2,1-3.7,1c-1.5,0-3-0.5-4-1.1
		c0.3-0.7,0.8-2.3,1.2-3.8l0.6-0.1c-0.1,0.4-0.2,1.3-0.2,1.7c0,1.6,1.1,2.5,2.9,2.5c1.3,0,2.4-0.6,2.4-1.8c0-0.7-0.3-1-1-1.3
		c-0.6-0.3-1.5-0.7-2.3-1.1c-1-0.5-1.7-1.2-1.7-2.5c0-1,0.5-1.9,1.3-2.6c0.7-0.5,1.6-0.8,2.9-0.8c1.3,0,2.4,0.5,2.8,1l0.7-1.1
		L207.8,47.2z"/>
	<path class="st6" d="M211.7,47.9c0.2-0.6,0.7-2.2,0.7-2.5c0.5-0.1,1.8-0.4,2.4-0.7l0.1,0.1c-0.6,1.6-1.2,3.9-1.8,5.8
		c1.4-1.7,3.3-3.5,5.7-3.5c1.8,0,2.9,1.2,2.9,3.2c0,2.7-1.8,6-4.6,7.1c-0.9,0.4-1.9,0.6-2.7,0.6c-1.2,0-2.5-0.3-3-1.2
		c-0.6,2.1-1.2,4.3-1.4,5c-0.2,0.7,0,0.8,0.5,0.9l1.8,0.2l-0.2,0.6h-2.8c-1.4,0-3,0-4.4,0.2l0.2-0.7l1.2-0.2c0.6-0.1,1-0.3,1.1-0.8
		c0.9-2.3,2.7-8.5,3.8-12.2c-0.6,0.4-1.7,1-2.3,1.2c-0.1-0.2-0.3-0.4-0.4-0.5C210,49.7,211,48.9,211.7,47.9z M217.7,48.1
		c-1.5,0-3.1,1.6-4.2,3.2c-0.9,1.2-1.5,2.7-1.5,3.9c0,1.4,1.1,2,2.2,2c1,0,2-0.5,2.8-1.4c1.3-1.5,2.2-3.9,2.2-5.6
		C219.2,49,218.7,48.1,217.7,48.1L217.7,48.1z"/>
	<path class="st6" d="M236.8,54.6c-0.6,1.3-2,3.3-4.2,3.3c-1.5,0-1.6-1.3-1.2-2.6c0.1-0.3,0.1-0.5,0.2-0.8h-0.1
		c-1.2,1.7-3.2,3.3-5.8,3.3c-1.6,0-2.5-1.1-2.5-2.8c0-2.5,1.5-5.4,3.9-7c1.1-0.7,2.3-1.1,3.4-1.1c1.5,0,2.5,0.5,2.8,1.5l0.3-1.1h2.3
		c-0.8,2.2-2.1,6.5-2.5,8.3c-0.1,0.7-0.1,1,0.3,1c0.8,0,1.8-1.1,2.5-2.6L236.8,54.6z M225.7,55c0,1,0.4,1.7,1.3,1.7
		c1.4,0,3-1,4.2-3.1c0.7-1.1,1.5-2.9,1.5-3.8c0-1.4-0.9-1.9-1.8-1.9c-1,0-1.9,0.4-3,1.5C226.6,50.9,225.7,53.1,225.7,55L225.7,55z"
		/>
	<path class="st6" d="M238.5,47.6c1.3-0.1,3-0.3,4.2-0.6c-0.2,1.1-0.7,3-0.9,4.1h0.1c1.4-2.6,2.9-4.1,4.5-4.1c1,0,1.5,0.8,1.5,1.4
		c0,1-0.7,1.6-1.3,1.6c-0.4,0-0.6-0.2-0.7-0.6c-0.1-0.4-0.2-0.7-0.6-0.7c-1.3,0-3,3.1-3.7,4.8c-0.5,1.1-0.9,2.4-1.4,4.1
		c-1,0-1.8,0.1-2.5,0.2c1.2-3.2,2.5-7.7,2.5-9c0-0.3-0.1-0.4-0.3-0.5h-1.6L238.5,47.6z"/>
	<path class="st6" d="M258.1,54.8c-1.3,2-3.8,3.1-6.1,3.1c-2.4,0-3.9-1.2-3.9-3.7c0-2.4,1.1-4.6,3.2-6.1c1.1-0.8,2.4-1.1,3.8-1.1
		c2.6,0,3.4,1.5,3.4,2.8c0,1.2-1.1,1.8-2.2,2.2c-1.4,0.6-4,0.9-5.6,1.1c-0.1,0.3-0.1,0.8-0.1,1.2c0,1.5,0.7,2.7,2.4,2.7
		c2.1,0,3.7-1.2,4.6-3.4h0.4L258.1,54.8z M254.9,47.7c-1.2,0-3,1-4,4.5c1.4-0.1,3.1-0.4,4-0.7c1-0.4,1.5-1.1,1.5-2.1
		C256.4,48.4,255.9,47.7,254.9,47.7L254.9,47.7z"/>
	<path class="st6" d="M273.5,54.7c-1.1,2.1-2.7,3.3-4.4,3.3c-1.7,0-1.7-1.4-1-3.2c0.6-1.6,1.4-3.5,1.9-5c0.3-0.7,0.2-1.6-0.8-1.6
		c-2.5,0-5,3.9-6.1,6.5c-0.3,0.8-0.7,1.7-1.1,3c-0.9,0-1.7,0.1-2.4,0.2c1.1-2.8,2.5-7.3,2.8-9c0.1-0.4,0-0.5-0.3-0.5l-1.7,0l0.3-0.7
		c1.5-0.1,3-0.3,4.5-0.6c-0.5,1.7-1,3.3-1.4,4.5c1.6-2.3,3.7-4.5,6.5-4.5c0.7,0,1.2,0.2,1.5,0.5c0.8,0.7,0.5,2.1,0.2,2.8
		c-0.6,1.6-1.5,3.9-2,5.4c-0.2,0.5-0.1,0.9,0.2,0.9c0.8,0,1.9-1.1,2.6-2.5L273.5,54.7z"/>
	<path class="st6" d="M285.2,54.8c-0.8,1.3-2.9,3.1-5.8,3.1c-2.6,0-4.3-1.2-4.3-4c0-2.4,1.3-4.7,3.6-6c1.1-0.6,2.2-0.9,3.5-0.9
		c2.3,0,3.5,1.1,3.5,2.6c0,1.1-0.7,1.6-1.4,1.6c-0.4,0-0.7-0.1-0.8-0.4c-0.2-0.2-0.2-0.5,0-0.7c0.1-0.3,0.3-0.7,0.3-1
		c0-0.9-0.5-1.4-1.7-1.4c-1.3,0-2.3,0.6-3.3,2c-0.8,1.2-1.2,2.9-1.2,4.2c0,1.9,1,2.9,2.5,2.9c2,0,3.6-1.2,4.6-3.4h0.4L285.2,54.8z"
		/>
	<path class="st6" d="M291,46.9c0,1.3,0.6,7.1,0.8,8.8c0.9-1.7,1.9-3.4,2.9-5c1.4-2.3,2.8-3.8,4.8-3.9l0.1,0.6
		c-1.4,0.4-2.8,2.1-3.8,3.7c-1.7,2.5-3.6,5.6-5,8c-2.1,3.7-3.5,4.7-5.2,4.7c-1.4,0-2-1-1.9-1.8c0-1,0.7-1.4,1.2-1.4
		c0.5,0,0.7,0.3,0.8,0.7c0.2,0.6,0.5,0.9,0.9,0.9c1.2,0,2.2-1.3,3.5-3.8c-0.4-0.3-0.4-0.9-0.5-1.7c-0.2-2.3-0.8-6.7-1-7.9
		c-0.1-0.5-0.4-0.6-2.2-0.6l0.2-0.7C287.8,47.5,289.8,47.3,291,46.9z"/>
</g>
</svg>
