<?xml version="1.0" encoding="utf-8"?>
<!-- Generator: Adobe Illustrator 17.1.0, SVG Export Plug-In . SVG Version: 6.00 Build 0)  -->
<!DOCTYPE svg PUBLIC "-//W3C//DTD SVG 1.1//EN" "http://www.w3.org/Graphics/SVG/1.1/DTD/svg11.dtd">
<svg version="1.1" xmlns="http://www.w3.org/2000/svg" xmlns:xlink="http://www.w3.org/1999/xlink" x="0px" y="0px"
	 viewBox="0 0 548 96" enable-background="new 0 0 548 96" xml:space="preserve">
<g id="Layer_1">
	<g>
		<path fill="#FFFFFF" d="M22.4,64.2c-1.9,0-3.5-0.2-5.3-0.2c-1.9,0-3.7,0.1-5.6,0.1c-0.3,0-0.4-0.1-0.4-0.5c0-0.7,0.1-0.8,0.8-0.8
			c1.5,0,2.5-0.7,3-1.9c0.5-1.1,0.5-1.2,0.5-8.1V38.8c0-4.5-0.5-5.5-3.2-5.9c-0.6-0.1-0.6-0.1-0.6-0.7c0-0.5,0.1-0.7,0.4-0.7
			c0.5,0,1,0.1,1.4,0.1c1.4,0.1,2.8,0.2,4.2,0.2c1.7,0.1,3.3-0.1,5-0.2c0.3,0,0.4,0.2,0.4,0.7c0,0.5,0,0.6-1.1,0.7
			c-1.9,0.3-2.4,1.1-2.4,3.5v20.4c0,4.9,0.6,5.8,3.4,6c0.4,0.1,0.6,0.1,0.6,0.4C23.3,64.2,23.3,64.2,22.4,64.2z"/>
		<path fill="#FFFFFF" d="M60.1,33c-1.6,0.2-2.6,1.1-2.9,2.5c-0.2,0.6-0.3,1.6-0.3,3.8c0,6.2-0.1,12.8-0.1,19.2c0,2,0.2,3.9,0.2,5.8
			c0,0.3-0.6,0.7-0.9,0.3c-0.3-0.4-1-1.2-2.6-3.1c-5.3-6.5-10.9-12.8-16.1-19.2c-2.4-3-3.9-4.7-4.9-5.8v17.2c0,7.6,0.9,9.4,4.7,9.5
			c0.3,0,0.4,0.1,0.4,0.4c-0.1,0.7-0.1,0.8-0.9,0.8c-1.5,0-3.1-0.1-4.6-0.1c-1.5,0-3.4,0.2-4.9,0.2c-0.4,0.1-0.6-0.1-0.5-0.4
			c0.1-0.8,0.1-0.8,0.5-0.8c4.2-0.4,3.9-6.3,3.9-9.6c0-5.3,0.1-11.1-0.2-16.6c-0.1-3-0.7-3.6-3.5-3.9c-0.6-0.1-0.7-0.1-0.7-0.7
			c0-0.5,0.1-0.7,0.5-0.6c1,0.1,3.1,0.3,4.6,0.3c2.2,0,2.5-0.1,3.3-0.3c0.4,1.2,0.9,1.9,2,3.4c0.9,1.2,1.6,2,6.1,7.4
			c0.2,0.2,11.5,13.8,11.9,13.8c0.2,0,0.3-0.3,0.3-1.7c0-5.2,0.1-10.3,0.1-15.5c0-4.5-0.6-5.5-3.9-6.1c-0.8-0.2-0.8-0.2-0.8-0.6
			c0-0.7,0.1-0.8,0.6-0.8c0.8,0,2.6,0.1,3.8,0.1c1.7,0,4.1-0.2,5.1-0.2c0.3-0.1,0.4,0.1,0.4,0.5C60.8,32.9,60.8,32.9,60.1,33z"/>
		<path fill="#FFFFFF" d="M86.1,38.6c-0.5,0.1-0.6,0-0.6-0.2c-0.2-1.2-0.7-2.4-1.5-3.3c-1.4-1.4-3.1-1.9-6.9-1.9
			c-2.1,0-4.2,0.1-6.4,0.1c0,4.4-0.1,8.7-0.1,13.1h2.7c3.7,0,4.4-0.1,5-0.1c2.4-0.3,3.6-1.4,3.9-3.7c0.1-0.3,0.4-0.3,0.6-0.3
			c0.4,0,0.6,0.1,0.6,0.4c-0.1,1.7-0.1,1.6-0.1,4.9c0,1.4,0.1,2.8,0.1,4.2c0,0.3-0.1,0.4-0.6,0.4c-0.6-0.1-0.6-0.1-0.7-0.6
			c-0.2-3.2-2.9-3.7-5.4-3.7c-2.1,0-4.1-0.1-6.2-0.1v5.1c0,3.5,0,4.8,0.1,6.7c0.1,2.5,1.2,3.3,4.5,3.3c0.4,0,0.9-0.1,0.9,0.5
			c0,0.8-0.1,1-0.5,1c-2.4,0-4.7-0.2-7-0.2c-1.4,0-3.4,0.2-5.4,0.3c-0.9,0-1,0-1-0.6c0-0.5,0.1-0.8,0.4-0.8c0.8,0,2.1-0.2,2.8-0.7
			c1.1-0.7,1.2-1.5,1.2-6.3V39.3c0-3.6-0.1-4.2-0.4-4.8c-0.5-1-1.3-1.3-3.2-1.5c-0.5,0-0.5-0.1-0.5-0.5c0-0.7,0.1-0.8,0.5-0.8
			c1.3,0,2.5,0.1,3.8,0.1c4.6,0,6.7,0,13.5,0c2,0,4-0.1,6.1-0.1c0.1,0,0.1,0.1,0.1,0.2c0,2.1,0.1,4.2,0.1,6.3
			C86.7,38.5,86.6,38.6,86.1,38.6z"/>
		<path fill="#FFFFFF" d="M113.2,63.9c0,0.7-5.9,0.4-8.6,0.3c-5.3-0.2-10.6-0.1-15.9,0.1c-0.6,0-0.6-0.1-0.6-0.7
			c0-0.5,0.1-0.7,0.5-0.7c1.4,0,2.8-0.1,3.7-1.4c0.7-1,0.9-2.3,0.9-6V36.9c0-2.7-0.9-3.8-3.6-3.8c-0.5,0-0.6-0.2-0.6-0.6
			c0-0.6,0.1-0.7,0.5-0.7c2.4,0.1,3.3,0.1,4.9,0.1c2.2,0,4.4-0.2,6.6-0.2c0.4,0,0.4,0.1,0.4,0.8c0,0.6-0.2,0.5-0.8,0.6
			c-2.1,0.3-3,0.8-3.2,2.1c-0.1,0.9-0.2,1.4-0.2,6.5V49c0,8.4,0,8.9,0.4,10.5c0.6,2.2,2.4,3.1,6,3.1c5.8,0,8-1.9,9.9-6.9
			c0.1-0.3,0.3-0.3,0.7-0.2c0.5,0.1,0.6,0.2,0.4,0.6C114,58.4,113.2,61.5,113.2,63.9z"/>
		<path fill="#FFFFFF" d="M147.2,32.9c-1.8,0.4-3.1,0.7-3.5,2.7c-0.2,1-0.3,2.5-0.3,8.8c0,1.9-0.1,3.8-0.1,5.7c0,5.2-0.5,7.9-2.1,10
			c-2.2,3.1-6.3,4.8-11,4.8c-4.6,0-9.1-1.8-11.2-4.5c-1.5-1.9-1.9-3.6-1.9-8.5c0-5.1,0.3-10.3,0.3-15.5c0-2.8-0.5-3.4-2.7-3.5
			c-0.5,0-0.5-0.1-0.5-0.6c0-0.7,0.1-0.7,0.5-0.7c1.8,0.1,3.8,0.2,5.3,0.2c1.7,0,3.2-0.1,4.9-0.2c0.4,0,0.4,0.1,0.4,0.8
			c0,0.5,0,0.5-0.9,0.5c-1.9,0.2-2.7,1-2.9,3c-0.4,4.9-0.3,10-0.3,15c0,4.2,0.4,5.9,1.6,7.8c1.6,2.3,4.7,3.6,8.7,3.6
			c4,0,7.1-1.4,8.8-4.1c1-1.6,1.4-3.7,1.4-8.1c0-4.4,0.2-8.8-0.1-13.3c-0.2-2.8-1.4-4-4.1-4c-0.4,0-0.6-0.1-0.5-0.3
			c0-0.8,0.1-0.9,0.5-0.9c0.2,0,1.4,0.1,1.4,0.1s1.4,0.1,3.5,0.1c1.6,0,3.2-0.2,4.7-0.2c0.3,0,0.3,0.2,0.3,0.8
			C147.5,32.8,147.5,32.8,147.2,32.9z"/>
		<path fill="#FFFFFF" d="M174.2,64c-0.1,0.3-0.1,0.3-0.4,0.3c-3.2-0.1-6.4-0.2-9.5-0.2c-3,0-8.9,0.1-11.5,0.2
			c-1.2,0-2.3,0.1-3.4,0.1c-0.7,0-0.7-0.2-0.7-0.8c0-0.6,0.1-0.6,0.7-0.6c1.7,0,2.8-0.5,3.3-1.4c0.5-0.9,0.6-1.2,0.6-4.3l0.1-15.9
			c0-5.6-0.1-6.6-0.5-7.3c-0.6-1.1-1.7-1.1-2.8-1.1c-0.5,0-0.5,0-0.5-0.6c0-0.6,0-0.7,0.7-0.7c2.1,0,4.2,0.2,6.3,0.2l13.1-0.1
			c1.1-0.1,2.3,0,3.1,0.1c0.6,0.1,0.7,0,0.7,0.6c0,1,0.1,2.1,0.1,3.1c0.1,0.8,0.1,1.5,0.1,2.3c0.1,0.8,0.1,0.8-0.5,0.8
			c-0.5,0-0.5-0.1-0.5-0.5c-0.3-1.6-1.1-2.7-2.2-3.6c-1.4-1.1-2.6-1.3-6.2-1.3c-3.5,0-5.4,0.1-6.9,0.1c-0.1,4.2-0.1,8.5-0.1,12.8h6
			c3.8,0,4.2-0.1,5-1.1c0.6-0.8,0.8-1.7,1-2.6c0.1-0.4,0.2-0.4,0.7-0.4c0.4,0.1,0.5,0.1,0.5,0.4c-0.2,1.4-0.2,3-0.2,4.3
			c0,1.5,0.1,3.2,0.1,4.6c0,0.3-0.1,0.4-0.4,0.4h-0.5c-0.4,0-0.4-0.3-0.4-0.5c0-1.7-0.8-3-2.4-3.5c-0.7-0.2-1.8-0.3-5.1-0.3h-4.3
			v3.8c0,7.5,0.1,8.3,0.5,9.3c0.6,1.4,2.9,2,6.8,2c5.6,0,7.6-1.2,9.8-6.4c0.1-0.3,0.3-0.3,0.6-0.2c0.5,0.1,0.5,0.3,0.4,0.9
			C174.5,61.5,174.6,61.7,174.2,64z"/>
		<path fill="#FFFFFF" d="M211.8,33c-1.6,0.2-2.6,1.1-2.9,2.5c-0.2,0.6-0.3,1.6-0.3,3.8c0,6.2-0.1,12.8-0.1,19.2
			c0,2,0.2,3.9,0.2,5.8c0,0.3-0.6,0.7-0.9,0.3c-0.3-0.4-1-1.2-2.6-3.1c-5.3-6.5-10.9-12.8-16.1-19.2c-2.4-3-3.9-4.7-4.9-5.8v17.2
			c0,7.6,0.9,9.4,4.7,9.5c0.3,0,0.4,0.1,0.4,0.4c-0.1,0.7-0.1,0.8-0.9,0.8c-1.5,0-3.1-0.1-4.6-0.1c-1.5,0-3.4,0.2-4.9,0.2
			c-0.4,0.1-0.6-0.1-0.5-0.4c0.1-0.8,0.1-0.8,0.5-0.8c4.2-0.4,3.9-6.3,3.9-9.6c0-5.3,0.1-11.1-0.2-16.6c-0.1-3-0.7-3.6-3.5-3.9
			c-0.6-0.1-0.7-0.1-0.7-0.7c0-0.5,0.1-0.7,0.5-0.6c1,0.1,3.1,0.3,4.6,0.3c2.2,0,2.5-0.1,3.3-0.3c0.4,1.2,0.9,1.9,2,3.4
			c0.9,1.2,1.6,2,6.1,7.4c0.2,0.2,11.5,13.8,11.9,13.8c0.2,0,0.3-0.3,0.3-1.7c0-5.2,0.1-10.3,0.1-15.5c0-4.5-0.6-5.5-3.9-6.1
			c-0.8-0.2-0.8-0.2-0.8-0.6c0-0.7,0.1-0.8,0.6-0.8c0.8,0,2.6,0.1,3.8,0.1c1.7,0,4.1-0.2,5.1-0.2c0.3-0.1,0.4,0.1,0.4,0.5
			C212.5,32.9,212.5,32.9,211.8,33z"/>
		<path fill="#FFFFFF" d="M243.8,58.9c-0.2,1.1-0.3,2.2-0.4,3.4c-3.3,1.3-3.9,1.6-5,1.9c-2.1,0.6-4.3,0.9-6.5,0.9
			c-5.1,0-9.9-1.6-13.6-5.3c-3-3.1-4.6-7-4.6-11.5c0-4.4,1.6-8.8,4.6-12c3.3-3.4,8.1-5.3,13.2-5.3c3.3,0,4.9,0.7,8,1.7
			c0.9,0.3,2.8,0.8,3.7,0.6c0.1,4.3,0,2.4,0.1,5.6c0.1,0.8,0.1,1.6,0.1,2.3c0,0.2,0,0.2-0.2,0.3l-0.6,0.1c-0.2,0-0.3-0.1-0.3-0.3
			c-0.1-0.5-0.3-1.5-0.7-2.5c-0.9-1.8-2.7-3.6-4.3-4.6c-1.8-1.2-3.8-1.8-6.2-1.8c-4.2,0-8.2,2.1-10.5,5.7c-1.6,2.4-2.5,5.7-2.5,9.1
			c0,4.7,1.7,8.9,4.6,12c2.6,2.7,6.2,4.4,10.2,4.4c3.2,0,5.7-0.9,7.8-3.3c1.2-1.3,2.1-3,2.3-4.2c0.1-0.2,0.1-0.3,0.3-0.3h0.6
			c0.2,0,0.2,0.1,0.2,0.3C244.1,56.9,243.9,57.9,243.8,58.9z"/>
		<path fill="#FFFFFF" d="M272.1,64c-0.1,0.3-0.1,0.3-0.4,0.3c-3.2-0.1-6.4-0.2-9.5-0.2c-3,0-8.9,0.1-11.5,0.2
			c-1.2,0-2.3,0.1-3.4,0.1c-0.7,0-0.7-0.2-0.7-0.8c0-0.6,0.1-0.6,0.7-0.6c1.7,0,2.8-0.5,3.3-1.4c0.5-0.9,0.6-1.2,0.6-4.3l0.1-15.9
			c0-5.6-0.1-6.6-0.5-7.3c-0.6-1.1-1.7-1.1-2.8-1.1c-0.5,0-0.5,0-0.5-0.6c0-0.6,0-0.7,0.7-0.7c2.1,0,4.2,0.2,6.3,0.2l13.1-0.1
			c1.1-0.1,2.3,0,3.1,0.1c0.6,0.1,0.7,0,0.7,0.6c0,1,0.1,2.1,0.1,3.1c0.1,0.8,0.1,1.5,0.1,2.3c0,0.8,0,0.8-0.5,0.8
			c-0.5,0-0.5-0.1-0.5-0.5c-0.3-1.6-1.1-2.7-2.2-3.6c-1.4-1.1-2.6-1.3-6.2-1.3c-3.5,0-5.4,0.1-6.9,0.1c-0.1,4.2-0.1,8.5-0.1,12.8h6
			c3.8,0,4.2-0.1,5-1.1c0.6-0.8,0.8-1.7,1-2.6c0.1-0.4,0.2-0.4,0.7-0.4c0.4,0.1,0.5,0.1,0.5,0.4c-0.2,1.4-0.2,3-0.2,4.3
			c0,1.5,0.1,3.2,0.1,4.6c0,0.3-0.1,0.4-0.4,0.4h-0.5c-0.4,0-0.4-0.3-0.4-0.5c0-1.7-0.8-3-2.4-3.5c-0.7-0.2-1.8-0.3-5.1-0.3h-4.3
			v3.8c0,7.5,0.1,8.3,0.5,9.3c0.6,1.4,2.9,2,6.8,2c5.6,0,7.6-1.2,9.8-6.4c0.1-0.3,0.3-0.3,0.6-0.2c0.5,0.1,0.5,0.3,0.4,0.9
			C272.4,61.5,272.5,61.7,272.1,64z"/>
	</g>
	<g>
		<path fill="#FFFFFF" d="M296.5,64.5V31.7h21.3v5.2h-14.7v7.7h11.9v5.2h-11.9v9.5h14.7v5.2H296.5z"/>
		<path fill="#FFFFFF" d="M345.2,64.5L336.5,52l-8.8,12.4h-7.4l12.1-16.8l-11.5-16h7.6l8,11.6l8.1-11.6h7.4l-11.5,15.9l12.1,16.8
			H345.2z"/>
		<path fill="#FFFFFF" d="M368.7,52.6h-5.8v11.9h-6.7V31.7h12.4c7.9,0,11.3,4.8,11.3,10.4C380,47.8,376.5,52.6,368.7,52.6z
			 M367.6,36.5c-0.3,0-4.7,0-4.7,0v11.3h4.7c4.3,0,5.8-2.6,5.8-5.7C373.4,39.1,371.9,36.5,367.6,36.5z"/>
		<path fill="#FFFFFF" d="M384.4,64.5V31.7h6.7v27.6h14.7v5.2H384.4z"/>
		<path fill="#FFFFFF" d="M425.2,65.4c-10,0-17.8-7.3-17.8-17.3c0-10,7.8-17.3,17.8-17.3c10,0,17.7,7.3,17.7,17.3
			C442.9,58.1,435.2,65.4,425.2,65.4z M425.2,36.1c-6.5,0-10.9,4.9-10.9,12c0,7.1,4.3,12,10.9,12c6.4,0,10.7-4.9,10.7-12
			C435.9,41,431.7,36.1,425.2,36.1z"/>
		<path fill="#FFFFFF" d="M472,64.8c-3.9,0-7.1-1.7-9.4-6.4l-3.5-7h-3.8v13h-6.7V31.7h12.9c7.7,0,11.1,4.6,11.1,9.9
			c0,4.6-2.6,8.2-7.2,9.3l3.2,5.6c1.6,2.8,3.2,3.8,5.5,3.8c0.7,0,1.2-0.1,1.9-0.3v4.2C474.6,64.6,473.2,64.8,472,64.8z M455.2,46.7
			h5.1c4.1,0,5.6-2.2,5.6-5.1c0-2.9-1.5-5.2-5.6-5.2c-0.3,0-5.1,0-5.1,0V46.7z"/>
		<path fill="#FFFFFF" d="M480.2,64.5V31.7h21.3v5.2h-14.7v7.7h11.9v5.2h-11.9v9.5h14.7v5.2H480.2z"/>
		<path fill="#FFFFFF" d="M531.2,64.8c-3.9,0-7.1-1.7-9.4-6.4l-3.5-7h-3.8v13h-6.7V31.7h12.9c7.7,0,11.1,4.6,11.1,9.9
			c0,4.6-2.6,8.2-7.2,9.3l3.2,5.6c1.6,2.8,3.2,3.8,5.5,3.8c0.7,0,1.2-0.1,1.9-0.3v4.2C533.8,64.6,532.4,64.8,531.2,64.8z
			 M514.4,46.7h5.1c4.1,0,5.6-2.2,5.6-5.1c0-2.9-1.5-5.2-5.6-5.2c-0.3,0-5.1,0-5.1,0V46.7z"/>
	</g>
	<line fill="none" stroke="#FFFFFF" stroke-dasharray="3" x1="284.3" y1="18" x2="284.3" y2="80.4"/>
	<circle fill="none" stroke="#FFFFFF" cx="284.3" cy="15.6" r="2.8"/>
	<circle fill="#FFFFFF" stroke="#FFFFFF" cx="284.3" cy="81.2" r="2.8"/>
</g>
<g id="Layer_2">
</g>
</svg>
