<?xml version="1.0" encoding="utf-8"?>
<!-- Generator: Adobe Illustrator 17.1.0, SVG Export Plug-In . SVG Version: 6.00 Build 0)  -->
<!DOCTYPE svg PUBLIC "-//W3C//DTD SVG 1.1//EN" "http://www.w3.org/Graphics/SVG/1.1/DTD/svg11.dtd">
<svg version="1.1" id="Layer_1" xmlns="http://www.w3.org/2000/svg" xmlns:xlink="http://www.w3.org/1999/xlink" x="0px" y="0px"
	 viewBox="0 0 506.7 100.7" enable-background="new 0 0 506.7 100.7" xml:space="preserve">
<g>
	<g>
		<path fill="#FFFFFF" d="M15.5,69.1h5.3L37.1,23h18.5l15.7,46.1h4.9v11.8H47.3V69.1H53l-2.3-6.8h-16l-2.3,6.8h5.1v11.8h-22V69.1z
			 M38.2,52.7h9.3L42.8,39L38.2,52.7z"/>
		<path fill="#FFFFFF" d="M81.3,70.6H86V44.5h-4.9V34h37.4c2,0,3.8,0.3,5.3,0.9c1.5,0.6,2.7,1.5,3.7,2.5c1,1,1.7,2.2,2.2,3.6
			c0.5,1.3,0.7,2.8,0.7,4.2v23.1c0,1.4-0.2,2.8-0.7,4.3c-0.5,1.5-1.3,2.8-2.3,4c-1,1.2-2.4,2.2-3.9,3c-1.6,0.8-3.5,1.2-5.7,1.2H81.3
			V70.6z M102.2,70.4h8.3c2.2,0,3.4-0.9,3.4-2.7V46.5c0-0.4-0.2-0.7-0.5-1c-0.3-0.3-0.6-0.6-0.9-0.8h-10.3V70.4z"/>
		<path fill="#FFFFFF" d="M188.3,68.9h5V57.3h-14.6v11.6h4.4v11.8h-28.3V68.9h6.2v-34h-6.2V23.3h28.3v11.6H179v11h14.4v-11h-5V23.3
			h28.2v11.6H211v34h5.5v11.8h-28.2V68.9z"/>
		<path fill="#FFFFFF" d="M221.6,70.4h4.6l14.1-36.8h16.2l13.7,36.8h4.1v10.4h-25.4V70.4h4.6l-1.7-4.6c-2.3,0-4.5,0-6.5,0.1
			c-2.1,0.1-4.2,0.1-6.5,0.1c-0.3,0.5-0.5,1.1-0.8,1.6c-0.2,0.5-0.5,1.1-0.6,1.6c0,0.4-0.1,0.8-0.3,1.2h4.4v10.5h-19.8V70.4z
			 M242.3,57.4h6.6c-0.3-0.9-0.6-1.7-0.9-2.4c-0.3-0.7-0.6-1.4-0.9-2.1c-0.3-0.7-0.6-1.5-0.9-2.2c-0.3-0.8-0.6-1.6-0.9-2.5
			L242.3,57.4z"/>
		<path fill="#FFFFFF" d="M307.7,59.4c-1.1,3.5-2.2,6.9-3.3,10.4c-1.1,3.5-2.3,7.2-3.6,11.1h-15.1l-11.3-36.1h-3.9V34h24.3v10.7
			h-4.3l6.1,19c0.2-0.8,0.5-1.8,0.8-2.8c0.3-1.1,0.7-2.3,1.1-3.8c0.4-1.5,0.9-3.2,1.4-5.2c0.5-2,1.2-4.4,2-7.1h-3.5V34h25v10.7h-3.5
			c0.4,1.6,0.9,3.1,1.3,4.4c0.4,1.3,0.8,2.7,1.2,4c0.4,1.3,0.8,2.6,1.2,4c0.4,1.3,0.9,2.8,1.4,4.5l4.7-16.9h-3V34h18.3v10.7h-4.1
			c-0.2,0.5-0.3,1-0.5,1.6c-0.2,0.6-0.4,1.4-0.7,2.3c-0.3,1-0.7,2.3-1.2,3.9c-0.5,1.6-1.1,3.6-1.8,6.2c-0.8,2.5-1.7,5.6-2.8,9.2
			c-1.1,3.6-2.3,8-3.8,13h-15.7L307.7,59.4z"/>
		<path fill="#FFFFFF" d="M350.6,70.3h4.7V44.4h-4.7V34h25v10.4h-4v9.3c1.9-1.7,3.6-3.2,5.2-4.6c1.6-1.4,3.4-2.9,5.5-4.7h-2.4V34h22
			v10.4h-4.4c-1.9,1.7-3.8,3.3-5.6,4.8c-1.8,1.5-3.7,3.1-5.7,4.9l13.7,16.3c0.6,0,1.3,0,2.1,0c0.8,0,1.5,0,2.1,0v10.6h-25.2V70.3h2
			c-1.2-1.4-2.5-2.9-3.9-4.6c-1.5-1.7-2.7-3.2-3.8-4.3l-1.3-1.5v10.4h3.1v10.6h-24.1V70.3z"/>
	</g>
	<g>
		<path fill="#FFFFFF" d="M476.7,77.7L490,87.8l-11.6-14.4l7.8,3.6l-28.8-28.3l2.2-13.2l-12.9,2.7L417.7,9.8l3.8,6.9L406.8,6.1
			l10.3,13.1l-15.7-9.4l12,15l-10.5-4.7L415,33l-6.6-0.4l9.2,10.3l-3.4,1.3l10.9,9.5l-22.7,9l24.6,6l6.4,24.5l8.6-22.9l9.7,10.7
			l1.2-3.4l10.4,9l-0.5-6.6L476,91.9l-4.9-10.4l15.2,11.7L476.7,77.7z M468.9,82.2l-8.8-7.3l0.3,5.7l-8.3-7.3l-1.3,2.9l-10.1-10.9
			l-6.9,18.6L429.4,67l-19.2-4.9l19.1-7.3l-10.5-9.4l2.7-1.1l-7.3-8.1l4.9-1.2l-6.6-8.1l5.4,1.2l-5.6-8.6l7.7,3.3l-1.8-5.5l6.6,4.8
			l-0.9-3.6l22,23l10.5-2.1l-1.7,9.9l21.7,21.4l-2.9-0.8l5.1,7l-7.3-4l7.2,11.6l-11.3-8.2L468.9,82.2z"/>
		<g opacity="0.75">
			<polygon fill="#FFFFFF" points="424.3,18.9 424,18.6 424.9,22.1 425,22.2 			"/>
			<path fill="#FFFFFF" d="M427.2,21.9c2.5,2.7,6.2,6.7,9.8,10.2L427.2,21.9z"/>
			<polygon fill="#FFFFFF" points="473.7,70 476.4,70.8 476.4,70.7 473.7,70 			"/>
			<path fill="#FFFFFF" d="M474,68.3l-11.3-11.1C466.5,61.2,471.1,65.6,474,68.3z"/>
			<path fill="#FFFFFF" d="M478.2,76.4c-1.9-2.2-8.7-9.8-14.8-16.3c-4.9-5.2-9.6-9.2-9.8-10.2c-0.6-2.4,1.6-6.7,0.6-7.6
				c-0.9-0.8-5.7,1.1-8.8,0.2c-3.1-0.9-8.2-9.7-15.8-15.6c-5.7-4.5-9.6-8.1-10.8-9.2l-0.5-0.4l1.8,5.5l-7.7-3.3l5.6,8.6l-5.4-1.2
				l6.6,8.1l-4.9,1.2l7.3,8.1l-2.7,1.1l10.5,9.4l-4.2,1.6c-1,0.6-7.5,4.8-7.1,5.6c0.5,1.1,8,4.1,8,4.1l-15.8-4l-0.1,0l19.2,4.9
				l4.4,16.8l6.9-18.6l10.1,10.9l1.3-2.9l8.3,7.3l-0.3-5.7l8.8,7.3l-1.6-5.8l11.3,8.2L471.4,73l7.3,4L478.2,76.4z M433.8,83.8
				l-4.2-16.1c0,0,3.8,7.8,4.7,7.5c1.1-0.4,5.3-7.3,5.3-7.3L433.8,83.8z"/>
			<path fill="#FFFFFF" d="M424.9,22.1l-6.5-4.7c0,0,0.1,0.1,0.4,0.4l6.1,4.5L424.9,22.1z"/>
			<path fill="#FFFFFF" d="M478.2,76.4c0.3,0.4,0.6,0.6,0.6,0.6l-5-7l-0.1,0L478.2,76.4z"/>
			<path fill="#FFFFFF" d="M424.3,18.7l0,0.1l2.9,3C425.4,20,424.3,18.7,424.3,18.7z"/>
			<path fill="#FFFFFF" d="M476.6,70.8c0,0-1-1-2.6-2.4l2.4,2.4L476.6,70.8z"/>
			<path fill="#FFFFFF" d="M456.4,39.4l-1.7,9.9l7.9,7.8c-3.4-3.5-6.2-6.7-6.7-8.1C454.9,46.6,457.4,40.4,456.4,39.4
				c-1-1.1-7.3,1.6-10,1c-1.2-0.2-5.2-4-9.5-8.3l9,9.4L456.4,39.4z"/>
			<path fill="#FFFFFF" d="M425.3,56.3l-15,5.7l0.1,0l14.8-5.7C425.2,56.4,425.3,56.3,425.3,56.3z"/>
		</g>
		<path opacity="0.4" fill="#FFFFFF" d="M418.4,17.4l6.6,4.8l-0.8-3.5c0,0,19.3,21.1,22.2,21.7c2.7,0.6,9-2.1,10-1
			c1,1-1.5,7.1-0.5,9.7c1.5,3.8,20.6,21.7,20.6,21.7l-2.9-0.8l5.1,7c0,0-8.2-9.3-15.3-16.9c-4.9-5.2-9.6-9.2-9.8-10.2
			c-0.6-2.4,1.6-6.7,0.6-7.6c-0.9-0.8-5.7,1.1-8.8,0.2c-3.1-0.9-8.2-9.7-15.8-15.6C422.7,21.5,418.4,17.4,418.4,17.4z"/>
		<path opacity="0.4" fill="#FFFFFF" d="M425.3,56.3l-15,5.7l15.8,4.1c0,0-7.5-3-8-4.1C417.6,61.1,425.3,56.3,425.3,56.3z"/>
		<path opacity="0.4" fill="#FFFFFF" d="M429.6,67.7l4.2,16.1l5.9-15.8c0,0-4.2,6.9-5.3,7.3C433.4,75.5,429.6,67.7,429.6,67.7z"/>
	</g>
</g>
</svg>
